<?xml version="1.0" encoding="utf-8"?>
<!-- Generator: Adobe Illustrator 24.0.2, SVG Export Plug-In . SVG Version: 6.00 Build 0)  -->
<svg version="1.1" id="Calque_1" xmlns="http://www.w3.org/2000/svg" xmlns:xlink="http://www.w3.org/1999/xlink" x="0px" y="0px"
	 viewBox="0 0 743 254" style="enable-background:new 0 0 743 254;" xml:space="preserve">
<style type="text/css">
	.st0{fill:#FFFFFF;}
	.st1{fill:#65B084;}
	.st2{fill:#29264F;}
	.st3{clip-path:url(#SVGID_2_);}
	.st4{opacity:0.6;}
	.st5{fill:#358756;}
	.st6{clip-path:url(#SVGID_2_);fill:#FFFFFF;}
	.st7{clip-path:url(#SVGID_4_);}
	.st8{clip-path:url(#SVGID_4_);fill:#29264F;}
</style>
<g>
	<path class="st2" d="M188.6,170.87V72.3h12.49v87.46h54.97v11.11H188.6z"/>
	<path class="st2" d="M298.41,172.26c-5.46,0-10.41-0.99-14.85-2.96c-4.44-1.97-8.28-4.68-11.52-8.13
		c-3.24-3.45-5.74-7.42-7.5-11.92c-1.76-4.5-2.64-9.23-2.64-14.19c0-5.05,0.88-9.83,2.64-14.33c1.76-4.5,4.26-8.47,7.5-11.92
		c3.24-3.44,7.1-6.15,11.59-8.13c4.49-1.97,9.42-2.96,14.78-2.96c5.46,0,10.41,0.99,14.85,2.96c4.44,1.98,8.31,4.69,11.59,8.13
		c3.28,3.44,5.81,7.42,7.57,11.92c1.76,4.5,2.64,9.28,2.64,14.33c0,4.96-0.88,9.69-2.64,14.19c-1.76,4.5-4.26,8.47-7.5,11.92
		c-3.24,3.44-7.1,6.16-11.59,8.13C308.84,171.27,303.87,172.26,298.41,172.26z M274.39,135.19c0,4.95,1.09,9.44,3.26,13.47
		c2.17,4.03,5.07,7.21,8.68,9.55c3.61,2.34,7.63,3.5,12.08,3.5s8.49-1.19,12.15-3.57c3.65-2.38,6.57-5.61,8.75-9.69
		c2.17-4.08,3.26-8.59,3.26-13.54c0-4.95-1.09-9.43-3.26-13.46c-2.17-4.03-5.09-7.24-8.75-9.62c-3.66-2.38-7.71-3.57-12.15-3.57
		s-8.47,1.21-12.08,3.64c-3.61,2.43-6.5,5.65-8.68,9.68C275.48,125.62,274.39,130.15,274.39,135.19z"/>
	<path class="st2" d="M381.98,172.26c-5.46,0-10.44-0.99-14.92-2.96c-4.49-1.97-8.38-4.71-11.66-8.2
		c-3.29-3.49-5.83-7.49-7.63-11.99s-2.71-9.28-2.71-14.33c0-6.8,1.53-13,4.58-18.6c3.05-5.61,7.36-10.08,12.91-13.44
		s11.98-5.03,19.3-5.03c7.13,0,13.35,1.6,18.67,4.79c5.32,3.19,9.28,7.47,11.87,12.84l-11.94,3.75c-1.85-3.42-4.44-6.08-7.77-7.98
		c-3.33-1.9-7.04-2.85-11.11-2.85c-4.44,0-8.49,1.14-12.15,3.44c-3.66,2.29-6.55,5.43-8.68,9.41c-2.13,3.98-3.19,8.54-3.19,13.67
		c0,5.04,1.09,9.6,3.26,13.67c2.17,4.08,5.09,7.3,8.75,9.69c3.65,2.38,7.7,3.57,12.15,3.57c2.87,0,5.62-0.51,8.26-1.53
		c2.64-1.02,4.95-2.38,6.94-4.09c1.99-1.71,3.35-3.59,4.1-5.62l11.94,3.61c-1.48,3.52-3.73,6.64-6.73,9.37
		c-3.01,2.73-6.57,4.88-10.69,6.46C391.4,171.47,386.89,172.26,381.98,172.26z"/>
	<path class="st2" d="M457.78,172.26c-5.46,0-10.41-0.99-14.85-2.96c-4.44-1.97-8.28-4.68-11.52-8.13
		c-3.24-3.45-5.74-7.42-7.5-11.92c-1.76-4.5-2.64-9.23-2.64-14.19c0-5.05,0.88-9.83,2.64-14.33c1.76-4.5,4.26-8.47,7.5-11.92
		c3.24-3.44,7.1-6.15,11.59-8.13c4.49-1.97,9.42-2.96,14.78-2.96c5.46,0,10.41,0.99,14.85,2.96c4.44,1.98,8.31,4.69,11.59,8.13
		c3.28,3.44,5.81,7.42,7.57,11.92c1.76,4.5,2.64,9.28,2.64,14.33c0,4.96-0.88,9.69-2.64,14.19c-1.76,4.5-4.26,8.47-7.5,11.92
		c-3.24,3.44-7.1,6.16-11.59,8.13C468.21,171.27,463.24,172.26,457.78,172.26z M433.76,135.19c0,4.95,1.09,9.44,3.26,13.47
		c2.17,4.03,5.07,7.21,8.68,9.55c3.61,2.34,7.63,3.5,12.08,3.5s8.49-1.19,12.15-3.57c3.65-2.38,6.57-5.61,8.75-9.69
		c2.17-4.08,3.26-8.59,3.26-13.54c0-4.95-1.09-9.43-3.26-13.46c-2.17-4.03-5.09-7.24-8.75-9.62c-3.66-2.38-7.71-3.57-12.15-3.57
		s-8.47,1.21-12.08,3.64c-3.61,2.43-6.5,5.65-8.68,9.68C434.85,125.62,433.76,130.15,433.76,135.19z"/>
	<path class="st1" d="M509.7,170.87V72.3h19.16v46.85l41.37-46.99h21.1l-37.76,43.93l40.12,54.77h-21.66l-30.54-42.54l-12.63,13.07
		v29.47H509.7z"/>
	<path class="st1" d="M606.32,87.85V69.53h18.46v18.33H606.32z M606.32,170.87V98.12h18.46v72.74H606.32z"/>
	<path class="st1" d="M690.86,167.26c-1.67,0.74-3.59,1.5-5.76,2.29c-2.18,0.79-4.54,1.43-7.08,1.94c-2.55,0.51-5.12,0.76-7.71,0.76
		c-3.52,0-6.71-0.6-9.58-1.79c-2.87-1.19-5.16-3.09-6.87-5.71c-1.71-2.61-2.57-6.03-2.57-10.24v-41.54h-9.44V98.82h9.44v-23.6h18.74
		v23.6h15.27v14.16h-15.27v35.21c0.09,2.47,0.79,4.27,2.08,5.41c1.29,1.14,2.96,1.71,5,1.71c1.85,0,3.7-0.35,5.55-1.04
		c1.85-0.69,3.38-1.32,4.58-1.88L690.86,167.26z"/>
</g>
<g>
	<rect x="79.23" y="87.69" class="st2" width="30.28" height="33.24"/>
	<path class="st2" d="M107.54,89.91H81.2c-1.9,0-3.45-1.54-3.45-3.45V80.8c0-1.9,1.54-3.45,3.45-3.45h26.34
		c1.9,0,3.45,1.54,3.45,3.45v5.66C110.99,88.36,109.44,89.91,107.54,89.91z"/>
	<g>
		<circle class="st1" cx="78.34" cy="49.62" r="8.5"/>
		<path class="st0" d="M76,51c1.1,2.81,5.1,4.18,3,5s-5.46-0.82-6.56-3.63S71.9,45.82,74,45S74.9,48.19,76,51z"/>
	</g>
	<g>
		<circle class="st1" cx="94.45" cy="63.94" r="6.71"/>
		<path class="st0" d="M92.15,65.3c0.86,2.19,3.84,3.31,2.3,3.92c-1.54,0.6-4.05-0.72-4.91-2.91c-0.86-2.19-0.5-5.08,1.04-5.68
			C92.12,60.02,91.29,63.1,92.15,65.3z"/>
	</g>
	<g>
		<defs>
			<path id="SVGID_1_" d="M144.38,186.47l-12.14-28.49c6.36-15.05,3.42-33.1-8.84-45.37c-16.15-16.15-42.34-16.15-58.49,0
				C52.73,124.79,49.82,143.02,56,158l-12.38,28.47c-0.84,1.97-0.83,4.22,0.03,6.17c0.85,1.96,2.5,3.5,4.51,4.22l43.2,15.55
				c0.85,0.31,1.75,0.46,2.64,0.46s1.79-0.15,2.64-0.46l43.2-15.55c2.01-0.72,3.65-2.26,4.51-4.22
				C145.21,190.69,145.22,188.44,144.38,186.47z"/>
		</defs>
		<clipPath id="SVGID_2_">
			<use xlink:href="#SVGID_1_"  style="overflow:visible;"/>
		</clipPath>
		<g class="st3">
			<g class="st4">
				<path class="st1" d="M125.13,159.72H94H62.87l-15.14,35.51c-0.75,1.76,0.13,3.78,1.93,4.43l43.2,15.55
					c0.73,0.26,1.52,0.26,2.25,0l43.2-15.55c1.8-0.65,2.68-2.67,1.93-4.43L125.13,159.72z"/>
			</g>
			<g>
				<g>
					<path class="st1" d="M125.13,152.72H94H62.87l-15.14,35.51c-0.75,1.76,0.13,3.78,1.93,4.43l43.2,15.55
						c0.73,0.26,1.52,0.26,2.25,0l43.2-15.55c1.8-0.65,2.68-2.67,1.93-4.43L125.13,152.72z"/>
				</g>
			</g>
		</g>
		<g class="st3">
			<g>
				<circle class="st5" cx="94.37" cy="148.61" r="42.39"/>
			</g>
			<g>
				<circle class="st2" cx="94.37" cy="141.61" r="42.39"/>
			</g>
		</g>
		<g class="st3">
			<g>
				<rect x="95.53" y="185.97" class="st5" width="8.95" height="38.11"/>
			</g>
			<g>
				<rect x="89.53" y="169.97" class="st2" width="8.95" height="38.11"/>
			</g>
		</g>
		<g class="st3">
			<g>
				
					<rect x="117.58" y="177.63" transform="matrix(0.9624 -0.2715 0.2715 0.9624 -47.7006 40.3647)" class="st5" width="8.95" height="29.93"/>
			</g>
			<g>
				
					<rect x="110.58" y="167.63" transform="matrix(0.9624 -0.2715 0.2715 0.9624 -45.2488 38.089)" class="st2" width="8.95" height="29.93"/>
			</g>
		</g>
		<g class="st3">
			<g>
				<polygon class="st5" points="74.19,215.41 65.58,212.99 73.71,184.41 82.32,186.83 				"/>
			</g>
			<g>
				<polygon class="st2" points="73.19,201.41 64.58,198.99 72.71,170.41 81.32,172.83 				"/>
			</g>
		</g>
		<circle class="st6" cx="94.37" cy="141.61" r="10.34"/>
		<g class="st3">
			<g>
				<path class="st5" d="M147.38,192.47l-12.09-28.36c-1.45,3.33-3.34,6.5-5.71,9.43l9.09,21.32l-41.67,15l-41.67-15l9.35-21.93
					c-2.34-3.01-4.21-6.27-5.6-9.67l-12.45,29.22c-0.84,1.97-0.83,4.22,0.03,6.17c0.85,1.96,2.5,3.5,4.51,4.22l43.2,15.55
					c0.85,0.31,1.75,0.46,2.64,0.46s1.79-0.15,2.64-0.46l43.2-15.55c2.01-0.72,3.65-2.26,4.51-4.22
					C148.21,196.69,148.22,194.44,147.38,192.47z"/>
			</g>
			<g>
				<path class="st2" d="M144.38,186.47l-12.09-28.36c-1.45,3.33-3.34,6.5-5.71,9.43l9.09,21.32l-41.67,15l-41.67-15l9.35-21.93
					c-2.34-3.01-4.21-6.27-5.6-9.67l-12.45,29.22c-0.84,1.97-0.83,4.22,0.03,6.17c0.85,1.96,2.5,3.5,4.51,4.22l43.2,15.55
					c0.85,0.31,1.75,0.46,2.64,0.46s1.79-0.15,2.64-0.46l43.2-15.55c2.01-0.72,3.65-2.26,4.51-4.22
					C145.21,190.69,145.22,188.44,144.38,186.47z"/>
			</g>
		</g>
	</g>
</g>
</svg>
