<?xml version="1.0" encoding="UTF-8"?>
<svg width="215px" height="60px" viewBox="0 0 215 60" version="1.1" xmlns="http://www.w3.org/2000/svg" xmlns:xlink="http://www.w3.org/1999/xlink">
    <title>logokit</title>
    <g id="Symbols" stroke="none" stroke-width="1" fill="none" fill-rule="evenodd">
        <g id="logokit">
            <g id="logokit" transform="translate(33.000000, 10.000000)">
                <rect id="Rectangle" fill="#005666" x="45.488806" y="0" width="54" height="40" rx="1"></rect>
                <g id="Locokit" transform="translate(0.488806, 5.000000)" fill-rule="nonzero">
                    <path d="M18.8380638,30.4770944 L18.8380638,27.5877076 L8.26742672,27.5877076 C6.67739902,27.5877076 5.59152644,27.2710624 4.97102782,26.6377722 C4.00149874,25.6086755 3.49734361,24.5795788 3.49734361,23.5109014 L3.49734361,0 L0.51119403,0 L0.51119403,22.9567724 C0.51119403,27.8251914 3.73003059,30.4770944 8.26742672,30.4770944 L18.8380638,30.4770944 Z M39.0208893,27.6272882 C41.3477591,25.2524497 42.511194,22.4422241 42.511194,19.1966114 C42.511194,16.0301601 41.4253215,13.2990958 39.2923575,11.0034185 C37.1593935,8.66816063 34.5222744,7.48074136 31.4585625,7.36199944 C28.278507,7.24325751 25.5250444,8.39109613 23.2369558,10.7659347 C20.9488672,13.1011925 19.7854323,15.9509988 19.7854323,19.2361921 C19.7854323,22.4026434 20.8325237,25.1337078 22.9654877,27.429385 C25.0984516,29.7250622 27.7355708,30.9124815 30.7992827,30.9916428 C33.9793381,31.1103847 36.7328007,29.9625461 39.0208893,27.6272882 Z M30.8380638,28.0230946 C28.5499752,27.9439333 26.6496982,27.0335786 25.0596705,25.2524497 C23.4696428,23.4713208 22.7328007,21.3735467 22.7715818,18.9987082 C22.810363,16.5842891 23.6247674,14.5656763 25.2923575,12.8637087 C26.9599475,11.1617411 28.9377868,10.290967 31.3034378,10.3305476 C33.5527453,10.3305476 35.4530223,11.1617411 37.04305,12.8637087 C38.6330777,14.5656763 39.4862633,16.5842891 39.5638256,18.9591276 C39.6026068,21.452708 38.7882023,23.5900627 37.04305,25.4503529 C35.3366788,27.3106431 33.2812771,28.1418366 30.8380638,28.0230946 Z" id="Lo" fill="#005666"></path>
                    <path d="M59.3075081,30.9915437 C64.1416669,31.0315935 67.738281,28.8689092 70.0586772,24.4233914 L70.3680634,23.7425464 L67.0421621,23.7425464 C65.3405382,26.546026 62.7881024,27.9878156 59.3461814,28.0278653 C56.9484386,28.067915 54.860082,27.1868214 53.1197849,25.4246342 C51.3794877,23.6223972 50.4900025,21.4997627 50.4900025,19.0166807 C50.4900025,16.5335987 51.418161,14.3709144 53.3131512,12.5686775 C55.1307949,10.8064903 57.141805,9.9654464 59.4235279,10.0054961 C62.8267757,10.0855955 65.3405382,11.6074845 67.0034889,14.5311133 L70.3293901,14.5311133 L69.9039841,13.5298705 C69.0918455,11.6475342 67.6996077,10.1256452 65.8046175,8.88410425 C63.7936074,7.60251356 61.6279043,6.96171821 59.3075081,7.00176792 C56.0589534,7.04181763 53.2744779,8.28335861 50.9154085,10.6462915 C48.5950122,13.0092243 47.4734874,15.8127039 47.5121607,19.1368298 C47.550834,22.420906 48.7110321,25.2243856 51.0314283,27.507219 C53.3518245,29.7900525 56.0976267,30.951494 59.3075081,30.9915437 Z M93.0305997,27.5873185 C95.3509959,25.1843359 96.511194,22.3408066 96.511194,19.0567304 C96.511194,15.8527537 95.4283425,13.0893237 93.3013126,10.7664406 C91.1742827,8.40350774 88.5445004,7.20201647 85.489312,7.08186734 C82.3181039,6.96171821 79.5723017,8.12315978 77.2905787,10.5261423 C75.0088558,12.8890752 73.8486577,15.7726542 73.8486577,19.0967801 C73.8486577,22.3007568 74.892836,25.0641868 77.0198658,27.3870699 C79.1468957,29.7099531 81.7766781,30.9114443 84.8318664,30.9915437 C88.0030746,31.1116929 90.7488768,29.9502513 93.0305997,27.5873185 Z M84.8705397,27.9878156 C82.5888168,27.9077161 80.6938265,26.9865728 79.1082224,25.1843359 C77.5226184,23.382099 76.7878262,21.2594644 76.8264995,18.8564819 C76.8651728,16.4134496 77.6773114,14.3709144 79.3402621,12.6487769 C81.0032127,10.9266394 82.9755495,10.0455458 85.3346189,10.0855955 C87.5776686,10.0855955 89.4726589,10.9266394 91.0582629,12.6487769 C92.643867,14.3709144 93.494679,16.4134496 93.5720255,18.8164321 C93.6106988,21.3395638 92.7985601,23.5022481 91.0582629,25.3845845 C89.356639,27.2669208 87.3069557,28.1079647 84.8705397,27.9878156 Z" id="co" fill="#FFFFFF"></path>
                    <path d="M104.694034,30.5249042 L104.694034,26.2094508 L108.226209,21.6564496 L115.407006,30.5249042 L119.249703,30.5249042 L110.089335,19.3205619 L118.512215,7.95785441 L114.824779,7.95785441 L104.577588,21.4980843 L104.577588,0 L101.511194,0 L101.511194,30.5249042 L104.694034,30.5249042 Z M126.236424,5.26564496 L126.236424,0 L123.32529,0 L123.32529,5.26564496 L126.236424,5.26564496 Z M126.236424,30.5249042 L126.236424,7.95785441 L123.32529,7.95785441 L123.32529,30.5249042 L126.236424,30.5249042 Z M139.511194,31 L139.511194,28.5057471 C136.134279,28.5057471 134.426414,26.8429119 134.426414,23.4776501 L134.426414,10.7292465 L139.511194,10.7292465 L139.511194,7.91826309 L134.426414,7.91826309 L134.426414,0.0395913155 L131.43765,0.0395913155 L131.43765,23.9923372 C131.43765,28.6641124 134.115893,31 139.511194,31 Z" id="kit" fill="#005666"></path>
                </g>
                <polygon id="l" fill="#005666" fill-rule="nonzero" points="9.95719844 34.48 9.95719844 5 7 5 7 34.48"></polygon>
                <polyline id="Line" fill="#FFFFFF" points="28.488806 28.25 47.4258151 28.25 82.488806 28.25"></polyline>
                <g id="Group" transform="translate(32.488806, 22.000000)">
                    <rect id="Rectangle-Copy" fill="#FFFFFF" x="30.511194" y="0" width="28" height="3" rx="1.5"></rect>
                    <rect id="Rectangle" fill="#FFFFFF" x="0.51119403" y="6" width="53" height="3" rx="1.5"></rect>
                    <path d="M2.01119403,6 L13.511194,6 L13.511194,6 L13.511194,9 L2.01119403,9 C1.18276691,9 0.51119403,8.32842712 0.51119403,7.5 C0.51119403,6.67157288 1.18276691,6 2.01119403,6 Z" id="Rectangle" fill="#005666"></path>
                </g>
            </g>
        </g>
    </g>
</svg>
