<svg xmlns="http://www.w3.org/2000/svg" xmlns:xlink="http://www.w3.org/1999/xlink" viewBox="0 0 743 254"><defs><clipPath id="a"><path d="M144.38,186.47,132.23,158A41.36,41.36,0,0,0,64.9,112.61,41.93,41.93,0,0,0,56,158L43.62,186.47a7.81,7.81,0,0,0,4.53,10.4l43.21,15.55a7.81,7.81,0,0,0,5.28,0l43.21-15.55a7.81,7.81,0,0,0,4.53-10.4Z" style="fill:none"/></clipPath></defs><title>logo-dark</title><g style="isolation:isolate"><path d="M188.6,180.87V82.3h12.49v87.46h55v11.11Z" style="fill:#fff"/><path d="M298.41,182.26a36.07,36.07,0,0,1-14.85-3A35.15,35.15,0,0,1,272,171.16a36.42,36.42,0,0,1-7.49-11.92,38.61,38.61,0,0,1-2.64-14.19,39,39,0,0,1,2.64-14.33A36.63,36.63,0,0,1,272,118.8a35.32,35.32,0,0,1,11.6-8.13,36.38,36.38,0,0,1,48.79,20,39,39,0,0,1,2.64,14.33,38.61,38.61,0,0,1-2.64,14.19,36.76,36.76,0,0,1-7.49,11.92,35.13,35.13,0,0,1-11.6,8.13A36.57,36.57,0,0,1,298.41,182.26Zm-24-37.07a27.84,27.84,0,0,0,3.27,13.46,25.51,25.51,0,0,0,8.67,9.55,22.47,22.47,0,0,0,24.23-.07,25.83,25.83,0,0,0,8.74-9.68,28.26,28.26,0,0,0,3.27-13.54,27.84,27.84,0,0,0-3.27-13.46,26,26,0,0,0-8.74-9.62,21.82,21.82,0,0,0-12.15-3.57,21.16,21.16,0,0,0-12.08,3.64,26.7,26.7,0,0,0-8.67,9.68A28.18,28.18,0,0,0,274.39,145.19Z" style="fill:#fff"/><path d="M382,182.26a36.57,36.57,0,0,1-14.92-3,35.14,35.14,0,0,1-11.66-8.2,39.2,39.2,0,0,1-5.76-44.92,35,35,0,0,1,12.91-13.43,36.5,36.5,0,0,1,19.29-5,35.51,35.51,0,0,1,18.67,4.79,29.84,29.84,0,0,1,11.87,12.84l-11.93,3.75a20,20,0,0,0-7.78-8,22.09,22.09,0,0,0-11.1-2.84,22.4,22.4,0,0,0-12.15,3.43,24.44,24.44,0,0,0-8.68,9.42,30.58,30.58,0,0,0,.07,27.34,25.85,25.85,0,0,0,8.75,9.68,21.78,21.78,0,0,0,12.14,3.58,22.67,22.67,0,0,0,8.26-1.53,23.55,23.55,0,0,0,7-4.1,13.65,13.65,0,0,0,4.09-5.62l11.94,3.61a26.48,26.48,0,0,1-6.73,9.37,33.76,33.76,0,0,1-10.69,6.46A37.72,37.72,0,0,1,382,182.26Z" style="fill:#fff"/><path d="M457.78,182.26a36.15,36.15,0,0,1-14.86-3,35.21,35.21,0,0,1-11.52-8.13,36.42,36.42,0,0,1-7.49-11.92,38.61,38.61,0,0,1-2.64-14.19,39,39,0,0,1,2.64-14.33,36.63,36.63,0,0,1,7.49-11.92A35.28,35.28,0,0,1,443,110.67a36.41,36.41,0,0,1,48.8,20,39,39,0,0,1,2.64,14.33,38.61,38.61,0,0,1-2.64,14.19,36.62,36.62,0,0,1-7.5,11.92,35,35,0,0,1-11.59,8.13A36.57,36.57,0,0,1,457.78,182.26Zm-24-37.07A27.94,27.94,0,0,0,437,158.65a25.62,25.62,0,0,0,8.68,9.55,22.47,22.47,0,0,0,24.23-.07,25.83,25.83,0,0,0,8.74-9.68,28.37,28.37,0,0,0,3.26-13.54,27.94,27.94,0,0,0-3.26-13.46,26,26,0,0,0-8.74-9.62,21.82,21.82,0,0,0-12.15-3.57,21.16,21.16,0,0,0-12.08,3.64,26.81,26.81,0,0,0-8.68,9.68A28.28,28.28,0,0,0,433.76,145.19Z" style="fill:#fff"/><path d="M509.7,180.87V82.3h19.16v46.85l41.36-47h21.11l-37.76,43.93,40.12,54.78H572l-30.54-42.54L528.86,151.4v29.47Z" style="fill:#65b084"/><path d="M606.32,97.85V79.53h18.46V97.85Zm0,83V108.12h18.46v72.75Z" style="fill:#65b084"/><path d="M690.86,177.26q-2.5,1.11-5.76,2.29a49.22,49.22,0,0,1-7.08,1.94,39.22,39.22,0,0,1-7.71.77,24.78,24.78,0,0,1-9.58-1.79,14.9,14.9,0,0,1-6.87-5.71q-2.57-3.91-2.57-10.25V123h-9.44V108.82h9.44V85.22H670v23.6h15.27V123H670v35.21q.13,3.7,2.08,5.42a7.28,7.28,0,0,0,5,1.71,15.79,15.79,0,0,0,5.55-1c1.85-.7,3.38-1.32,4.58-1.88Z" style="fill:#65b084"/><rect x="79.23" y="87.69" width="30.28" height="33.24" style="fill:#fff"/><rect x="77.75" y="77.35" width="33.24" height="12.56" rx="3.45" style="fill:#fff"/><circle cx="78.34" cy="49.62" r="8.5" style="fill:#65b084"/><path d="M76,51c1.1,2.81,5.1,4.18,3,5s-5.46-.82-6.56-3.63S71.9,45.82,74,45,74.9,48.19,76,51Z" style="fill:#fff"/><circle cx="94.45" cy="63.94" r="6.71" style="fill:#65b084"/><path d="M92.15,65.3c.86,2.19,3.84,3.31,2.3,3.91s-4-.72-4.91-2.91-.5-5.08,1-5.68S91.29,63.1,92.15,65.3Z" style="fill:#fff"/><g style="clip-path:url(#a)"><g style="opacity:0.6;mix-blend-mode:multiply"><path d="M125.13,159.72H62.87L47.74,195.23a3.32,3.32,0,0,0,1.93,4.43l43.2,15.55a3.37,3.37,0,0,0,2.26,0l43.2-15.55a3.32,3.32,0,0,0,1.93-4.43Z" style="fill:#65b084"/></g><path d="M125.13,152.72H62.87L47.74,188.23a3.32,3.32,0,0,0,1.93,4.43l43.2,15.55a3.37,3.37,0,0,0,2.26,0l43.2-15.55a3.32,3.32,0,0,0,1.93-4.43Z" style="fill:#65b084"/><circle cx="94.37" cy="148.61" r="42.39" style="fill:#358756"/><circle cx="94.37" cy="141.61" r="42.39" style="fill:#fff"/><rect x="95.53" y="185.97" width="8.95" height="38.11" style="fill:#358756"/><rect x="89.53" y="169.97" width="8.95" height="38.11" style="fill:#fff"/><rect x="117.58" y="177.63" width="8.95" height="29.93" transform="translate(-47.7 40.36) rotate(-15.75)" style="fill:#358756"/><rect x="110.58" y="167.63" width="8.95" height="29.93" transform="translate(-45.25 38.09) rotate(-15.75)" style="fill:#fff"/><polygon points="74.19 215.41 65.58 213 73.71 184.41 82.32 186.82 74.19 215.41" style="fill:#358756"/><polygon points="73.19 201.41 64.58 199 72.71 170.41 81.32 172.82 73.19 201.41" style="fill:#fff"/><circle cx="94.37" cy="141.61" r="10.34" style="fill:#29264f"/><path d="M147.38,192.47l-12.09-28.36a40.72,40.72,0,0,1-5.71,9.43l9.09,21.32L97,209.86l-41.67-15,9.35-21.93a41.34,41.34,0,0,1-5.61-9.68L46.62,192.47a7.81,7.81,0,0,0,4.53,10.4l43.21,15.55a7.81,7.81,0,0,0,5.28,0l43.21-15.55a7.81,7.81,0,0,0,4.53-10.4Z" style="fill:#358756"/><path d="M144.38,186.47l-12.09-28.36a40.72,40.72,0,0,1-5.71,9.43l9.09,21.32L94,203.86l-41.67-15,9.35-21.93a41.34,41.34,0,0,1-5.61-9.68L43.62,186.47a7.81,7.81,0,0,0,4.53,10.4l43.21,15.55a7.81,7.81,0,0,0,5.28,0l43.21-15.55a7.81,7.81,0,0,0,4.53-10.4Z" style="fill:#fff"/></g></g></svg>