<svg width="658.854" height="502.508" xmlns="http://www.w3.org/2000/svg">
    <defs>
        <clipPath clipPathUnits="userSpaceOnUse" id="b">
            <path d="M0 500h500V0H0Z"/>
        </clipPath>
        <clipPath clipPathUnits="userSpaceOnUse" id="c">
            <path d="M186.11 318.334h279.847V106.445H186.11Z"/>
        </clipPath>
        <clipPath clipPathUnits="userSpaceOnUse" id="d">
            <path d="M167.804 256.129h27.813v-60.395h-27.813z"/>
        </clipPath>
        <clipPath clipPathUnits="userSpaceOnUse" id="e">
            <path d="M197.202 177.253h146.863v-7.248H197.202Z"/>
        </clipPath>
        <clipPath clipPathUnits="userSpaceOnUse" id="f">
            <path d="M201.295 164.334h140.239v-14.936H201.295Z"/>
        </clipPath>
        <clipPath clipPathUnits="userSpaceOnUse" id="h">
            <path d="M341.534 164.334H201.295v-14.936h140.239z"/>
        </clipPath>
        <clipPath clipPathUnits="userSpaceOnUse" id="j">
            <path d="M352.934 117.162h46.776v-7.435h-46.776z"/>
        </clipPath>
        <clipPath clipPathUnits="userSpaceOnUse" id="k">
            <path d="M373.015 162.074h24.85v-47.899h-24.85z"/>
        </clipPath>
        <linearGradient x1="0" y1="0" x2="1" y2="0" gradientUnits="userSpaceOnUse" gradientTransform="matrix(0 24.05441 24.05441 0 271.414 138.657)" spreadMethod="pad" id="a">
            <stop style="stop-opacity:1;stop-color:#fff" offset="0"/>
            <stop style="stop-opacity:0;stop-color:#fff" offset=".649"/>
            <stop style="stop-opacity:0;stop-color:#fff" offset="1"/>
        </linearGradient>
        <linearGradient x1="0" y1="0" x2="1" y2="0" gradientUnits="userSpaceOnUse" gradientTransform="matrix(0 24.05441 24.05441 0 271.414 138.657)" spreadMethod="pad" id="i">
            <stop style="stop-opacity:1;stop-color:#fff" offset="0"/>
            <stop style="stop-opacity:1;stop-color:#fff" offset=".649"/>
            <stop style="stop-opacity:1;stop-color:#fff" offset="1"/>
        </linearGradient>
        <mask maskUnits="userSpaceOnUse" x="0" y="0" width="1" height="1" id="g">
            <path d="M-32768 32767h65535v-65535h-65535Z" style="fill:url(#a);stroke:none"/>
        </mask>
    </defs>
    <g clip-path="url(#b)" style="display:inline" transform="matrix(1.33333 0 0 -1.33333 0 644.51)">
        <path d="M0 0c6.95 0 12.624 5.573 12.73 12.524.533 34.645 3.324 85.747-61.921 99.879-52.799 11.437-21.495 105.268-163.689 99.206-102.073-4.352-74.955-90.387-154.32-97.552-52.81-4.768-53.266-71.559-51.237-102.162C-417.993 5.2-412.44 0-405.731 0Z" style="fill:#b5dfea;fill-opacity:1;fill-rule:nonzero;stroke:none" transform="translate(453.059 106.444)"/>
        <g clip-path="url(#c)" opacity=".55">
            <path d="M0 0c-52.799 11.437-21.494 105.268-163.688 99.206-24.277-1.036-41.237-6.697-54.069-14.813 4.322.565 8.911.965 13.8 1.173C-61.762 91.629-93.066-2.202-40.268-13.639c64.55-13.982 62.506-64.147 61.941-98.764h27.518c6.951 0 12.624 5.573 12.731 12.524C62.454-65.234 65.245-14.133 0 0" style="fill:#90cedd;fill-opacity:1;fill-rule:nonzero;stroke:none" transform="translate(403.867 218.848)"/>
        </g>
        <path d="m-4.26-112.649-175.43-19.797c.22.73-2.894 8.131-2.894 8.131l-11.25 96.226c-.833 7.134 4.276 13.593 11.411 14.426L-15.477 5.824c7.135.832 13.594-4.277 14.426-11.41l11.48-96.11s-14.215-2.947-14.61-3.137" style="fill:#d7f0f9;fill-opacity:1;fill-rule:nonzero;stroke:none" transform="matrix(1 0 0 -1 340.774 195.286)"/>
        <path d="m.249-.106.984 10.673c.833 7.134-4.276 13.594-11.41 14.426l-166.947 19.486c-7.135.833-13.593-4.276-14.426-11.41l-.472-4.046-.762-6.521Z" style="display:inline;fill:#214478;fill-opacity:1;fill-rule:nonzero;stroke:none" transform="translate(350.951 297.06)"/>
        <g style="fill:#214478">
            <path d="m0 0 2.73 23.39c.019.162-.199.233-.279.091L-10.053 1.418a.627.627 0 0 1 .472-.93L-.694-.549A.626.626 0 0 1 0 0m-19.407 2.789L1.756 40.075a6.836 6.836 0 0 0 12.735-4.167L10.089-1.808l.188-.022a4.736 4.736 0 1 0-1.098-9.41l-.188.023-.802-6.869A5.116 5.116 0 0 0-1.973-16.9l.802 6.869-15.235 1.778a4.745 4.745 0 0 0-4.163 5.263l.404 3.461c.095.816.353 1.604.758 2.318" style="fill:#214478;fill-opacity:1;fill-rule:nonzero;stroke:none" transform="translate(204.584 252.132)"/>
        </g>
        <g style="fill:#214478">
            <path d="m0 0 2.729 23.39c.02.162-.198.234-.279.091L-10.053 1.419a.627.627 0 0 1 .472-.931L-.694-.549A.627.627 0 0 1 0 0m-19.407 2.789L1.755 40.076a6.837 6.837 0 0 0 12.736-4.167L10.089-1.808l.188-.021a4.738 4.738 0 0 0-1.098-9.41l-.189.022-.802-6.869a5.113 5.113 0 0 0-5.673-4.487 5.114 5.114 0 0 0-4.488 5.674l.802 6.869-15.235 1.777a4.745 4.745 0 0 0-4.163 5.264l.404 3.461c.095.815.353 1.603.758 2.317" style="fill:#214478;fill-opacity:1;fill-rule:nonzero;stroke:none" transform="translate(297.981 241.23)"/>
        </g>
        <g style="fill:#214478">
            <path d="M0 0c-.549-4.705 1.312-6.733 4.605-7.118 3.294-.385 5.572 1.161 6.122 5.866l4.151 35.567c.549 4.705-1.312 6.734-4.605 7.119-3.294.384-5.572-1.162-6.122-5.867zm-6.275 36.117c1.23 10.538 7.483 15.912 17.646 14.726 10.162-1.186 15.01-7.856 13.781-18.395L21.154-1.801C19.923-12.34 13.669-17.714 3.507-16.528c-10.162 1.186-15.01 7.856-13.78 18.395z" style="fill:#214478;fill-opacity:1;fill-rule:nonzero;stroke:none" transform="translate(242.864 240.74)"/>
        </g>
        <path d="M0 0a3.496 3.496 0 1 0-6.944.81A3.496 3.496 0 0 0 0 0" style="fill:#fff;fill-opacity:1;fill-rule:nonzero;stroke:none" transform="translate(177.848 326.788)"/>
        <path d="M0 0a3.496 3.496 0 1 0-6.945.811A3.496 3.496 0 0 0 0 0" style="fill:#79c9e8;fill-opacity:1;fill-rule:nonzero;stroke:none" transform="translate(194.594 324.833)"/>
        <path d="M0 0a3.495 3.495 0 1 0-6.943.81A3.495 3.495 0 0 0 0 0" style="fill:#ffbf4d;fill-opacity:1;fill-rule:nonzero;stroke:none" transform="translate(211.953 322.807)"/>
        <path d="M0 0s-2.255-9.997-1.879-20.221c.336-9.151-.752-69.309-.752-69.309h7.348s10.46 47.116 10.851 50.837c.39 3.72 5.652 40.929 5.652 40.929z" style="fill:#00668e;fill-opacity:1;fill-rule:nonzero;stroke:none" transform="translate(144.793 201.208)"/>
        <path d="M0 0s1.691-12.854 4.567-21.987c2.875-9.133 17.007-70.287 17.007-70.287h7.348s-1.353 47.116-1.86 50.836c-.508 3.721-4.229 40.93-4.229 40.93z" style="fill:#0582c1;fill-opacity:1;fill-rule:nonzero;stroke:none" transform="translate(149.68 203.952)"/>
        <path d="M0 0v-5.128h13.988c.794 0 1.105 1.029.443 1.47C12.386-2.296 9.109-.419 6.063 0Z" style="fill:#0582c1;fill-opacity:1;fill-rule:nonzero;stroke:none" transform="translate(171.853 111.69)"/>
        <path d="M0 0v-5.128h13.988c.794 0 1.105 1.029.444 1.47C12.386-2.296 9.109-.419 6.063 0Z" style="fill:#0582c1;fill-opacity:1;fill-rule:nonzero;stroke:none" transform="translate(142.537 111.69)"/>
        <path d="M0 0s4.811 7.305-.713 8.018c-4.241.547-5.986-.716-5.986-.716s-4.883.538-7.555-1.779c-1.832-1.587-8.553-13.898 2.316-18.352C-1.069-17.283-3.386-5.88-3.386-5.88z" style="fill:#00668e;fill-opacity:1;fill-rule:nonzero;stroke:none" transform="translate(167.774 263.745)"/>
        <path d="M0 0c-4.241.547-5.986-.716-5.986-.716s-4.883.538-7.556-1.779c-1.831-1.587-8.552-13.898 2.317-18.352 5.109-2.094 7.304-.683 8.196 1.399-10.312-2.901-11.43 9.528-9.73 13.065 1.728 3.593 5.875 1.935 5.875 1.935C-5.263-.366.022-.809 2.201-1.126 1.804-.559 1.115-.144 0 0" style="fill:#05556d;fill-opacity:1;fill-rule:nonzero;stroke:none" transform="translate(167.061 271.763)"/>
        <path d="M0 0s-1.425 1.425-2.495 0c-1.068-1.426-.356-4.633 1.426-4.811 0 0-.535-4.633-4.098-4.455v-3.741h8.375v2.851s5.167 2.138 4.988 6.414C8.018.534 6.771 3.563 6.771 3.563S3.92.356 0 0" style="fill:#f98d3d;fill-opacity:1;fill-rule:nonzero;stroke:none" transform="translate(161.003 260.182)"/>
        <path d="M0 0c.829-.345.684-.868.721-1.652h1.205v2.85S-.104.553-3.076 2.247c0 0 1.73-1.686 3.076-2.247" style="fill:#ed701b;fill-opacity:1;fill-rule:nonzero;stroke:none" transform="translate(162.285 248.827)"/>
        <path d="M0 0s-4.341 1.729-4.848.432c-.332-.849.512-1.58 1.671-2.319l-1.022-.168c-.227-.037-.309-.327-.13-.472.285-.23 1.072-.385 2.713-.442z" style="fill:#f98d3d;fill-opacity:1;fill-rule:nonzero;stroke:none" transform="translate(163.999 267.001)"/>
        <path d="m0 0-1.473 3.218-4.691 10.251 7.784 8.718L.221 3.056Zm50.655 49.669c-8.277 6.134-30.884 11.038-30.884 11.038l-1.862-3.394s20.523-7.954 19.168-9.139c-.796-.699-10.825-5.295-14.22-6.841a5.408 5.408 0 0 0-2.334-.479l-10.391.059s-7.496.892-13.394-5.884c-5.273-6.067-14.235-20.117-14.235-20.117L-2.401-7.29l1.672-2.452.015.029-.015-.206s.537-.059 1.487-.147c4.853-.45 20.406-1.679 28.638.066l.229.052-.391 36.421c13.144 10.405 19.418 18.439 21.664 20.965a1.52 1.52 0 0 1-.243 2.231" style="fill:#4b9c6d;fill-opacity:1;fill-rule:nonzero;stroke:none" transform="translate(144.34 206.46)"/>
        <path d="m0 0 1.473-3.218-.714-9.713-.015-.029-1.672 2.452z" style="fill:#efaa3a;fill-opacity:1;fill-rule:nonzero;stroke:none" transform="translate(142.867 209.678)"/>
        <g style="fill:#35556d;fill-opacity:1" clip-path="url(#d)" opacity=".29">
            <path d="M0 0c-1.398-1.016-1.044-10.023-1.39-15.655-.578-9.431-1.141-17.592-.725-22.854 2.13.141 4.113.371 5.788.727l.229.052-.391 36.42C16.656 9.096 22.93 17.129 25.176 19.655c.589.67.478 1.694-.243 2.232C24.933 21.887 14.542 10.56 0 0" style="fill:#35556d;fill-opacity:1;fill-rule:nonzero;stroke:none" transform="translate(170.063 234.242)"/>
        </g>
        <path d="M0 0c-.366 2.685-2.405 22.804-3.513 33.801l-5.28-.582s7.703-63.332 8.21-84.056H1.86S.507-3.721 0 0" style="fill:#00668e;fill-opacity:1;fill-rule:nonzero;stroke:none" transform="translate(176.74 162.515)"/>
        <path d="m0 0-1.592 2.855A10.727 10.727 0 0 1-.338 7.896c0 5.954-4.827 10.781-10.781 10.781-5.955 0-10.781-4.827-10.781-10.781 0-5.955 4.826-10.782 10.781-10.782 2.997 0 5.707 1.225 7.661 3.2z" style="fill:#214478;fill-opacity:1;fill-rule:nonzero;stroke:none" transform="translate(142.881 259.143)"/>
        <g style="fill:#214478">
            <path d="M0 0s-2.265 2.115-.745 10.139 5.376 15.73 3.485 24.434C.848 43.279-13.985 65.229-14.035 66.688c-.05 1.459-4.576-25.535 3.095-36.168 7.67-10.634 8.593-14.324 8.253-19.916-.341-5.592.079-10.095.92-11.395z" style="fill:#214478;fill-opacity:1;fill-rule:nonzero;stroke:none" transform="translate(101.545 129.506)"/>
        </g>
        <g style="fill:#162d50">
            <path d="M0 0c-.892-3.58-1.43-12.555-.005-14.703.133-.201.324-.087.562.284C.123-12.936-.162-10.335.659-6c1.52 8.024 5.376 15.73 3.485 24.435C2.252 27.141-12.582 49.09-12.631 50.55c0 0 2.235-18.288 9.763-30.875C2.521 10.663.892 3.579 0 0" style="fill:#162d50;fill-opacity:1;fill-rule:nonzero;stroke:none" transform="translate(100.141 145.644)"/>
        </g>
        <g style="fill:#214478">
            <path d="M0 0s-4.357 10.88 3.028 20.301c7.385 9.42 19.196 21.515 19.431 26.307 0 0 3.036-22.751-6.577-29.191C6.269 10.978-.473 9.95 1.194.041Z" style="fill:#214478;fill-opacity:1;fill-rule:nonzero;stroke:none" transform="translate(104.25 130.063)"/>
        </g>
        <g style="fill:#162d50">
            <path d="M0 0c-10.719-7.802-11.595-16.789-9.932-20.957.13-.324.374-.522.698-.628-1.437 9.564 5.249 10.652 14.74 17.011 9.613 6.44 6.578 29.191 6.578 29.191S10.719 7.802 0 0" style="fill:#162d50;fill-opacity:1;fill-rule:nonzero;stroke:none" transform="translate(114.626 152.054)"/>
        </g>
        <g style="fill:#214478">
            <path d="M0 0s1.398 5.761.654 11.98c-.743 6.22-7.241 9.719-13.311 16.289-3.124 3.379-4.048 21.254-2.111 22.915 0 0-10.718-12.989-9.065-22.499C-22.18 19.174-4.695 12.994-3.077 8.398-1.458 3.804-1.592-.055-1.592-.055z" style="fill:#214478;fill-opacity:1;fill-rule:nonzero;stroke:none" transform="translate(97.083 129.818)"/>
        </g>
        <g style="fill:#162d50">
            <path d="M0 0c-3.542-9.593.089-21.211 11.856-28.427 8.664-5.313 5.905-16.36 5.905-16.36l1.415 4.358c.125 1.885.139 4.079-.131 6.338-.744 6.22-7.241 9.719-13.312 16.288C2.721-14.543 1.755 2.195 3.428 4.87A57.441 57.441 0 0 1 0 0" style="fill:#162d50;fill-opacity:1;fill-rule:nonzero;stroke:none" transform="translate(78.692 175.89)"/>
        </g>
        <path d="M0 0a25 25 0 0 0 .195.242A1.034 1.034 0 0 1 0 0" style="fill:#49b4d6;fill-opacity:1;fill-rule:nonzero;stroke:none" transform="translate(82.12 180.76)"/>
        <g style="fill:#214478">
            <path d="M0 0s2.512 9.32 8.725 10.575c6.213 1.255 13.347 10.436 13.733 12.237C22.458 22.812 21.41 5.497 0 0" style="fill:#214478;fill-opacity:1;fill-rule:nonzero;stroke:none" transform="translate(106.493 130.538)"/>
        </g>
        <g style="fill:#162d50">
            <path d="M0 0c-3.807-1.903-5.39-4.464-5.952-6.788 19.062 6.13 20.04 22.105 20.04 22.105-.076-.356-.424-1.006-.969-1.821C11.25 10.221 6.724 3.362 0 0" style="fill:#162d50;fill-opacity:1;fill-rule:nonzero;stroke:none" transform="translate(114.863 138.032)"/>
        </g>
        <path d="M0 0h-32.495l3.859-24.27a3.792 3.792 0 0 1 3.744-3.196h17.289a3.791 3.791 0 0 1 3.744 3.196z" style="fill:#ffbf4d;fill-opacity:1;fill-rule:nonzero;stroke:none" transform="translate(119.937 133.97)"/>
        <path d="m0 0 .638 4.015h-32.494L-31.218 0Z" style="fill:#ff9f50;fill-opacity:1;fill-rule:nonzero;stroke:none" transform="translate(119.299 129.955)"/>
        <path d="m0 0-3.859-24.27a3.792 3.792 0 0 0-3.744-3.196H.27a3.791 3.791 0 0 1 3.743 3.196L7.872 0Z" style="fill:#ff9f50;fill-opacity:1;fill-rule:nonzero;stroke:none" transform="translate(112.065 133.97)"/>
        <path d="M344.065 147.393H197.202v29.86h146.863z" style="fill:#ffbf4d;fill-opacity:1;fill-rule:nonzero;stroke:none"/>
        <g clip-path="url(#e)" opacity=".29">
            <path d="M344.065 170.005H197.202v7.248h146.863z" style="fill:#f98d2b;fill-opacity:1;fill-rule:nonzero;stroke:none"/>
        </g>
        <path d="M0 0h13.404L9.812-7.251H-3.6Z" style="fill:#f77e2d;fill-opacity:1;fill-rule:nonzero;stroke:none" transform="translate(209.972 177.253)"/>
        <path d="M0 0h13.404L9.812-7.251H-3.593Z" style="fill:#f77e2d;fill-opacity:1;fill-rule:nonzero;stroke:none" transform="translate(240.17 177.253)"/>
        <path d="M0 0h13.404L9.812-7.251H-3.593Z" style="fill:#f77e2d;fill-opacity:1;fill-rule:nonzero;stroke:none" transform="translate(270.37 177.253)"/>
        <path d="M0 0h13.397L9.805-7.251H-3.593Z" style="fill:#f77e2d;fill-opacity:1;fill-rule:nonzero;stroke:none" transform="translate(300.57 177.253)"/>
        <path d="M0 0v-.202l-3.499-7.049h-13.39L-13.296 0Z" style="fill:#f77e2d;fill-opacity:1;fill-rule:nonzero;stroke:none" transform="translate(344.065 177.253)"/>
        <path d="M225.837 147.39h-10.353v-40.828h10.353z" style="fill:#79c9e8;fill-opacity:1;fill-rule:nonzero;stroke:none"/>
        <path d="M225.837 147.39h-2.352v-40.828h2.352z" style="fill:#49b4d6;fill-opacity:1;fill-rule:nonzero;stroke:none"/>
        <path d="M326.588 147.39h-10.353v-40.828h10.353z" style="fill:#79c9e8;fill-opacity:1;fill-rule:nonzero;stroke:none"/>
        <path d="M326.588 147.39h-3.061v-40.828h3.061zm-100.751.032h-10.353v-5.142h10.353z" style="fill:#49b4d6;fill-opacity:1;fill-rule:nonzero;stroke:none"/>
        <path d="M326.588 147.422h-10.353v-5.142h10.353z" style="fill:#49b4d6;fill-opacity:1;fill-rule:nonzero;stroke:none"/>
        <path d="M225.837 177.282h-10.353v4.636h10.353z" style="fill:#79c9e8;fill-opacity:1;fill-rule:nonzero;stroke:none"/>
        <path d="M225.837 177.282h-2.352v4.636h2.352z" style="fill:#49b4d6;fill-opacity:1;fill-rule:nonzero;stroke:none"/>
        <path d="M326.588 177.282h-10.353v4.636h10.353z" style="fill:#79c9e8;fill-opacity:1;fill-rule:nonzero;stroke:none"/>
        <path d="M326.588 177.282h-3.061v4.636h3.061zm-100.751-.004h-10.353v.584h10.353z" style="fill:#49b4d6;fill-opacity:1;fill-rule:nonzero;stroke:none"/>
        <path d="M326.588 177.278h-10.353v.584h10.353z" style="fill:#49b4d6;fill-opacity:1;fill-rule:nonzero;stroke:none"/>
        <path d="m0 0-14.811-29.86h-11.363v4.119L-13.404 0Z" style="fill:#0582c1;fill-opacity:1;fill-rule:nonzero;stroke:none" transform="translate(223.376 177.253)"/>
        <path d="m0 0-14.811-29.86h13.404L13.404 0Z" style="fill:#0582c1;fill-opacity:1;fill-rule:nonzero;stroke:none" transform="translate(240.17 177.253)"/>
        <path d="m0 0-14.811-29.86h-13.404L-13.404 0Z" style="fill:#0582c1;fill-opacity:1;fill-rule:nonzero;stroke:none" transform="translate(283.774 177.253)"/>
        <path d="m0 0-14.804-29.86h-13.404L-13.397 0Z" style="fill:#0582c1;fill-opacity:1;fill-rule:nonzero;stroke:none" transform="translate(313.967 177.253)"/>
        <path d="m0 0-14.812-29.86h13.398L13.296-.202z" style="fill:#0582c1;fill-opacity:1;fill-rule:nonzero;stroke:none" transform="translate(330.77 177.253)"/>
        <path d="m0 0-3.593-7.251h-13.411l3.6 7.251Z" style="fill:#00668e;fill-opacity:1;fill-rule:nonzero;stroke:none" transform="translate(223.376 177.253)"/>
        <path d="m0 0-3.593-7.251h-13.404L-13.404 0Z" style="fill:#00668e;fill-opacity:1;fill-rule:nonzero;stroke:none" transform="translate(253.575 177.253)"/>
        <path d="m0 0-3.593-7.251h-13.404L-13.404 0Z" style="fill:#00668e;fill-opacity:1;fill-rule:nonzero;stroke:none" transform="translate(283.774 177.253)"/>
        <path d="m0 0-3.593-7.251H-16.99L-13.397 0Z" style="fill:#00668e;fill-opacity:1;fill-rule:nonzero;stroke:none" transform="translate(313.967 177.253)"/>
        <path d="m0 0-3.499-7.049h-13.39l3.593 7.251z" style="fill:#00668e;fill-opacity:1;fill-rule:nonzero;stroke:none" transform="translate(344.065 177.05)"/>
        <g clip-path="url(#f)" opacity=".55">
            <g mask="url(#g)" clip-path="url(#h)">
                <path d="M341.534 164.334H201.295v-14.936h140.239z" style="fill:url(#i);stroke:none"/>
            </g>
        </g>
        <path d="M0 0a9.23 9.23 0 0 1-9.231 9.23A9.23 9.23 0 0 1-18.461 0a9.23 9.23 0 0 1 9.23-9.231A9.23 9.23 0 0 1 0 0" style="fill:#ffbf4d;fill-opacity:1;fill-rule:nonzero;stroke:none" transform="translate(229.621 188.398)"/>
        <path d="M0 0a4.183 4.183 0 1 1-8.367-.001A4.183 4.183 0 0 1 0 0" style="fill:#0582c1;fill-opacity:1;fill-rule:nonzero;stroke:none" transform="translate(224.574 188.398)"/>
        <path d="M0 0a9.23 9.23 0 0 1-9.23 9.23A9.23 9.23 0 0 1-18.461 0 9.23 9.23 0 0 1-9.23-9.231 9.23 9.23 0 0 1 0 0" style="fill:#ffbf4d;fill-opacity:1;fill-rule:nonzero;stroke:none" transform="translate(330.581 188.398)"/>
        <path d="M0 0a4.183 4.183 0 1 1-8.367-.001A4.183 4.183 0 0 1 0 0" style="fill:#0582c1;fill-opacity:1;fill-rule:nonzero;stroke:none" transform="translate(325.534 188.398)"/>
        <path d="M0 0h-46.773l7.154 17.343v.011l2.878 6.997.793 1.919 1.292 3.122.263.635 2.878 6.998.529 1.273 5.099 12.381c.92 2.231 4.081 2.231 5.001 0l5.099-12.381.529-1.273 2.877-6.998.265-.635 1.292-3.122.792-1.919 2.878-6.997v-.011z" style="fill:#ffbf4d;fill-opacity:1;fill-rule:nonzero;stroke:none" transform="translate(399.705 109.726)"/>
        <g clip-path="url(#j)" opacity=".29">
            <path d="m0 0-3.064-7.436h46.776L40.647 0Z" style="fill:#f98d2b;fill-opacity:1;fill-rule:nonzero;stroke:none" transform="translate(355.998 117.162)"/>
        </g>
        <path d="M402.766 114.172h-53.571v-7.573h53.571z" style="fill:#79c9e8;fill-opacity:1;fill-rule:nonzero;stroke:none"/>
        <path d="M391.191 106.599h11.574v7.573h-11.574z" style="fill:#49b4d6;fill-opacity:1;fill-rule:nonzero;stroke:none"/>
        <g clip-path="url(#k)" opacity=".29">
            <path d="M0 0h-6.616l-5.315 12.89v.009l-2.878 6.998-.792 1.918-1.292 3.122-.264.637-2.877 6.998-.529 1.273-4.287 10.423.803 1.958c.92 2.231 4.081 2.231 5.001 0l5.099-12.381.529-1.273 2.877-6.998.265-.637 1.292-3.122.792-1.918 2.878-6.998v-.009Z" style="fill:#f98d2b;fill-opacity:1;fill-rule:nonzero;stroke:none" transform="translate(397.865 114.175)"/>
        </g>
        <path d="M0 0h-22.012l2.878 6.998h16.257z" style="fill:#0582c1;fill-opacity:1;fill-rule:nonzero;stroke:none" transform="translate(387.324 139.753)"/>
        <path d="M0 0v-.011h-32.465V0l2.878 6.997h26.709z" style="fill:#0582c1;fill-opacity:1;fill-rule:nonzero;stroke:none" transform="translate(392.55 127.08)"/>
        <path d="M0 0h-6.616l-2.877 6.998h6.616z" style="fill:#00668e;fill-opacity:1;fill-rule:nonzero;stroke:none" transform="translate(387.324 139.753)"/>
        <path d="M0 0v-.011h-6.616V0l-2.878 6.997h6.616z" style="fill:#00668e;fill-opacity:1;fill-rule:nonzero;stroke:none" transform="translate(392.55 127.08)"/>
        <path d="M0 0c3.495 0 6.533 2.538 7.005 6 .084.621.128 1.255.128 1.899 0 7.71-6.249 13.959-13.958 13.959-.317 0-.63-.014-.941-.035-.637 7.602-7.005 13.574-14.772 13.574-8.19 0-14.828-6.639-14.828-14.828 0-.363.017-.722.043-1.079a14.774 14.774 0 0 1-7.913 1.86c-7.449-.341-13.569-6.299-14.096-13.736l-.011-.177C-59.583 3.392-56.313 0-52.261 0Z" style="fill:#d7f0f9;fill-opacity:1;fill-rule:nonzero;stroke:none" transform="translate(101.558 279.792)"/>
        <path d="M0 0c11.038 0 11.649 16.612.624 17.147a18.422 18.422 0 0 1-6.55-.86c-1.475 8.991-9.278 15.853-18.687 15.853-9.616 0-17.553-7.168-18.774-16.451a17.388 17.388 0 0 1-7.537 1.707c-1.508 0-2.971-.191-4.366-.55C-64.942 14.36-62.916 0-52.95 0Z" style="fill:#d7f0f9;fill-opacity:1;fill-rule:nonzero;stroke:none" transform="translate(434.692 268.828)"/>
        <path d="M0 0c0 14.611-11.844 26.455-26.455 26.455-14.61 0-26.455-11.844-26.455-26.455 0-14.61 11.845-26.455 26.455-26.455C-11.844-26.455 0-14.61 0 0" style="fill:#ffbf4d;fill-opacity:1;fill-rule:nonzero;stroke:none" transform="translate(152.9 346.437)"/>
        <path d="M0 0c7.195-4.728 11.949-12.867 11.949-22.12 0-14.61-11.845-26.454-26.455-26.454-.073 0-.145.005-.218.005A26.323 26.323 0 0 1-.218-52.904c14.611 0 26.455 11.844 26.455 26.454C26.237-11.912 14.51-.118 0 0" style="fill:#ff9f50;fill-opacity:1;fill-rule:nonzero;stroke:none" transform="translate(126.664 372.887)"/>
    </g>
    <text xml:space="preserve" style="font-size:4px;fill:#fff;fill-opacity:1;stroke-width:.75" x="124.744" y="-266.798" transform="translate(0 644.51) scale(1.33333)"><tspan style="font-size:4px;fill:#fff;stroke-width:.75" x="124.744" y="-266.798">Oups...</tspan></text>
</svg>
