<?xml version="1.0" encoding="UTF-8" standalone="no"?>
<!-- Generator: Adobe Illustrator 24.0.2, SVG Export Plug-In . SVG Version: 6.00 Build 0)  -->

<svg
  xmlns:osb="http://www.openswatchbook.org/uri/2009/osb"
  xmlns:dc="http://purl.org/dc/elements/1.1/"
  xmlns:cc="http://creativecommons.org/ns#"
  xmlns:rdf="http://www.w3.org/1999/02/22-rdf-syntax-ns#"
  xmlns:svg="http://www.w3.org/2000/svg"
  xmlns="http://www.w3.org/2000/svg"
  xmlns:xlink="http://www.w3.org/1999/xlink"
  xmlns:sodipodi="http://sodipodi.sourceforge.net/DTD/sodipodi-0.dtd"
  xmlns:inkscape="http://www.inkscape.org/namespaces/inkscape"
  version="1.1"
  id="Calque_1"
  x="0px"
  y="0px"
  viewBox="0 0 200 200"
  xml:space="preserve"
  sodipodi:docname="favicon.svg"
  width="200"
  height="200"
  inkscape:version="0.92.5 (2060ec1f9f, 2020-04-08)"
  inkscape:export-filename="/home/mdartic/workspace/lck/locokit-github/front/public/themes/locokit/img/favicon.png"
  inkscape:export-xdpi="182"
  inkscape:export-ydpi="182"><metadata
   id="metadata115"><rdf:RDF><cc:Work
       rdf:about=""><dc:format>image/svg+xml</dc:format><dc:type
  rdf:resource="http://purl.org/dc/dcmitype/StillImage"/><dc:title></dc:title></cc:Work></rdf:RDF></metadata>
  <defs
    id="defs113"><linearGradient
     id="linearGradient879"
     osb:paint="solid"><stop
       style="stop-color:#000000;stop-opacity:1;"
       offset="0"
       id="stop877" /></linearGradient>
    <linearGradient
      inkscape:collect="always"
      xlink:href="#linearGradient879"
      id="linearGradient881"
      x1="43.007412"
      y1="145.11"
      x2="145.00259"
      y2="145.11"
      gradientUnits="userSpaceOnUse"/></defs>
  <sodipodi:namedview
    pagecolor="#ffffff"
    bordercolor="#666666"
    borderopacity="1"
    objecttolerance="10"
    gridtolerance="10"
    guidetolerance="10"
    inkscape:pageopacity="0"
    inkscape:pageshadow="2"
    inkscape:window-width="2560"
    inkscape:window-height="1386"
    id="namedview111"
    showgrid="false"
    inkscape:zoom="3.1291616"
    inkscape:cx="-22.379866"
    inkscape:cy="99.254609"
    inkscape:window-x="0"
    inkscape:window-y="29"
    inkscape:window-maximized="1"
    inkscape:current-layer="layer2"/>
  <style
    type="text/css"
    id="style2">
	.st0{fill:#FFFFFF;}
	.st1{fill:#65B084;}
	.st2{fill:#29264F;}
	.st3{clip-path:url(#SVGID_2_);}
	.st4{opacity:0.6;}
	.st5{fill:#358756;}
	.st6{clip-path:url(#SVGID_2_);fill:#FFFFFF;}
	.st7{clip-path:url(#SVGID_4_);}
	.st8{clip-path:url(#SVGID_4_);fill:#29264F;}
</style>


  <g
    inkscape:groupmode="layer"
    id="layer2"
    inkscape:label="Fond"><rect
     style="fill:#65b084;fill-opacity:1;stroke-width:5.30830812"
     id="rect883"
     width="160.07448"
     height="160.07448"
     x="17"
     y="17" /></g>
  <g
    inkscape:groupmode="layer"
    id="layer1"
    inkscape:label="Logo"><g
     id="g108"
     transform="translate(5.995,-45.11)"
     style="fill-opacity:1">
	<rect
    x="79.230003"
    y="87.690002"
    class="st2"
    width="30.280001"
    height="33.240002"
    id="rect20"
    style="fill-opacity:1"/>
	<path
    class="st2"
    d="M 107.54,89.91 H 81.2 c -1.9,0 -3.45,-1.54 -3.45,-3.45 V 80.8 c 0,-1.9 1.54,-3.45 3.45,-3.45 h 26.34 c 1.9,0 3.45,1.54 3.45,3.45 v 5.66 c 0,1.9 -1.55,3.45 -3.45,3.45 z"
    id="path22"
    inkscape:connector-curvature="0"
    style="fill-opacity:1"/>


	<g
    id="g106"
    style="fill-opacity:1">
		<defs
      id="defs37"
      style="fill-opacity:1;fill:url(#linearGradient881)">
			<path
        id="SVGID_1_"
        d="m 144.38,186.47 -12.14,-28.49 c 6.36,-15.05 3.42,-33.1 -8.84,-45.37 -16.15,-16.15 -42.34,-16.15 -58.49,0 C 52.73,124.79 49.82,143.02 56,158 l -12.38,28.47 c -0.84,1.97 -0.83,4.22 0.03,6.17 0.85,1.96 2.5,3.5 4.51,4.22 l 43.2,15.55 c 0.85,0.31 1.75,0.46 2.64,0.46 0.89,0 1.79,-0.15 2.64,-0.46 l 43.2,-15.55 c 2.01,-0.72 3.65,-2.26 4.51,-4.22 0.86,-1.95 0.87,-4.2 0.03,-6.17 z"
        inkscape:connector-curvature="0"
        style="fill-opacity:1;fill:url(#linearGradient881)"/>
		</defs>
    <clipPath
      id="SVGID_2_"
      style="fill-opacity:1;fill:url(#linearGradient881)">
			<use
        xlink:href="#SVGID_1_"
        style="overflow:visible;fill-opacity:1;fill:url(#linearGradient881)"
        id="use39"
        x="0"
        y="0"
        width="100%"
        height="100%"/>
		</clipPath>
    <g
      class="st3"
      clip-path="url(#SVGID_2_)"
      id="g52"
      style="fill-opacity:1">
			<g
        class="st4"
        id="g44"
        style="opacity:0.6;fill-opacity:1">
				<path
          class="st1"
          d="M 125.13,159.72 H 94 62.87 l -15.14,35.51 c -0.75,1.76 0.13,3.78 1.93,4.43 l 43.2,15.55 c 0.73,0.26 1.52,0.26 2.25,0 l 43.2,-15.55 c 1.8,-0.65 2.68,-2.67 1.93,-4.43 z"
          id="path42"
          inkscape:connector-curvature="0"
          style="fill-opacity:1"/>
			</g>
      <g
        id="g50"
        style="fill-opacity:1">
				<g
          id="g48"
          style="fill-opacity:1">
					<path
            class="st1"
            d="M 125.13,152.72 H 94 62.87 l -15.14,35.51 c -0.75,1.76 0.13,3.78 1.93,4.43 l 43.2,15.55 c 0.73,0.26 1.52,0.26 2.25,0 l 43.2,-15.55 c 1.8,-0.65 2.68,-2.67 1.93,-4.43 z"
            id="path46"
            inkscape:connector-curvature="0"
            style="fill-opacity:1"/>
				</g>
			</g>
		</g>
    <g
      class="st3"
      clip-path="url(#SVGID_2_)"
      id="g62"
      style="fill-opacity:1">
			<g
        id="g56"
        style="fill-opacity:1">
				<circle
          class="st5"
          cx="94.370003"
          cy="148.61"
          r="42.389999"
          id="circle54"
          style="fill-opacity:1"/>
			</g>
      <g
        id="g60"
        style="fill-opacity:1">
				<circle
          class="st2"
          cx="94.370003"
          cy="141.61"
          r="42.389999"
          id="circle58"
          style="fill-opacity:1"/>
			</g>
		</g>
    <g
      class="st3"
      clip-path="url(#SVGID_2_)"
      id="g72"
      style="fill-opacity:1">
			<g
        id="g66"
        style="fill-opacity:1">
				<rect
          x="95.529999"
          y="185.97"
          class="st5"
          width="8.9499998"
          height="38.110001"
          id="rect64"
          style="fill-opacity:1"/>
			</g>
      <g
        id="g70"
        style="fill-opacity:1">
				<rect
          x="89.529999"
          y="169.97"
          class="st2"
          width="8.9499998"
          height="38.110001"
          id="rect68"
          style="fill-opacity:1"/>
			</g>
		</g>
    <g
      class="st3"
      clip-path="url(#SVGID_2_)"
      id="g82"
      style="fill-opacity:1">
			<g
        id="g76"
        style="fill-opacity:1">

					<rect
            x="117.58"
            y="177.63"
            transform="matrix(0.9624,-0.2715,0.2715,0.9624,-47.7006,40.3647)"
            class="st5"
            width="8.9499998"
            height="29.93"
            id="rect74"
            style="fill-opacity:1"/>
			</g>
      <g
        id="g80"
        style="fill-opacity:1">

					<rect
            x="110.58"
            y="167.63"
            transform="matrix(0.9624,-0.2715,0.2715,0.9624,-45.2488,38.089)"
            class="st2"
            width="8.9499998"
            height="29.93"
            id="rect78"
            style="fill-opacity:1"/>
			</g>
		</g>
    <g
      class="st3"
      clip-path="url(#SVGID_2_)"
      id="g92"
      style="fill-opacity:1">
			<g
        id="g86"
        style="fill-opacity:1">
				<polygon
          class="st5"
          points="65.58,212.99 73.71,184.41 82.32,186.83 74.19,215.41 "
          id="polygon84"
          style="fill-opacity:1"/>
			</g>
      <g
        id="g90"
        style="fill-opacity:1">
				<polygon
          class="st2"
          points="64.58,198.99 72.71,170.41 81.32,172.83 73.19,201.41 "
          id="polygon88"
          style="fill-opacity:1"/>
			</g>
		</g>
    <circle
      class="st6"
      cx="94.370003"
      cy="141.61"
      r="10.34"
      clip-path="url(#SVGID_2_)"
      id="circle94"
      style="fill-opacity:1"/>
    <g
      class="st3"
      clip-path="url(#SVGID_2_)"
      id="g104"
      style="fill-opacity:1">
			<g
        id="g98"
        style="fill-opacity:1">
				<path
          class="st5"
          d="m 147.38,192.47 -12.09,-28.36 c -1.45,3.33 -3.34,6.5 -5.71,9.43 l 9.09,21.32 -41.67,15 -41.67,-15 9.35,-21.93 c -2.34,-3.01 -4.21,-6.27 -5.6,-9.67 l -12.45,29.22 c -0.84,1.97 -0.83,4.22 0.03,6.17 0.85,1.96 2.5,3.5 4.51,4.22 l 43.2,15.55 c 0.85,0.31 1.75,0.46 2.64,0.46 0.89,0 1.79,-0.15 2.64,-0.46 l 43.2,-15.55 c 2.01,-0.72 3.65,-2.26 4.51,-4.22 0.85,-1.96 0.86,-4.21 0.02,-6.18 z"
          id="path96"
          inkscape:connector-curvature="0"
          style="fill-opacity:1"/>
			</g>
      <g
        id="g102"
        style="fill-opacity:1">
				<path
          class="st2"
          d="m 144.38,186.47 -12.09,-28.36 c -1.45,3.33 -3.34,6.5 -5.71,9.43 l 9.09,21.32 -41.67,15 -41.67,-15 9.35,-21.93 c -2.34,-3.01 -4.21,-6.27 -5.6,-9.67 l -12.45,29.22 c -0.84,1.97 -0.83,4.22 0.03,6.17 0.85,1.96 2.5,3.5 4.51,4.22 l 43.2,15.55 c 0.85,0.31 1.75,0.46 2.64,0.46 0.89,0 1.79,-0.15 2.64,-0.46 l 43.2,-15.55 c 2.01,-0.72 3.65,-2.26 4.51,-4.22 0.85,-1.96 0.86,-4.21 0.02,-6.18 z"
          id="path100"
          inkscape:connector-curvature="0"
          style="fill-opacity:1"/>
			</g>
		</g>
	</g>
</g></g></svg>
