<?xml version="1.0" encoding="UTF-8" standalone="no"?>
<!-- Generator: Adobe Illustrator 24.0.2, SVG Export Plug-In . SVG Version: 6.00 Build 0)  -->

<svg
   xmlns:dc="http://purl.org/dc/elements/1.1/"
   xmlns:cc="http://creativecommons.org/ns#"
   xmlns:rdf="http://www.w3.org/1999/02/22-rdf-syntax-ns#"
   xmlns:svg="http://www.w3.org/2000/svg"
   xmlns="http://www.w3.org/2000/svg"
   xmlns:xlink="http://www.w3.org/1999/xlink"
   xmlns:sodipodi="http://sodipodi.sourceforge.net/DTD/sodipodi-0.dtd"
   xmlns:inkscape="http://www.inkscape.org/namespaces/inkscape"
   version="1.1"
   id="Calque_1"
   x="0px"
   y="0px"
   viewBox="0 0 101.99518 171.75"
   xml:space="preserve"
   sodipodi:docname="logo-mobile.svg"
   width="101.99518"
   height="171.75"
   inkscape:version="0.92.5 (2060ec1f9f, 2020-04-08)"><metadata
   id="metadata115"><rdf:RDF><cc:Work
       rdf:about=""><dc:format>image/svg+xml</dc:format><dc:type
         rdf:resource="http://purl.org/dc/dcmitype/StillImage" /></cc:Work></rdf:RDF></metadata><defs
   id="defs113" /><sodipodi:namedview
   pagecolor="#ffffff"
   bordercolor="#666666"
   borderopacity="1"
   objecttolerance="10"
   gridtolerance="10"
   guidetolerance="10"
   inkscape:pageopacity="0"
   inkscape:pageshadow="2"
   inkscape:window-width="1920"
   inkscape:window-height="1026"
   id="namedview111"
   showgrid="false"
   inkscape:zoom="0.55316285"
   inkscape:cx="328.49259"
   inkscape:cy="85.87"
   inkscape:window-x="0"
   inkscape:window-y="29"
   inkscape:window-maximized="1"
   inkscape:current-layer="Calque_1" />
<style
   type="text/css"
   id="style2">
	.st0{fill:#FFFFFF;}
	.st1{fill:#65B084;}
	.st2{fill:#29264F;}
	.st3{clip-path:url(#SVGID_2_);}
	.st4{opacity:0.6;}
	.st5{fill:#358756;}
	.st6{clip-path:url(#SVGID_2_);fill:#FFFFFF;}
	.st7{clip-path:url(#SVGID_4_);}
	.st8{clip-path:url(#SVGID_4_);fill:#29264F;}
</style>

<g
   id="g108"
   transform="translate(-43.007412,-41.119999)">
	<rect
   x="79.230003"
   y="87.690002"
   class="st2"
   width="30.280001"
   height="33.240002"
   id="rect20"
   style="fill:#29264f" />
	<path
   class="st2"
   d="M 107.54,89.91 H 81.2 c -1.9,0 -3.45,-1.54 -3.45,-3.45 V 80.8 c 0,-1.9 1.54,-3.45 3.45,-3.45 h 26.34 c 1.9,0 3.45,1.54 3.45,3.45 v 5.66 c 0,1.9 -1.55,3.45 -3.45,3.45 z"
   id="path22"
   inkscape:connector-curvature="0"
   style="fill:#29264f" />
	<g
   id="g28">
		<circle
   class="st1"
   cx="78.339996"
   cy="49.619999"
   r="8.5"
   id="circle24"
   style="fill:#65b084" />
		<path
   class="st0"
   d="m 76,51 c 1.1,2.81 5.1,4.18 3,5 -2.1,0.82 -5.46,-0.82 -6.56,-3.63 C 71.34,49.56 71.9,45.82 74,45 c 2.1,-0.82 0.9,3.19 2,6 z"
   id="path26"
   inkscape:connector-curvature="0"
   style="fill:#ffffff" />
	</g>
	<g
   id="g34">
		<circle
   class="st1"
   cx="94.449997"
   cy="63.939999"
   r="6.71"
   id="circle30"
   style="fill:#65b084" />
		<path
   class="st0"
   d="m 92.15,65.3 c 0.86,2.19 3.84,3.31 2.3,3.92 -1.54,0.6 -4.05,-0.72 -4.91,-2.91 -0.86,-2.19 -0.5,-5.08 1.04,-5.68 1.54,-0.61 0.71,2.47 1.57,4.67 z"
   id="path32"
   inkscape:connector-curvature="0"
   style="fill:#ffffff" />
	</g>
	<g
   id="g106">
		<defs
   id="defs37">
			<path
   id="SVGID_1_"
   d="m 144.38,186.47 -12.14,-28.49 c 6.36,-15.05 3.42,-33.1 -8.84,-45.37 -16.15,-16.15 -42.34,-16.15 -58.49,0 C 52.73,124.79 49.82,143.02 56,158 l -12.38,28.47 c -0.84,1.97 -0.83,4.22 0.03,6.17 0.85,1.96 2.5,3.5 4.51,4.22 l 43.2,15.55 c 0.85,0.31 1.75,0.46 2.64,0.46 0.89,0 1.79,-0.15 2.64,-0.46 l 43.2,-15.55 c 2.01,-0.72 3.65,-2.26 4.51,-4.22 0.86,-1.95 0.87,-4.2 0.03,-6.17 z"
   inkscape:connector-curvature="0" />
		</defs>
		<clipPath
   id="SVGID_2_">
			<use
   xlink:href="#SVGID_1_"
   style="overflow:visible"
   id="use39"
   x="0"
   y="0"
   width="100%"
   height="100%" />
		</clipPath>
		<g
   class="st3"
   clip-path="url(#SVGID_2_)"
   id="g52">
			<g
   class="st4"
   id="g44"
   style="opacity:0.6">
				<path
   class="st1"
   d="M 125.13,159.72 H 94 62.87 l -15.14,35.51 c -0.75,1.76 0.13,3.78 1.93,4.43 l 43.2,15.55 c 0.73,0.26 1.52,0.26 2.25,0 l 43.2,-15.55 c 1.8,-0.65 2.68,-2.67 1.93,-4.43 z"
   id="path42"
   inkscape:connector-curvature="0"
   style="fill:#65b084" />
			</g>
			<g
   id="g50">
				<g
   id="g48">
					<path
   class="st1"
   d="M 125.13,152.72 H 94 62.87 l -15.14,35.51 c -0.75,1.76 0.13,3.78 1.93,4.43 l 43.2,15.55 c 0.73,0.26 1.52,0.26 2.25,0 l 43.2,-15.55 c 1.8,-0.65 2.68,-2.67 1.93,-4.43 z"
   id="path46"
   inkscape:connector-curvature="0"
   style="fill:#65b084" />
				</g>
			</g>
		</g>
		<g
   class="st3"
   clip-path="url(#SVGID_2_)"
   id="g62">
			<g
   id="g56">
				<circle
   class="st5"
   cx="94.370003"
   cy="148.61"
   r="42.389999"
   id="circle54"
   style="fill:#358756" />
			</g>
			<g
   id="g60">
				<circle
   class="st2"
   cx="94.370003"
   cy="141.61"
   r="42.389999"
   id="circle58"
   style="fill:#29264f" />
			</g>
		</g>
		<g
   class="st3"
   clip-path="url(#SVGID_2_)"
   id="g72">
			<g
   id="g66">
				<rect
   x="95.529999"
   y="185.97"
   class="st5"
   width="8.9499998"
   height="38.110001"
   id="rect64"
   style="fill:#358756" />
			</g>
			<g
   id="g70">
				<rect
   x="89.529999"
   y="169.97"
   class="st2"
   width="8.9499998"
   height="38.110001"
   id="rect68"
   style="fill:#29264f" />
			</g>
		</g>
		<g
   class="st3"
   clip-path="url(#SVGID_2_)"
   id="g82">
			<g
   id="g76">
				
					<rect
   x="117.58"
   y="177.63"
   transform="matrix(0.9624,-0.2715,0.2715,0.9624,-47.7006,40.3647)"
   class="st5"
   width="8.9499998"
   height="29.93"
   id="rect74"
   style="fill:#358756" />
			</g>
			<g
   id="g80">
				
					<rect
   x="110.58"
   y="167.63"
   transform="matrix(0.9624,-0.2715,0.2715,0.9624,-45.2488,38.089)"
   class="st2"
   width="8.9499998"
   height="29.93"
   id="rect78"
   style="fill:#29264f" />
			</g>
		</g>
		<g
   class="st3"
   clip-path="url(#SVGID_2_)"
   id="g92">
			<g
   id="g86">
				<polygon
   class="st5"
   points="73.71,184.41 82.32,186.83 74.19,215.41 65.58,212.99 "
   id="polygon84"
   style="fill:#358756" />
			</g>
			<g
   id="g90">
				<polygon
   class="st2"
   points="72.71,170.41 81.32,172.83 73.19,201.41 64.58,198.99 "
   id="polygon88"
   style="fill:#29264f" />
			</g>
		</g>
		<circle
   class="st6"
   cx="94.370003"
   cy="141.61"
   r="10.34"
   clip-path="url(#SVGID_2_)"
   id="circle94"
   style="fill:#ffffff" />
		<g
   class="st3"
   clip-path="url(#SVGID_2_)"
   id="g104">
			<g
   id="g98">
				<path
   class="st5"
   d="m 147.38,192.47 -12.09,-28.36 c -1.45,3.33 -3.34,6.5 -5.71,9.43 l 9.09,21.32 -41.67,15 -41.67,-15 9.35,-21.93 c -2.34,-3.01 -4.21,-6.27 -5.6,-9.67 l -12.45,29.22 c -0.84,1.97 -0.83,4.22 0.03,6.17 0.85,1.96 2.5,3.5 4.51,4.22 l 43.2,15.55 c 0.85,0.31 1.75,0.46 2.64,0.46 0.89,0 1.79,-0.15 2.64,-0.46 l 43.2,-15.55 c 2.01,-0.72 3.65,-2.26 4.51,-4.22 0.85,-1.96 0.86,-4.21 0.02,-6.18 z"
   id="path96"
   inkscape:connector-curvature="0"
   style="fill:#358756" />
			</g>
			<g
   id="g102">
				<path
   class="st2"
   d="m 144.38,186.47 -12.09,-28.36 c -1.45,3.33 -3.34,6.5 -5.71,9.43 l 9.09,21.32 -41.67,15 -41.67,-15 9.35,-21.93 c -2.34,-3.01 -4.21,-6.27 -5.6,-9.67 l -12.45,29.22 c -0.84,1.97 -0.83,4.22 0.03,6.17 0.85,1.96 2.5,3.5 4.51,4.22 l 43.2,15.55 c 0.85,0.31 1.75,0.46 2.64,0.46 0.89,0 1.79,-0.15 2.64,-0.46 l 43.2,-15.55 c 2.01,-0.72 3.65,-2.26 4.51,-4.22 0.85,-1.96 0.86,-4.21 0.02,-6.18 z"
   id="path100"
   inkscape:connector-curvature="0"
   style="fill:#29264f" />
			</g>
		</g>
	</g>
</g>
</svg>