<?xml version="1.0" encoding="UTF-8" standalone="no"?>
<!-- Generator: Adobe Illustrator 24.0.2, SVG Export Plug-In . SVG Version: 6.00 Build 0)  -->

<svg
   xmlns:dc="http://purl.org/dc/elements/1.1/"
   xmlns:cc="http://creativecommons.org/ns#"
   xmlns:rdf="http://www.w3.org/1999/02/22-rdf-syntax-ns#"
   xmlns:svg="http://www.w3.org/2000/svg"
   xmlns="http://www.w3.org/2000/svg"
   xmlns:xlink="http://www.w3.org/1999/xlink"
   xmlns:sodipodi="http://sodipodi.sourceforge.net/DTD/sodipodi-0.dtd"
   xmlns:inkscape="http://www.inkscape.org/namespaces/inkscape"
   version="1.1"
   id="Calque_1"
   x="0px"
   y="0px"
   viewBox="0 0 743 254"
   width="743"
   height="253"
   style="enable-background:new 0 0 743 254;"
   xml:space="preserve"
   sodipodi:docname="logo-dark-v2.svg"
   inkscape:version="0.92.5 (2060ec1f9f, 2020-04-08)"
   inkscape:export-filename="/home/mdartic/workspace/lck/locokit-next/packages/nuxt-locokit/playground/assets/logo.png"
   inkscape:export-xdpi="182"
   inkscape:export-ydpi="182"><metadata
   id="metadata115"><rdf:RDF><cc:Work
       rdf:about=""><dc:format>image/svg+xml</dc:format><dc:type
         rdf:resource="http://purl.org/dc/dcmitype/StillImage" /><dc:title></dc:title></cc:Work></rdf:RDF></metadata><defs
   id="defs113" /><sodipodi:namedview
   pagecolor="#ffffff"
   bordercolor="#666666"
   borderopacity="1"
   objecttolerance="10"
   gridtolerance="10"
   guidetolerance="10"
   inkscape:pageopacity="0"
   inkscape:pageshadow="2"
   inkscape:window-width="1920"
   inkscape:window-height="1013"
   id="namedview111"
   showgrid="false"
   inkscape:zoom="2.384926"
   inkscape:cx="335.30226"
   inkscape:cy="117.94388"
   inkscape:window-x="0"
   inkscape:window-y="35"
   inkscape:window-maximized="1"
   inkscape:current-layer="Calque_1" />
<style
   type="text/css"
   id="style2">
	.st0{fill:#FFFFFF;}
	.st1{fill:#65B084;}
	.st2{fill:#29264F;}
	.st3{clip-path:url(#SVGID_2_);}
	.st4{opacity:0.6;}
	.st5{fill:#358756;}
	.st6{clip-path:url(#SVGID_2_);fill:#FFFFFF;}
	.st7{clip-path:url(#SVGID_4_);}
	.st8{clip-path:url(#SVGID_4_);fill:#29264F;}
</style>
<g
   id="g18"
   transform="translate(0,17.680217)">
	<path
   class="st2"
   d="M 188.6,170.87 V 72.3 h 12.49 v 87.46 h 54.97 v 11.11 z"
   id="path4"
   inkscape:connector-curvature="0"
   style="fill:#f9f9f9" />
	<path
   class="st2"
   d="m 298.41,172.26 c -5.46,0 -10.41,-0.99 -14.85,-2.96 -4.44,-1.97 -8.28,-4.68 -11.52,-8.13 -3.24,-3.45 -5.74,-7.42 -7.5,-11.92 -1.76,-4.5 -2.64,-9.23 -2.64,-14.19 0,-5.05 0.88,-9.83 2.64,-14.33 1.76,-4.5 4.26,-8.47 7.5,-11.92 3.24,-3.44 7.1,-6.15 11.59,-8.13 4.49,-1.97 9.42,-2.96 14.78,-2.96 5.46,0 10.41,0.99 14.85,2.96 4.44,1.98 8.31,4.69 11.59,8.13 3.28,3.44 5.81,7.42 7.57,11.92 1.76,4.5 2.64,9.28 2.64,14.33 0,4.96 -0.88,9.69 -2.64,14.19 -1.76,4.5 -4.26,8.47 -7.5,11.92 -3.24,3.44 -7.1,6.16 -11.59,8.13 -4.49,1.97 -9.46,2.96 -14.92,2.96 z m -24.02,-37.07 c 0,4.95 1.09,9.44 3.26,13.47 2.17,4.03 5.07,7.21 8.68,9.55 3.61,2.34 7.63,3.5 12.08,3.5 4.45,0 8.49,-1.19 12.15,-3.57 3.65,-2.38 6.57,-5.61 8.75,-9.69 2.17,-4.08 3.26,-8.59 3.26,-13.54 0,-4.95 -1.09,-9.43 -3.26,-13.46 -2.17,-4.03 -5.09,-7.24 -8.75,-9.62 -3.66,-2.38 -7.71,-3.57 -12.15,-3.57 -4.44,0 -8.47,1.21 -12.08,3.64 -3.61,2.43 -6.5,5.65 -8.68,9.68 -2.17,4.04 -3.26,8.57 -3.26,13.61 z"
   id="path6"
   inkscape:connector-curvature="0"
   style="fill:#f9f9f9" />
	<path
   class="st2"
   d="m 381.98,172.26 c -5.46,0 -10.44,-0.99 -14.92,-2.96 -4.49,-1.97 -8.38,-4.71 -11.66,-8.2 -3.29,-3.49 -5.83,-7.49 -7.63,-11.99 -1.8,-4.5 -2.71,-9.28 -2.71,-14.33 0,-6.8 1.53,-13 4.58,-18.6 3.05,-5.61 7.36,-10.08 12.91,-13.44 5.55,-3.36 11.98,-5.03 19.3,-5.03 7.13,0 13.35,1.6 18.67,4.79 5.32,3.19 9.28,7.47 11.87,12.84 l -11.94,3.75 c -1.85,-3.42 -4.44,-6.08 -7.77,-7.98 -3.33,-1.9 -7.04,-2.85 -11.11,-2.85 -4.44,0 -8.49,1.14 -12.15,3.44 -3.66,2.29 -6.55,5.43 -8.68,9.41 -2.13,3.98 -3.19,8.54 -3.19,13.67 0,5.04 1.09,9.6 3.26,13.67 2.17,4.08 5.09,7.3 8.75,9.69 3.65,2.38 7.7,3.57 12.15,3.57 2.87,0 5.62,-0.51 8.26,-1.53 2.64,-1.02 4.95,-2.38 6.94,-4.09 1.99,-1.71 3.35,-3.59 4.1,-5.62 l 11.94,3.61 c -1.48,3.52 -3.73,6.64 -6.73,9.37 -3.01,2.73 -6.57,4.88 -10.69,6.46 -4.13,1.56 -8.64,2.35 -13.55,2.35 z"
   id="path8"
   inkscape:connector-curvature="0"
   style="fill:#f9f9f9" />
	<path
   class="st2"
   d="m 457.78,172.26 c -5.46,0 -10.41,-0.99 -14.85,-2.96 -4.44,-1.97 -8.28,-4.68 -11.52,-8.13 -3.24,-3.45 -5.74,-7.42 -7.5,-11.92 -1.76,-4.5 -2.64,-9.23 -2.64,-14.19 0,-5.05 0.88,-9.83 2.64,-14.33 1.76,-4.5 4.26,-8.47 7.5,-11.92 3.24,-3.44 7.1,-6.15 11.59,-8.13 4.49,-1.97 9.42,-2.96 14.78,-2.96 5.46,0 10.41,0.99 14.85,2.96 4.44,1.98 8.31,4.69 11.59,8.13 3.28,3.44 5.81,7.42 7.57,11.92 1.76,4.5 2.64,9.28 2.64,14.33 0,4.96 -0.88,9.69 -2.64,14.19 -1.76,4.5 -4.26,8.47 -7.5,11.92 -3.24,3.44 -7.1,6.16 -11.59,8.13 -4.49,1.97 -9.46,2.96 -14.92,2.96 z m -24.02,-37.07 c 0,4.95 1.09,9.44 3.26,13.47 2.17,4.03 5.07,7.21 8.68,9.55 3.61,2.34 7.63,3.5 12.08,3.5 4.45,0 8.49,-1.19 12.15,-3.57 3.65,-2.38 6.57,-5.61 8.75,-9.69 2.17,-4.08 3.26,-8.59 3.26,-13.54 0,-4.95 -1.09,-9.43 -3.26,-13.46 -2.17,-4.03 -5.09,-7.24 -8.75,-9.62 -3.66,-2.38 -7.71,-3.57 -12.15,-3.57 -4.44,0 -8.47,1.21 -12.08,3.64 -3.61,2.43 -6.5,5.65 -8.68,9.68 -2.17,4.04 -3.26,8.57 -3.26,13.61 z"
   id="path10"
   inkscape:connector-curvature="0"
   style="fill:#f9f9f9" />
	<path
   class="st1"
   d="M 509.7,170.87 V 72.3 h 19.16 v 46.85 l 41.37,-46.99 h 21.1 l -37.76,43.93 40.12,54.77 h -21.66 l -30.54,-42.54 -12.63,13.07 v 29.47 H 509.7 Z"
   id="path12"
   inkscape:connector-curvature="0"
   style="fill:#65b084" />
	<path
   class="st1"
   d="M 606.32,87.85 V 69.53 h 18.46 v 18.33 h -18.46 z m 0,83.02 V 98.12 h 18.46 v 72.74 h -18.46 z"
   id="path14"
   inkscape:connector-curvature="0"
   style="fill:#65b084" />
	<path
   class="st1"
   d="m 690.86,167.26 c -1.67,0.74 -3.59,1.5 -5.76,2.29 -2.18,0.79 -4.54,1.43 -7.08,1.94 -2.55,0.51 -5.12,0.76 -7.71,0.76 -3.52,0 -6.71,-0.6 -9.58,-1.79 -2.87,-1.19 -5.16,-3.09 -6.87,-5.71 -1.71,-2.61 -2.57,-6.03 -2.57,-10.24 v -41.54 h -9.44 V 98.82 h 9.44 v -23.6 h 18.74 v 23.6 h 15.27 v 14.16 h -15.27 v 35.21 c 0.09,2.47 0.79,4.27 2.08,5.41 1.29,1.14 2.96,1.71 5,1.71 1.85,0 3.7,-0.35 5.55,-1.04 1.85,-0.69 3.38,-1.32 4.58,-1.88 z"
   id="path16"
   inkscape:connector-curvature="0"
   style="fill:#65b084" />
</g>
<g
   id="g108">
	<rect
   x="79.23"
   y="87.69"
   class="st2"
   width="30.28"
   height="33.24"
   id="rect20"
   style="fill:#f9f9f9" />
	<path
   class="st2"
   d="M107.54,89.91H81.2c-1.9,0-3.45-1.54-3.45-3.45V80.8c0-1.9,1.54-3.45,3.45-3.45h26.34   c1.9,0,3.45,1.54,3.45,3.45v5.66C110.99,88.36,109.44,89.91,107.54,89.91z"
   id="path22"
   style="fill:#f9f9f9" />
	<g
   id="g28">
		<circle
   class="st1"
   cx="78.34"
   cy="49.62"
   r="8.5"
   id="circle24" />
		<path
   class="st0"
   d="M76,51c1.1,2.81,5.1,4.18,3,5s-5.46-0.82-6.56-3.63S71.9,45.82,74,45S74.9,48.19,76,51z"
   id="path26" />
	</g>
	<g
   id="g34">
		<circle
   class="st1"
   cx="94.45"
   cy="63.94"
   r="6.71"
   id="circle30" />
		<path
   class="st0"
   d="M92.15,65.3c0.86,2.19,3.84,3.31,2.3,3.92c-1.54,0.6-4.05-0.72-4.91-2.91c-0.86-2.19-0.5-5.08,1.04-5.68    C92.12,60.02,91.29,63.1,92.15,65.3z"
   id="path32" />
	</g>
	<g
   id="g106">
		<defs
   id="defs37">
			<path
   id="SVGID_1_"
   d="M144.38,186.47l-12.14-28.49c6.36-15.05,3.42-33.1-8.84-45.37c-16.15-16.15-42.34-16.15-58.49,0     C52.73,124.79,49.82,143.02,56,158l-12.38,28.47c-0.84,1.97-0.83,4.22,0.03,6.17c0.85,1.96,2.5,3.5,4.51,4.22l43.2,15.55     c0.85,0.31,1.75,0.46,2.64,0.46s1.79-0.15,2.64-0.46l43.2-15.55c2.01-0.72,3.65-2.26,4.51-4.22     C145.21,190.69,145.22,188.44,144.38,186.47z" />
		</defs>
		<clipPath
   id="SVGID_2_">
			<use
   xlink:href="#SVGID_1_"
   style="overflow:visible;"
   id="use39" />
		</clipPath>
		<g
   class="st3"
   clip-path="url(#SVGID_2_)"
   id="g52">
			<g
   class="st4"
   id="g44">
				<path
   class="st1"
   d="M125.13,159.72H94H62.87l-15.14,35.51c-0.75,1.76,0.13,3.78,1.93,4.43l43.2,15.55      c0.73,0.26,1.52,0.26,2.25,0l43.2-15.55c1.8-0.65,2.68-2.67,1.93-4.43L125.13,159.72z"
   id="path42" />
			</g>
			<g
   id="g50">
				<g
   id="g48">
					<path
   class="st1"
   d="M125.13,152.72H94H62.87l-15.14,35.51c-0.75,1.76,0.13,3.78,1.93,4.43l43.2,15.55       c0.73,0.26,1.52,0.26,2.25,0l43.2-15.55c1.8-0.65,2.68-2.67,1.93-4.43L125.13,152.72z"
   id="path46" />
				</g>
			</g>
		</g>
		<g
   class="st3"
   clip-path="url(#SVGID_2_)"
   id="g62"
   style="fill:#f9f9f9">
			<g
   id="g56"
   style="fill:#f9f9f9">
				<circle
   class="st5"
   cx="94.37"
   cy="148.61"
   r="42.39"
   id="circle54"
   style="fill:#f9f9f9" />
			</g>
			<g
   id="g60"
   style="fill:#f9f9f9">
				<circle
   class="st2"
   cx="94.37"
   cy="141.61"
   r="42.39"
   id="circle58"
   style="fill:#f9f9f9" />
			</g>
		</g>
		<g
   class="st3"
   clip-path="url(#SVGID_2_)"
   id="g72"
   style="fill:#f9f9f9">
			<g
   id="g66"
   style="fill:#f9f9f9">
				<rect
   x="95.53"
   y="185.97"
   class="st5"
   width="8.95"
   height="38.11"
   id="rect64"
   style="fill:#f9f9f9" />
			</g>
			<g
   id="g70"
   style="fill:#f9f9f9">
				<rect
   x="89.53"
   y="169.97"
   class="st2"
   width="8.95"
   height="38.11"
   id="rect68"
   style="fill:#f9f9f9" />
			</g>
		</g>
		<g
   class="st3"
   clip-path="url(#SVGID_2_)"
   id="g82"
   style="fill:#f9f9f9">
			<g
   id="g76"
   style="fill:#f9f9f9">
				
					<rect
   x="117.58"
   y="177.63"
   transform="matrix(0.9624 -0.2715 0.2715 0.9624 -47.7006 40.3647)"
   class="st5"
   width="8.95"
   height="29.93"
   id="rect74"
   style="fill:#f9f9f9" />
			</g>
			<g
   id="g80"
   style="fill:#f9f9f9">
				
					<rect
   x="110.58"
   y="167.63"
   transform="matrix(0.9624 -0.2715 0.2715 0.9624 -45.2488 38.089)"
   class="st2"
   width="8.95"
   height="29.93"
   id="rect78"
   style="fill:#f9f9f9" />
			</g>
		</g>
		<g
   class="st3"
   clip-path="url(#SVGID_2_)"
   id="g92"
   style="fill:#f9f9f9">
			<g
   id="g86"
   style="fill:#f9f9f9">
				<polygon
   class="st5"
   points="74.19,215.41 65.58,212.99 73.71,184.41 82.32,186.83     "
   id="polygon84"
   style="fill:#f9f9f9" />
			</g>
			<g
   id="g90"
   style="fill:#f9f9f9">
				<polygon
   class="st2"
   points="73.19,201.41 64.58,198.99 72.71,170.41 81.32,172.83     "
   id="polygon88"
   style="fill:#f9f9f9" />
			</g>
		</g>
		<circle
   class="st6"
   cx="94.37"
   cy="141.61"
   r="10.34"
   clip-path="url(#SVGID_2_)"
   id="circle94"
   style="fill:#29264f;fill-opacity:1" />
		<g
   class="st3"
   clip-path="url(#SVGID_2_)"
   id="g104"
   style="fill:#f9f9f9">
			<g
   id="g98"
   style="fill:#f9f9f9">
				<path
   class="st5"
   d="M147.38,192.47l-12.09-28.36c-1.45,3.33-3.34,6.5-5.71,9.43l9.09,21.32l-41.67,15l-41.67-15l9.35-21.93      c-2.34-3.01-4.21-6.27-5.6-9.67l-12.45,29.22c-0.84,1.97-0.83,4.22,0.03,6.17c0.85,1.96,2.5,3.5,4.51,4.22l43.2,15.55      c0.85,0.31,1.75,0.46,2.64,0.46s1.79-0.15,2.64-0.46l43.2-15.55c2.01-0.72,3.65-2.26,4.51-4.22      C148.21,196.69,148.22,194.44,147.38,192.47z"
   id="path96"
   style="fill:#f9f9f9" />
			</g>
			<g
   id="g102"
   style="fill:#f9f9f9">
				<path
   class="st2"
   d="M144.38,186.47l-12.09-28.36c-1.45,3.33-3.34,6.5-5.71,9.43l9.09,21.32l-41.67,15l-41.67-15l9.35-21.93      c-2.34-3.01-4.21-6.27-5.6-9.67l-12.45,29.22c-0.84,1.97-0.83,4.22,0.03,6.17c0.85,1.96,2.5,3.5,4.51,4.22l43.2,15.55      c0.85,0.31,1.75,0.46,2.64,0.46s1.79-0.15,2.64-0.46l43.2-15.55c2.01-0.72,3.65-2.26,4.51-4.22      C145.21,190.69,145.22,188.44,144.38,186.47z"
   id="path100"
   style="fill:#f9f9f9" />
			</g>
		</g>
	</g>
</g>
</svg>