<?xml version="1.0" standalone="no"?>
<!DOCTYPE svg PUBLIC "-//W3C//DTD SVG 20010904//EN"
 "http://www.w3.org/TR/2001/REC-SVG-20010904/DTD/svg10.dtd">
<svg version="1.0" xmlns="http://www.w3.org/2000/svg"
 width="1219.000000pt" height="1219.000000pt" viewBox="0 0 1219.000000 1219.000000"
 preserveAspectRatio="xMidYMid meet">
<metadata>
Created by potrace 1.11, written by Peter Selinger 2001-2013
</metadata>
<g transform="translate(0.000000,1219.000000) scale(0.100000,-0.100000)"
fill="#000000" stroke="none">
<path d="M5807 10144 c-1 -1 -54 -4 -117 -7 -165 -8 -338 -47 -530 -119 -172
-64 -454 -251 -525 -349 -52 -70 -59 -158 -17 -240 25 -50 53 -77 161 -159 18
-14 59 -44 90 -68 56 -42 134 -73 168 -67 10 2 29 4 43 4 26 1 96 40 165 92
98 73 285 147 415 165 68 10 198 10 265 1 115 -15 189 -43 375 -140 287 -149
373 -187 513 -226 223 -63 488 -72 715 -25 163 34 421 127 473 171 8 7 19 13
24 13 13 0 142 88 171 117 36 36 64 101 64 154 2 99 -18 133 -152 260 -153
145 -183 164 -268 164 -67 0 -71 -2 -220 -80 -29 -16 -101 -44 -160 -61 -94
-29 -118 -32 -228 -32 -191 0 -247 18 -548 174 -329 169 -456 214 -699 244
-76 9 -174 17 -178 14z"/>
<path d="M3478 8665 c-2 -2 -39 -5 -83 -9 -132 -9 -314 -41 -420 -73 -220 -65
-262 -82 -460 -179 -314 -155 -581 -370 -811 -654 -155 -192 -316 -485 -394
-716 -39 -116 -105 -341 -117 -394 -3 -14 -6 -29 -7 -35 -25 -108 -38 -193
-55 -352 -12 -115 -5 -388 13 -499 2 -16 10 -63 16 -104 31 -199 117 -460 220
-668 232 -466 599 -839 1065 -1081 211 -110 523 -212 725 -237 24 -3 47 -7 50
-9 14 -9 183 -19 325 -19 176 0 283 8 420 33 33 6 74 13 90 15 17 3 85 21 153
40 499 142 929 428 1253 836 217 273 351 551 468 967 l11 42 317 1 c174 0 314
-2 311 -5 -3 -4 0 -32 8 -63 8 -31 17 -68 20 -82 9 -44 76 -234 86 -247 6 -7
7 -13 4 -13 -4 0 -1 -10 6 -22 6 -13 13 -28 14 -33 3 -19 115 -240 130 -256 8
-8 14 -19 14 -24 0 -7 49 -89 72 -120 130 -175 176 -232 261 -321 317 -331
722 -569 1157 -678 74 -19 151 -36 170 -39 19 -3 58 -9 85 -13 28 -3 59 -9 70
-11 38 -9 451 -11 515 -3 36 5 83 11 105 14 294 37 616 151 885 313 116 70
136 82 159 100 9 7 44 33 78 58 82 61 235 197 298 267 309 337 490 671 590
1088 50 213 67 379 69 703 1 169 -1 200 -14 206 -8 4 -911 6 -2007 6 l-1992
-1 4 46 c5 61 31 187 56 262 11 35 22 70 24 78 1 8 18 49 36 90 97 217 189
351 354 515 414 412 1016 561 1580 390 364 -111 669 -341 885 -670 28 -44 56
-90 61 -103 l9 -24 33 20 c36 22 202 119 257 150 19 11 78 44 130 74 52 30
137 79 189 109 51 30 95 59 98 65 9 24 -125 231 -245 379 -61 74 -252 270
-316 323 -342 283 -784 487 -1166 538 -19 3 -41 7 -48 10 -54 18 -482 26 -607
12 -399 -46 -759 -176 -1085 -392 -41 -27 -87 -59 -101 -70 -14 -12 -43 -34
-65 -51 -62 -48 -205 -178 -254 -231 -213 -231 -359 -458 -490 -759 -54 -126
-126 -386 -145 -525 -2 -14 -6 -45 -10 -69 -3 -24 -8 -69 -10 -98 -1 -30 -6
-57 -10 -61 -4 -4 -116 -7 -250 -8 l-243 0 1 25 c0 14 -3 53 -7 86 -5 33 -10
74 -12 90 -2 17 -6 41 -9 55 -5 25 -10 48 -20 107 -11 68 -77 278 -120 386
-76 191 -232 463 -342 597 -209 255 -435 451 -704 609 -180 106 -478 219 -704
267 -34 7 -137 24 -175 29 -25 3 -62 8 -83 11 -37 6 -364 13 -369 9z m367
-841 c235 -38 448 -121 650 -253 71 -47 79 -53 175 -136 140 -123 273 -298
359 -471 68 -137 131 -316 134 -381 0 -7 3 -13 7 -13 3 0 6 -10 7 -22 1 -20 6
-58 18 -134 l3 -20 -737 0 c-405 1 -761 -3 -791 -7 -116 -17 -250 -109 -299
-206 -123 -240 -10 -514 243 -593 55 -17 107 -18 762 -18 l702 0 -29 -78
c-191 -500 -613 -867 -1139 -993 -121 -28 -184 -34 -380 -33 -151 0 -204 5
-290 23 -643 136 -1125 619 -1259 1259 -37 176 -36 487 0 641 28 116 104 364
136 446 148 373 443 685 813 857 131 62 326 119 453 134 29 4 53 8 55 9 11 10
332 1 407 -11z m6615 -2258 c0 -20 -55 -155 -103 -251 -79 -161 -276 -399
-427 -517 -637 -498 -1544 -447 -2104 118 -77 77 -123 129 -162 184 -21 30
-42 57 -46 58 -5 2 -8 8 -8 13 0 5 -16 33 -35 64 -20 30 -38 63 -42 73 -3 9
-15 29 -25 45 -11 15 -17 27 -13 27 3 0 0 12 -8 28 -8 15 -19 38 -24 52 -6 14
-15 36 -21 50 -5 14 -13 33 -16 43 -5 16 71 17 1514 17 836 0 1520 -2 1520 -4z"/>
</g>
</svg>
