<?xml version="1.0" encoding="utf-8"?>
<!-- Generator: Adobe Illustrator 24.0.2, SVG Export Plug-In . SVG Version: 6.00 Build 0)  -->
<svg version="1.1" xmlns="http://www.w3.org/2000/svg" xmlns:xlink="http://www.w3.org/1999/xlink" x="0px" y="0px"
	 viewBox="0 0 826.03 834.18" style="enable-background:new 0 0 826.03 834.18;" xml:space="preserve">
<style type="text/css">
	.st0{display:none;}
	.st1{display:inline;}
	.st2{fill:#171717;}
	.st3{fill:#F85446;}
	.st4{opacity:0;}
	.st5{clip-path:url(#SVGID_2_);fill:#1B1237;}
	.st6{clip-path:url(#SVGID_4_);fill:#1B1237;}
	.st7{clip-path:url(#SVGID_6_);fill:#1B1237;}
	.st8{clip-path:url(#SVGID_8_);fill:#1B1237;}
	.st9{clip-path:url(#SVGID_10_);fill:#1B1237;}
	.st10{clip-path:url(#SVGID_12_);fill:#1B1237;}
	.st11{clip-path:url(#SVGID_14_);fill:#1B1237;}
	.st12{clip-path:url(#SVGID_16_);fill:#1B1237;}
	.st13{clip-path:url(#SVGID_18_);fill:#1B1237;}
	.st14{clip-path:url(#SVGID_20_);fill:#1B1237;}
	.st15{clip-path:url(#SVGID_22_);fill:#1B1237;}
	.st16{clip-path:url(#SVGID_24_);fill:#1B1237;}
	.st17{clip-path:url(#SVGID_26_);fill:#D0DD2A;}
</style>
<g id="Calque_1" class="st0">
	<g class="st1">
		<path class="st2" d="M196.25,509.91l-45.79,107.7c-0.99,2.69-2.51,4.77-4.56,6.25c-2.05,1.48-4.28,2.23-6.68,2.23
			c-3.82,0-6.65-1.06-8.48-3.18c-1.84-2.12-2.76-4.73-2.76-7.84c0-1.27,0.21-2.61,0.64-4.03l52.79-126.78
			c1.13-2.83,2.86-5.02,5.19-6.57c2.33-1.55,4.84-2.19,7.53-1.91c2.54,0,4.91,0.74,7.1,2.23c2.19,1.48,3.78,3.57,4.77,6.25
			l52.15,124.23c0.71,1.84,1.06,3.53,1.06,5.09c0,3.82-1.24,6.86-3.71,9.12c-2.47,2.26-5.19,3.39-8.16,3.39
			c-2.54,0-4.84-0.78-6.89-2.33c-2.05-1.55-3.64-3.67-4.77-6.36L190.1,511.18L196.25,509.91z M157.03,591.74l11.66-24.38h57.24
			l4.03,24.38H157.03z"/>
		<path class="st2" d="M382.59,476.41c3.67,0,6.64,1.24,8.9,3.71c2.26,2.47,3.39,5.55,3.39,9.22v76.74
			c0,11.73-2.51,22.12-7.53,31.16c-5.02,9.05-11.91,16.11-20.67,21.2c-8.76,5.09-18.94,7.63-30.53,7.63
			c-11.59,0-21.8-2.54-30.63-7.63c-8.83-5.09-15.76-12.15-20.78-21.2c-5.02-9.04-7.53-19.43-7.53-31.16v-76.74
			c0-3.67,1.27-6.75,3.82-9.22c2.54-2.47,5.79-3.71,9.75-3.71c3.25,0,6.18,1.24,8.8,3.71c2.61,2.47,3.92,5.55,3.92,9.22v76.74
			c0,7.07,1.52,13.18,4.56,18.34c3.04,5.16,7.07,9.15,12.08,11.98c5.02,2.83,10.35,4.24,16.01,4.24c6.08,0,11.73-1.41,16.96-4.24
			c5.23-2.83,9.47-6.82,12.72-11.98c3.25-5.16,4.88-11.27,4.88-18.34v-76.74c0-3.67,1.06-6.75,3.18-9.22
			C376.02,477.65,378.92,476.41,382.59,476.41z"/>
		<path class="st2" d="M430.08,501.01c-3.68,0-6.75-1.13-9.22-3.39c-2.47-2.26-3.71-5.23-3.71-8.9c0-3.67,1.24-6.6,3.71-8.8
			c2.47-2.19,5.54-3.29,9.22-3.29h94.13c3.67,0,6.75,1.13,9.22,3.39c2.47,2.26,3.71,5.23,3.71,8.9c0,3.68-1.24,6.61-3.71,8.8
			c-2.47,2.19-5.55,3.29-9.22,3.29H430.08z M476.93,625.03c-3.96,0-7.21-1.24-9.75-3.71c-2.54-2.47-3.82-5.54-3.82-9.22V489.13
			h27.56v122.96c0,3.68-1.31,6.75-3.92,9.22C484.38,623.79,481.03,625.03,476.93,625.03z"/>
		<path class="st2" d="M695.93,550.83c0,10.6-1.77,20.5-5.3,29.68c-3.53,9.19-8.52,17.28-14.95,24.27
			c-6.43,7-14.06,12.47-22.9,16.43c-8.83,3.96-18.48,5.94-28.94,5.94c-10.46,0-20.07-1.98-28.83-5.94
			c-8.76-3.96-16.36-9.43-22.79-16.43c-6.43-7-11.42-15.08-14.95-24.27c-3.53-9.19-5.3-19.08-5.3-29.68c0-10.6,1.77-20.49,5.3-29.68
			c3.53-9.19,8.51-17.28,14.95-24.27c6.43-7,14.02-12.47,22.79-16.43c8.76-3.96,18.37-5.94,28.83-5.94c10.46,0,20.1,1.98,28.94,5.94
			c8.83,3.96,16.46,9.43,22.9,16.43c6.43,7,11.41,15.09,14.95,24.27C694.16,530.33,695.93,540.23,695.93,550.83z M668.37,550.83
			c0-9.47-1.91-18.05-5.72-25.76c-3.82-7.7-9.05-13.81-15.69-18.34c-6.65-4.52-14.35-6.78-23.11-6.78c-8.76,0-16.47,2.26-23.11,6.78
			c-6.64,4.52-11.84,10.6-15.58,18.23c-3.75,7.63-5.62,16.25-5.62,25.86c0,9.47,1.87,18.06,5.62,25.76
			c3.74,7.71,8.94,13.82,15.58,18.34c6.64,4.52,14.34,6.78,23.11,6.78c8.76,0,16.46-2.26,23.11-6.78
			c6.64-4.52,11.87-10.63,15.69-18.34C666.46,568.88,668.37,560.3,668.37,550.83z"/>
		<path class="st2" d="M166.45,676.98c1.49,0,2.67,0.46,3.53,1.38c0.86,0.92,1.29,2.06,1.29,3.44v110.08c0,1.72-0.55,3.07-1.63,4.04
			c-1.09,0.98-2.32,1.46-3.7,1.46c-0.69,0-1.44-0.14-2.24-0.43c-0.8-0.29-1.44-0.71-1.89-1.29L85.1,692.28l2.92-1.55v102
			c0,1.26-0.46,2.35-1.38,3.27c-0.92,0.92-2.06,1.38-3.44,1.38c-1.49,0-2.67-0.46-3.53-1.38c-0.86-0.92-1.29-2-1.29-3.27v-110.6
			c0-1.72,0.52-3.01,1.55-3.87c1.03-0.86,2.18-1.29,3.44-1.29c0.69,0,1.43,0.15,2.24,0.43c0.8,0.29,1.43,0.77,1.89,1.46
			l75.85,102.17l-1.72,3.1V681.79c0-1.38,0.49-2.52,1.46-3.44C164.07,677.44,165.19,676.98,166.45,676.98z"/>
		<path class="st2" d="M307.49,737.18c0,9.06-1.41,17.35-4.21,24.85c-2.81,7.51-6.79,14.05-11.95,19.61
			c-5.16,5.56-11.27,9.86-18.32,12.9c-7.05,3.04-14.76,4.56-23.13,4.56c-8.37,0-16.08-1.52-23.13-4.56
			c-7.05-3.04-13.16-7.34-18.32-12.9c-5.16-5.56-9.15-12.1-11.95-19.61c-2.81-7.51-4.21-15.79-4.21-24.85
			c0-9.06,1.4-17.34,4.21-24.85c2.81-7.51,6.79-14.04,11.95-19.61c5.16-5.56,11.27-9.86,18.32-12.9c7.05-3.04,14.76-4.56,23.13-4.56
			c8.37,0,16.08,1.52,23.13,4.56c7.05,3.04,13.16,7.34,18.32,12.9c5.16,5.56,9.14,12.1,11.95,19.61
			C306.09,719.83,307.49,728.12,307.49,737.18z M296.49,737.18c0-10.2-1.98-19.18-5.93-26.92c-3.96-7.74-9.43-13.79-16.43-18.15
			c-7-4.36-15.08-6.54-24.25-6.54c-9.06,0-17.11,2.18-24.17,6.54c-7.05,4.36-12.56,10.41-16.51,18.15
			c-3.96,7.74-5.93,16.71-5.93,26.92c0,10.21,1.98,19.18,5.93,26.92c3.96,7.74,9.46,13.79,16.51,18.15
			c7.05,4.36,15.11,6.54,24.17,6.54c9.17,0,17.26-2.18,24.25-6.54c6.99-4.36,12.47-10.41,16.43-18.15
			C294.51,756.35,296.49,747.38,296.49,737.18z"/>
		<path class="st2" d="M333.64,676.98c0.8,0,1.63,0.17,2.49,0.52c0.86,0.34,1.58,0.92,2.15,1.72l47.47,71.21l-4.64-0.17l47.64-71.04
			c1.26-1.72,2.81-2.46,4.64-2.24c1.38,0,2.55,0.49,3.53,1.46c0.97,0.98,1.46,2.21,1.46,3.7v110.08c0,1.38-0.52,2.58-1.55,3.61
			c-1.03,1.03-2.29,1.55-3.78,1.55c-1.61,0-2.92-0.52-3.96-1.55c-1.03-1.03-1.55-2.24-1.55-3.61v-99.59l3.1,0.34l-43.52,65.88
			c-0.34,0.69-0.86,1.23-1.55,1.63c-0.69,0.4-1.49,0.54-2.41,0.43c-0.8,0.12-1.58-0.03-2.32-0.43c-0.75-0.4-1.35-0.95-1.81-1.63
			l-43.69-66.56l3.27-2.24v102.17c0,1.38-0.49,2.58-1.46,3.61c-0.98,1.03-2.21,1.55-3.7,1.55c-1.49,0-2.7-0.52-3.61-1.55
			c-0.92-1.03-1.38-2.24-1.38-3.61V682.14c0-1.38,0.49-2.58,1.46-3.61C330.91,677.49,332.14,676.98,333.64,676.98z"/>
		<path class="st2" d="M472.44,676.98h63.12c1.38,0,2.58,0.49,3.61,1.46c1.03,0.98,1.55,2.21,1.55,3.7c0,1.49-0.52,2.7-1.55,3.61
			c-1.03,0.92-2.24,1.38-3.61,1.38H476.4l1.72-2.92v48.33l-1.89-2.24h51.6c1.38,0,2.58,0.52,3.61,1.55
			c1.03,1.03,1.55,2.24,1.55,3.61c0,1.49-0.52,2.7-1.55,3.61c-1.03,0.92-2.24,1.38-3.61,1.38h-51.26l1.55-1.72v49.54l-0.86-1.03
			h58.31c1.38,0,2.58,0.52,3.61,1.55c1.03,1.03,1.55,2.24,1.55,3.61c0,1.49-0.52,2.7-1.55,3.61c-1.03,0.92-2.24,1.38-3.61,1.38
			h-63.12c-1.38,0-2.58-0.52-3.61-1.55s-1.55-2.24-1.55-3.61V682.14c0-1.38,0.52-2.58,1.55-3.61
			C469.86,677.49,471.06,676.98,472.44,676.98z"/>
		<path class="st2" d="M649.6,676.98c1.49,0,2.67,0.46,3.53,1.38c0.86,0.92,1.29,2.06,1.29,3.44v110.08c0,1.72-0.54,3.07-1.63,4.04
			c-1.09,0.98-2.32,1.46-3.7,1.46c-0.69,0-1.44-0.14-2.24-0.43c-0.8-0.29-1.43-0.71-1.89-1.29l-76.71-103.37l2.92-1.55v102
			c0,1.26-0.46,2.35-1.38,3.27c-0.92,0.92-2.06,1.38-3.44,1.38c-1.49,0-2.67-0.46-3.53-1.38c-0.86-0.92-1.29-2-1.29-3.27v-110.6
			c0-1.72,0.52-3.01,1.55-3.87c1.03-0.86,2.18-1.29,3.44-1.29c0.69,0,1.43,0.15,2.24,0.43c0.8,0.29,1.43,0.77,1.89,1.46
			l75.85,102.17l-1.72,3.1V681.79c0-1.38,0.49-2.52,1.46-3.44C647.22,677.44,648.33,676.98,649.6,676.98z"/>
		<path class="st2" d="M716.51,799.1c-8.72,0.11-16.28-1.26-22.7-4.13c-6.42-2.86-12.56-7.17-18.4-12.9
			c-0.58-0.46-1.06-1.03-1.46-1.72c-0.4-0.69-0.6-1.49-0.6-2.41c0-1.38,0.54-2.64,1.63-3.78c1.09-1.15,2.32-1.72,3.7-1.72
			c1.38,0,2.64,0.58,3.78,1.72c4.47,4.82,9.55,8.49,15.22,11.01c5.68,2.52,11.78,3.78,18.32,3.78c5.5,0,10.41-0.86,14.71-2.58
			c4.3-1.72,7.71-4.18,10.23-7.4c2.52-3.21,3.78-6.94,3.78-11.18c0-5.27-1.43-9.55-4.3-12.81c-2.87-3.27-6.65-5.96-11.35-8.08
			c-4.7-2.12-9.92-4.04-15.65-5.76c-4.7-1.38-9.18-2.95-13.42-4.73c-4.24-1.78-8.03-3.96-11.35-6.54c-3.33-2.58-5.91-5.76-7.74-9.55
			c-1.83-3.78-2.75-8.37-2.75-13.76c0-6.08,1.6-11.46,4.82-16.17c3.21-4.7,7.77-8.4,13.67-11.09c5.9-2.69,12.75-4.04,20.55-4.04
			c6.76,0,13.27,1.15,19.52,3.44c6.25,2.29,11.21,5.68,14.88,10.15c1.72,1.84,2.58,3.5,2.58,4.99c0,1.15-0.58,2.29-1.72,3.44
			c-1.15,1.15-2.41,1.72-3.78,1.72c-1.15,0-2.12-0.4-2.92-1.2c-1.95-2.41-4.42-4.56-7.4-6.45c-2.98-1.89-6.28-3.35-9.89-4.39
			c-3.61-1.03-7.37-1.55-11.27-1.55c-5.39,0-10.23,0.83-14.53,2.49c-4.3,1.66-7.68,4.04-10.15,7.14c-2.47,3.1-3.7,6.82-3.7,11.18
			c0,4.82,1.38,8.77,4.13,11.87s6.36,5.65,10.84,7.65c4.47,2.01,9.23,3.87,14.28,5.59c4.93,1.38,9.66,2.95,14.19,4.73
			c4.53,1.78,8.54,3.99,12.04,6.62c3.5,2.64,6.25,5.96,8.26,9.98c2.01,4.01,3.01,9.06,3.01,15.14c0,5.85-1.66,11.12-4.99,15.82
			c-3.33,4.7-7.89,8.43-13.67,11.18C731.1,797.55,724.3,798.98,716.51,799.1z"/>
	</g>
	<g class="st1">
		<path class="st3" d="M411.87,378.16c-80.03,0-144.92-64.89-144.92-144.92c0-80.03,64.89-144.92,144.92-144.92
			c80.03,0,144.92,64.89,144.92,144.92C556.79,313.27,491.9,378.16,411.87,378.16z M411.87,72.22
			c-88.93,0-161.02,72.09-161.02,161.02s72.09,161.02,161.02,161.02s161.02-72.1,161.02-161.02S500.8,72.22,411.87,72.22z"/>
		<path class="st4" d="M341.86,243.56c0-6.96,5.64-12.6,12.6-12.6c6.96,0,12.6,5.64,12.6,12.6L354.45,263L341.86,243.56z"/>
		<path class="st4" d="M381.11,91.63l-0.03,0L381.11,91.63z"/>
		<path class="st4" d="M430.58,89.56c0.22,0.03,0.45,0.05,0.68,0.08C431.03,89.62,430.8,89.59,430.58,89.56z"/>
		<path class="st4" d="M422.87,88.78c0.75,0.06,1.5,0.1,2.24,0.17C424.37,88.88,423.62,88.84,422.87,88.78z"/>
		<path class="st4" d="M411.87,88.32c2.28,0,4.55,0.07,6.81,0.17C416.42,88.39,414.15,88.32,411.87,88.32z"/>
		<path class="st4" d="M403.05,88.61c0.35-0.02,0.7-0.06,1.05-0.08C403.75,88.55,403.4,88.59,403.05,88.61z"/>
		<path class="st4" d="M395.83,89.22c0.16-0.02,0.32-0.04,0.48-0.06C396.15,89.18,395.99,89.21,395.83,89.22z"/>
		
			<rect x="403.04" y="130.63" transform="matrix(0.7071 -0.7071 0.7071 0.7071 -17.4924 369.7111)" class="st4" width="68.99" height="150.68"/>
		<circle class="st4" cx="354.46" cy="242.48" r="5.84"/>
		<path class="st3" d="M444.82,92.13l-0.02,0L444.82,92.13z"/>
		<path class="st3" d="M511.8,338.13L511.8,338.13L511.8,338.13z"/>
		<path class="st3" d="M308.55,334.83L308.55,334.83L308.55,334.83z"/>
		<path class="st3" d="M551.69,271.34v-0.01V271.34z"/>
		<polygon class="st3" points="554.04,205.12 554.03,205.09 554.04,205.13 		"/>
		<polygon class="st3" points="552.37,197.68 552.37,197.68 552.38,197.68 		"/>
		<path class="st3" d="M553.48,264.03L553.48,264.03c-0.01,0.03-0.01,0.05-0.02,0.08C553.46,264.08,553.47,264.05,553.48,264.03z"/>
		<polygon class="st3" points="306.98,133.31 306.98,133.31 306.98,133.3 		"/>
		<path class="st3" d="M439.98,375.41l0.03,0L439.98,375.41z"/>
		<path class="st3" d="M381.08,91.63c-0.03,0.01-0.05,0.01-0.07,0.02C381.03,91.64,381.05,91.63,381.08,91.63z"/>
		<path class="st3" d="M354.46,248.31c-3.22,0-5.84-2.61-5.84-5.84c0-3.22,2.61-5.83,5.84-5.83c3.22,0,5.83,2.61,5.83,5.83
			C360.29,245.7,357.67,248.31,354.46,248.31z M354.45,230.96c-6.95,0-12.6,5.64-12.6,12.6l12.6,19.44l12.6-19.44
			C367.05,236.61,361.41,230.96,354.45,230.96z"/>
		<path class="st3" d="M425.11,88.95c1.83,0.17,3.66,0.38,5.47,0.62C428.77,89.33,426.95,89.12,425.11,88.95z"/>
		<path class="st3" d="M418.68,88.49c1.41,0.07,2.8,0.18,4.19,0.28C421.47,88.68,420.08,88.56,418.68,88.49z"/>
		<path class="st3" d="M396.31,89.16c2.23-0.24,4.49-0.41,6.75-0.55C400.79,88.75,398.54,88.93,396.31,89.16z"/>
		<path class="st3" d="M381.11,91.63c4.82-1.04,9.74-1.85,14.72-2.4C390.84,89.77,385.93,90.58,381.11,91.63z"/>
		<path class="st3" d="M404.1,88.53c2.57-0.14,5.16-0.21,7.77-0.21C409.26,88.32,406.67,88.4,404.1,88.53z"/>
		<path class="st3" d="M551.69,271.33c0.65-2.38,1.24-4.79,1.77-7.22C552.93,266.54,552.34,268.95,551.69,271.33z"/>
		<path class="st3" d="M444.8,92.13c-4.44-1.03-8.96-1.86-13.55-2.48c2.01,0.27,4.01,0.58,6,0.93
			C439.79,91.03,442.31,91.55,444.8,92.13z"/>
		<path class="st3" d="M552.38,197.68c0.62,2.44,1.16,4.91,1.66,7.41C553.54,202.6,552.99,200.13,552.38,197.68z"/>
		
			<rect x="408.03" y="135.12" transform="matrix(0.7071 -0.7071 0.7071 0.7071 -17.1772 369.7957)" class="st4" width="59.53" height="141.02"/>
		<path class="st3" d="M359.18,300.46l61.28,61.28c6.79-0.45,13.43-1.42,19.89-2.89l-69.78-69.78L359.18,300.46z"/>
		<path class="st3" d="M355.5,165.43l-28.8-28.8c-4.03,3.56-7.83,7.36-11.39,11.38l28.8,28.8L355.5,165.43z"/>
		<path class="st3" d="M471.55,294.36l-11.38-11.39l6.44-6.44l-99.72-99.71l-11.39,11.39l46.58,46.58l5.75-5.75l11.38,11.39
			l-5.75,5.74l83.62,83.62c4.03-3.56,7.83-7.36,11.38-11.39l-30.48-30.47L471.55,294.36z"/>
		<path class="st3" d="M408.99,111.95l-7.11-7.11c-6.73,0.52-13.31,1.55-19.72,3.06l15.44,15.43L408.99,111.95z"/>
		
			<rect x="456.47" y="108.38" transform="matrix(0.7071 -0.7072 0.7072 0.7071 9.5722 380.8961)" class="st3" width="16.1" height="141.03"/>
		<path class="st3" d="M531.47,234.44l-11.39,11.39l17.11,17.11c1.51-6.4,2.54-12.98,3.06-19.71L531.47,234.44z"/>
		<path class="st3" d="M353.89,295.18l11.39-11.39l5.29,5.29l42.9-42.9l-11.39-11.38l-85.32,85.32c3.62,3.96,7.51,7.69,11.6,11.17
			l30.82-30.82L353.89,295.18z"/>
		
			<rect x="354.18" y="288.39" transform="matrix(0.7071 -0.7071 0.7071 0.7071 -100.471 341.6923)" class="st3" width="16.11" height="7.48"/>
		
			<rect x="406.58" y="229.56" transform="matrix(0.7072 -0.707 0.707 0.7072 -47.7553 359.8976)" class="st3" width="8.13" height="16.1"/>
		
			<rect x="463.58" y="253.13" transform="matrix(0.7072 -0.707 0.707 0.7072 -40.211 425.2722)" class="st3" width="59.53" height="16.1"/>
		<path class="st3" d="M531.47,234.44l8.96-8.96c-0.41-6.82-1.35-13.5-2.78-20l-17.56,17.56L531.47,234.44z"/>
		
			<rect x="464.53" y="277.4" transform="matrix(0.7072 -0.707 0.707 0.7072 -64.4751 415.2239)" class="st3" width="9.11" height="16.1"/>
		
			<rect x="512.04" y="226.39" transform="matrix(0.7072 -0.707 0.707 0.7072 -13.4742 436.3528)" class="st3" width="16.11" height="16.1"/>
		<path class="st3" d="M291.84,229.1c3.15-3.15,8.24-3.15,11.38,0c3.14,3.15,3.15,8.24,0,11.38c-0.39,0.39-0.81,0.73-1.25,1.02
			l0.12,0.12l53.41-53.41l-11.39-11.39L291.84,229.1z"/>
		<path class="st3" d="M290.7,230.23l0.12,0.12c0.29-0.44,0.63-0.86,1.02-1.25L290.7,230.23z"/>
		
			<rect x="352.48" y="142.03" transform="matrix(0.7071 -0.7071 0.7071 0.7071 5.8332 314.2434)" class="st3" width="59.53" height="16.1"/>
		<path class="st3" d="M420.37,123.34l16.47-16.47c-6.64-1.31-13.48-2.09-20.44-2.33l-7.42,7.41L420.37,123.34z"/>
		
			<rect x="347.45" y="168.77" transform="matrix(0.7071 -0.7071 0.7071 0.7071 -20.9093 303.1684)" class="st3" width="16.1" height="16.1"/>
		
			<rect x="400.94" y="115.3" transform="matrix(0.7072 -0.7071 0.7071 0.7072 32.5562 325.2997)" class="st3" width="16.1" height="16.1"/>
		<path class="st3" d="M291.84,240.48c2.75,2.75,7.01,3.09,10.13,1.02l-11.16-11.15C288.75,233.48,289.09,237.73,291.84,240.48z"/>
		<path class="st3" d="M303.23,229.1c-3.15-3.15-8.24-3.15-11.38,0c-0.39,0.39-0.73,0.81-1.02,1.25l11.16,11.15
			c0.44-0.29,0.86-0.63,1.25-1.02C306.37,237.33,306.37,232.24,303.23,229.1z"/>
	</g>
</g>
<g id="Calque_2">
	<g>
		<g>
			<defs>
				<rect id="SVGID_1_" x="11.94" y="19.69" width="814.09" height="814.09"/>
			</defs>
			<clipPath id="SVGID_2_">
				<use xlink:href="#SVGID_1_"  style="overflow:visible;"/>
			</clipPath>
			<path class="st5" d="M131.44,483.9c1.72,1.73,3.45,4.02,4.02,6.89l28.15,95.94l28.15-95.94c0.57-2.87,2.3-5.16,4.02-6.89
				c1.72-1.72,4.02-2.29,7.47-2.29c2.87,0,5.75,1.15,8.04,2.87c2.3,1.72,3.45,4.02,4.02,6.89l19.53,119.5l-15.51,2.87l-16.09-112.03
				l-31.6,106.86h-15.51l-31.6-106.86l-15.51,105.13c-0.57,2.3-1.15,4.03-2.87,5.18c-1.72,1.14-3.45,1.72-5.75,1.72
				s-4.02-0.58-5.17-1.72c-1.72-1.15-2.3-2.87-2.3-5.18v-2.87l18.96-112.6c0.57-2.87,1.72-5.18,4.02-6.89
				c2.3-1.72,4.6-2.87,8.04-2.87C127.42,481.6,129.72,482.76,131.44,483.9"/>
		</g>
		<g>
			<defs>
				<rect id="SVGID_3_" x="11.94" y="19.69" width="814.09" height="814.09"/>
			</defs>
			<clipPath id="SVGID_4_">
				<use xlink:href="#SVGID_3_"  style="overflow:visible;"/>
			</clipPath>
			<path class="st6" d="M303.22,483.9c1.72,1.73,2.87,4.02,4.02,7.47l45.39,118.35l-15.51,4.6l-11.49-29.87h-59.17l-9.19,24.13
				c-0.57,1.72-1.72,2.87-2.87,4.02c-1.15,1.14-2.87,1.72-4.6,1.72c-2.3,0-4.02-0.58-5.17-2.29c-1.15-1.73-2.3-3.45-2.3-5.17
				c0-1.15,0.57-2.87,1.15-4.6l41.36-111.46c1.15-2.29,2.3-4.6,4.02-6.89c1.72-1.72,4.02-2.87,6.89-2.87
				C299.2,481.59,301.5,482.76,303.22,483.9 M321.6,571.22l-25.28-70.67l-25.85,70.67H321.6z"/>
		</g>
		<g>
			<defs>
				<rect id="SVGID_5_" x="11.94" y="19.69" width="814.09" height="814.09"/>
			</defs>
			<clipPath id="SVGID_6_">
				<use xlink:href="#SVGID_5_"  style="overflow:visible;"/>
			</clipPath>
			<path class="st7" d="M362.97,489.07c0-2.3,0.57-4.02,2.3-5.17c1.72-1.14,3.45-2.29,5.17-2.29c2.3,0,4.02,0.57,5.75,2.29
				c1.72,1.73,2.3,3.45,2.3,5.75v48.26l59.17-55.73l10.92,10.34l-55.73,52.28l58.6,56.87c1.72,1.73,2.87,4.02,2.87,6.33
				c0,2.29-0.57,3.45-2.3,5.16c-1.72,1.73-2.87,1.73-5.16,1.73c-2.3,0-4.6-1.15-6.33-2.87l-62.05-61.47v62.05h-15.51V489.07z"/>
		</g>
		<g>
			<defs>
				<rect id="SVGID_7_" x="11.94" y="19.69" width="814.09" height="814.09"/>
			</defs>
			<clipPath id="SVGID_8_">
				<use xlink:href="#SVGID_7_"  style="overflow:visible;"/>
			</clipPath>
			<path class="st8" d="M468.11,489.64c0-2.29,0.57-4.02,2.29-5.75c1.72-1.72,3.45-2.29,5.75-2.29c2.3,0,4.02,0.57,5.17,2.29
				c1.15,1.73,2.29,3.45,2.29,5.75v122.94h-15.5V489.64z"/>
		</g>
		<g>
			<defs>
				<rect id="SVGID_9_" x="11.94" y="19.69" width="814.09" height="814.09"/>
			</defs>
			<clipPath id="SVGID_10_">
				<use xlink:href="#SVGID_9_"  style="overflow:visible;"/>
			</clipPath>
			<path class="st9" d="M511.77,489.64c0-2.29,0.57-4.02,2.3-5.75c1.72-1.72,3.45-2.29,5.75-2.29c2.87,0,5.16,1.15,6.32,3.45
				l69.52,101.12v-96.53c0-2.29,0.58-4.02,2.3-5.75c1.72-1.72,3.45-2.29,5.17-2.29c2.29,0,4.02,0.57,5.75,2.29
				c1.72,1.73,2.29,3.45,2.29,5.75v117.19c0,2.3-0.57,4.03-2.29,5.75c-1.73,1.73-3.45,2.3-5.75,2.3c-2.87,0-5.17-1.15-6.33-3.45
				l-69.51-101.68v102.83h-15.51V489.64z"/>
		</g>
		<g>
			<defs>
				<rect id="SVGID_11_" x="11.94" y="19.69" width="814.09" height="814.09"/>
			</defs>
			<clipPath id="SVGID_12_">
				<use xlink:href="#SVGID_11_"  style="overflow:visible;"/>
			</clipPath>
			<path class="st10" d="M686.42,483.9c1.72,1.73,2.87,4.02,4.02,7.47l45.39,118.35l-15.51,4.6l-11.49-29.87h-59.17l-9.19,24.13
				c-0.58,1.72-1.73,2.87-2.87,4.02c-1.15,1.14-2.87,1.72-4.6,1.72c-2.29,0-4.02-0.58-5.16-2.29c-1.15-1.73-2.3-3.45-2.3-5.17
				c0-1.15,0.58-2.87,1.15-4.6l41.36-111.46c1.15-2.29,2.29-4.6,4.02-6.89c1.72-1.72,4.02-2.87,6.89-2.87
				C682.4,481.59,684.7,482.76,686.42,483.9 M704.8,571.22l-25.28-70.67l-25.85,70.67H704.8z"/>
		</g>
		<g>
			<defs>
				<rect id="SVGID_13_" x="11.94" y="19.69" width="814.09" height="814.09"/>
			</defs>
			<clipPath id="SVGID_14_">
				<use xlink:href="#SVGID_13_"  style="overflow:visible;"/>
			</clipPath>
			<path class="st11" d="M168.78,765.98c-1.72,2.29-3.45,4.6-5.75,6.32c-2.3,2.3-4.6,3.45-7.47,5.17c-2.87,1.15-5.75,2.29-8.62,3.45
				c-2.87,1.15-6.32,1.72-9.19,1.72c-2.87,0.59-6.32,0.59-8.62,0.59c-10.92,0-20.68-2.3-29.87-6.89
				c-8.62-4.6-16.09-11.49-21.26-20.11c-4.02-5.75-6.89-12.06-9.19-18.96s-3.45-13.79-3.45-20.69c0-8.62,1.15-16.65,4.02-24.12
				c2.87-7.48,6.32-14.36,11.49-20.11c4.6-5.75,10.92-10.92,17.81-14.94c6.89-4.02,14.36-6.32,22.98-6.89h4.02
				c3.45,0,6.89,0.57,10.92,1.14c4.02,0.58,8.04,1.73,11.49,3.45c4.02,1.72,7.47,2.87,10.92,5.16c3.45,1.73,6.32,4.02,8.62,6.33
				c0.57,0.57,1.15,1.14,1.72,2.29c0.57,0.58,0,1.73,0,2.3l-9.19,18.96c-0.57,1.15-2.3,1.72-3.45,2.3c-1.72,0-2.87,0-4.6-0.58
				c-3.45-2.87-6.89-5.16-10.92-6.89c-3.45-1.73-7.47-2.87-11.49-2.87c-1.15,0-2.3,0-4.02,0.57c-3.45,0.57-6.89,2.3-9.77,4.02
				c-2.87,2.29-5.17,4.6-7.47,7.47c-1.72,2.87-3.45,6.32-4.6,10.34c-1.15,4.02-1.72,8.04-1.72,12.07c0,4.6,0.57,8.62,1.72,12.63
				c1.15,4.02,2.3,8.04,4.6,10.92c2.3,3.45,4.6,5.75,8.04,7.47c3.45,1.72,6.89,2.87,10.92,2.87c2.87,0,6.32-0.57,8.62-1.72
				c2.87-1.15,5.17-2.3,7.47-2.87c1.72-1.15,4.02-1.72,5.75-2.3c1.72-0.57,4.02-1.14,5.75-1.14c4.6,0,8.62,1.14,11.49,4.02
				c3.45,2.87,4.6,6.33,4.6,10.92C171.08,761.39,170.51,763.69,168.78,765.98"/>
		</g>
		<g>
			<defs>
				<rect id="SVGID_15_" x="11.94" y="19.69" width="814.09" height="814.09"/>
			</defs>
			<clipPath id="SVGID_16_">
				<use xlink:href="#SVGID_15_"  style="overflow:visible;"/>
			</clipPath>
			<path class="st12" d="M294.6,742.43c-2.87,8.04-7.47,14.94-13.21,21.26c-5.75,6.31-12.06,10.92-19.53,14.36
				c-7.47,3.45-16.09,5.17-25.28,5.17c-9.19,0-17.81-1.72-25.28-5.17c-7.47-3.45-14.36-8.62-19.53-14.36
				c-5.75-6.32-9.77-13.21-13.21-21.26c-2.87-8.04-4.6-16.66-4.6-25.27c0-9.2,1.72-17.24,4.6-25.28
				c2.87-8.04,7.47-14.94,13.21-21.26s12.06-10.91,19.53-14.36c7.47-3.45,16.09-5.16,25.28-5.16s17.24,1.72,25.28,5.16
				c7.47,3.45,14.36,8.62,19.53,14.36c5.75,6.33,9.77,13.22,13.21,21.26c2.87,8.04,4.6,16.66,4.6,25.28
				C299.2,725.77,297.48,734.39,294.6,742.43 M260.13,704.51c-1.15-4.6-2.3-8.04-4.6-11.49c-2.3-3.45-4.6-6.32-8.04-8.04
				c-3.45-2.29-6.89-2.87-11.49-2.87s-8.04,1.15-10.92,2.87c-2.87,2.3-5.75,4.6-7.47,8.04c-1.72,3.45-3.45,6.89-4.6,11.49
				c-1.15,4.02-1.72,8.62-1.72,12.64c0,4.6,0.57,8.62,1.72,12.64c1.15,4.02,2.3,8.04,4.6,11.49c2.3,3.45,4.6,6.32,7.47,8.04
				c2.87,2.3,6.89,2.87,10.92,2.87s8.04-1.15,10.92-2.87c3.45-1.72,5.75-4.6,8.04-8.04c2.3-3.45,4.02-6.89,4.6-10.92
				c1.15-4.02,1.72-8.62,1.72-12.64C261.86,713.13,261.28,709.11,260.13,704.51"/>
		</g>
		<g>
			<defs>
				<rect id="SVGID_17_" x="11.94" y="19.69" width="814.09" height="814.09"/>
			</defs>
			<clipPath id="SVGID_18_">
				<use xlink:href="#SVGID_17_"  style="overflow:visible;"/>
			</clipPath>
			<path class="st13" d="M391.12,786.09c-1.15,0.57-2.3,0.57-4.02,0.57c-1.15,0-2.3-0.57-3.45-1.14l-32.17-42.51v23.55
				c0,2.3-0.57,4.6-1.15,6.9c-1.15,2.3-2.3,4.02-4.02,5.17c-1.72,1.72-3.45,2.87-5.75,3.45c-2.3,1.15-4.6,1.15-6.89,1.15
				s-4.6-0.58-6.89-1.15c-2.3-1.15-4.02-2.3-5.75-4.03c-1.72-1.72-2.87-3.44-4.02-5.75c-1.15-2.29-1.72-4.59-1.72-6.89v-110.3
				c0-1.15,0.57-2.3,1.72-2.87c1.15-0.59,2.3-1.15,4.02-0.59h2.87h4.02h5.17h6.32h9.77h8.62h4.6h2.87c5.75,1.15,11.49,2.3,16.66,4.6
				c5.17,2.3,9.77,4.6,13.79,8.04c4.02,3.45,6.89,7.46,9.19,12.64c2.3,5.16,3.45,10.91,3.45,17.24c0,4.6-0.57,8.62-2.3,12.06
				c-1.15,3.46-3.45,6.9-5.75,9.77s-5.17,5.17-8.62,7.46c-3.45,2.3-6.89,3.46-10.34,4.6l29.87,37.35c1.15,1.14,1.72,1.72,1.15,2.87
				c-0.57,1.14-1.15,1.72-2.3,2.29L391.12,786.09z M371.01,686.71c-1.72-2.3-3.45-3.46-6.32-3.46h-12.64v21.26h13.21
				c2.3,0,4.02-1.15,5.75-2.87c1.72-2.3,2.3-4.6,2.3-7.47C373.31,691.3,372.74,688.43,371.01,686.71"/>
		</g>
		<g>
			<defs>
				<rect id="SVGID_19_" x="11.94" y="19.69" width="814.09" height="814.09"/>
			</defs>
			<clipPath id="SVGID_20_">
				<use xlink:href="#SVGID_19_"  style="overflow:visible;"/>
			</clipPath>
			<path class="st14" d="M523.83,714.28c-2.29,5.16-5.16,9.77-9.19,13.78c-4.02,4.02-8.62,6.89-13.79,9.2
				c-5.16,2.29-10.91,3.45-17.24,4.02c-1.14,0-4.02,0.58-7.47,0.58h-9.77v0.57v8.62c0,3.45,0,6.33-0.57,9.77
				c0,3.45-0.57,6.32-1.15,8.62c-0.57,2.87-1.15,4.6-1.72,5.75c-1.15,2.3-3.45,4.02-5.75,5.75c-2.3,1.72-5.17,2.3-8.62,2.3
				c-2.3,0-5.17-0.58-6.89-1.73c-2.29-1.14-4.02-2.29-5.75-4.02c-1.72-1.73-2.87-3.45-4.02-5.75c-1.14-2.3-1.14-4.6-1.14-6.89V655.1
				c0-1.15,0.57-1.73,1.72-2.87c1.15-0.58,2.29-1.15,3.45-1.15h26.42c5.16,0,10.91,0,16.09,0.57c5.16,0.58,10.34,1.15,15.51,2.87
				c8.04,1.72,15.51,5.75,21.25,11.49c5.75,5.75,9.77,13.21,10.92,22.41c0.57,2.29,0.57,4.6,0.57,7.47
				C526.71,703.36,525.56,709.11,523.83,714.28 M487.64,687.28c-2.29-2.3-4.6-4.02-8.04-4.02h-12.64v27h12.64
				c2.87,0,5.75-1.15,8.04-4.02c2.3-2.87,3.45-5.75,3.45-9.19C491.09,693.02,489.94,690.15,487.64,687.28"/>
		</g>
		<g>
			<defs>
				<rect id="SVGID_21_" x="11.94" y="19.69" width="814.09" height="814.09"/>
			</defs>
			<clipPath id="SVGID_22_">
				<use xlink:href="#SVGID_21_"  style="overflow:visible;"/>
			</clipPath>
			<path class="st15" d="M650.23,751.62c-2.87,6.89-6.89,12.06-12.06,17.24c-5.17,4.6-10.92,8.03-17.81,10.9
				c-6.89,2.3-14.36,3.46-22.41,3.46c-8.04,0-15.51-1.15-22.41-3.46c-6.89-2.29-13.21-5.75-17.81-10.9
				c-4.6-5.17-9.19-10.34-12.06-17.24c-2.87-6.89-4.6-14.36-4.6-22.98V655.1c0-1.15,0.58-1.74,1.73-2.87
				c1.15-0.57,2.3-1.15,4.02-1.15h25.85c1.15,0,2.87,0.57,3.45,1.15c1.15,0.57,1.72,1.72,1.72,2.87v74.11
				c0,6.89,1.72,12.64,5.75,16.66c4.02,4.02,8.62,6.32,14.94,6.32c6.33,0,10.92-2.29,14.94-6.32c3.45-4.02,5.75-9.77,5.75-16.66
				v-61.48c0-2.29,0.57-4.59,1.15-6.88c1.14-2.3,2.29-4.02,4.02-5.75c1.73-1.74,3.45-2.87,5.75-4.02c2.3-1.15,4.6-1.15,6.89-1.15
				c2.3,0,5.17,0.57,6.89,1.72c2.3,1.15,4.02,2.3,5.75,4.02s2.87,3.44,4.02,5.75c1.15,2.3,1.15,4.6,1.15,6.89v60.9
				C654.25,737.83,653.1,745.3,650.23,751.62"/>
		</g>
		<g>
			<defs>
				<rect id="SVGID_23_" x="11.94" y="19.69" width="814.09" height="814.09"/>
			</defs>
			<clipPath id="SVGID_24_">
				<use xlink:href="#SVGID_23_"  style="overflow:visible;"/>
			</clipPath>
			<path class="st16" d="M734.68,703.94c5.17,1.72,9.77,4.6,14.36,7.47s8.04,6.89,10.92,11.49c2.87,4.6,4.02,9.77,4.02,16.66
				c0,4.6-0.58,8.62-2.3,13.22c-1.72,4.02-3.45,8.03-6.32,12.06c-4.6,6.33-10.92,11.49-17.82,14.36c-6.9,2.87-14.36,4.59-22.4,4.59
				c-2.87,0-6.33-0.57-10.35-1.14c-4.02-0.58-8.04-1.74-12.63-2.87c-4.02-1.15-8.62-2.3-12.07-4.02c-4.02-1.15-7.47-2.87-9.77-4.02
				c-1.14,0-1.72-0.57-2.29-1.72c-0.58-1.15-0.58-1.72-0.58-2.3c0.58-2.87,1.15-5.75,1.73-8.04c0.57-2.3,1.14-4.02,1.72-6.33
				c0-1.15,0.57-1.72,0.57-2.29c0-0.58,0.58-1.15,0.58-1.74c0-0.57,0.57-1.14,0.57-1.72c0-0.57,0.57-1.15,0.57-1.72v-1.15v0.58
				v-0.59c0-1.72,0.58-2.29,2.3-3.45c1.72-0.59,3.45-0.59,5.17,0c0.57,0,1.72,0.57,2.87,1.15c1.14,0.57,2.87,1.14,4.6,1.72
				c1.72,0.57,3.45,1.15,4.6,1.72c1.72,0.57,2.87,1.15,4.02,1.15c3.45,1.15,6.89,2.29,9.77,3.45c2.87,1.15,6.32,1.72,8.62,1.72
				c1.14,0,2.87-0.57,4.02-1.14c1.15-0.58,2.87-1.15,3.45-2.3c1.15-1.15,1.72-2.3,2.87-3.45c1.15-1.15,1.15-2.87,1.15-4.61
				c0-1.14-0.58-2.29-1.15-2.87c-0.58-0.57-1.72-1.72-2.87-2.29c-1.15-0.59-2.3-1.15-3.45-1.72c-1.14-0.58-2.29-1.15-2.87-1.15
				l-8.62-3.46c-4.6-1.72-9.19-3.44-13.21-5.16c-4.6-1.72-8.62-4.02-12.06-6.89c-3.45-2.87-6.33-6.32-8.62-10.34
				c-2.3-4.02-3.45-9.2-3.45-15.51c0-6.32,1.15-12.06,4.02-17.24c2.87-5.18,6.33-9.19,10.92-12.64c4.6-3.45,9.77-5.75,14.94-8.04
				c5.75-1.74,11.49-2.87,17.24-2.87c2.87,0,6.89,0.57,10.92,1.14c4.02,0.59,8.62,2.3,12.64,4.03c4.02,1.72,7.47,4.02,10.34,6.89
				s4.02,6.31,4.02,10.34c0,4.02-1.73,7.46-4.6,10.92c-2.87,2.87-6.89,4.6-11.49,4.6c-2.29,0-4.6-0.57-6.89-1.15
				c-2.3-0.57-4.02-1.72-6.33-2.29c-2.29-0.58-4.02-1.74-6.32-2.3c-2.3-0.57-4.6-1.15-6.89-1.15c-1.72,0-3.45,0.58-4.6,1.72
				c-1.72,1.15-2.3,2.87-2.3,5.18c0,1.15,0.58,2.3,1.15,3.44c0.57,1.15,1.72,1.73,2.3,2.3c1.14,0.57,2.29,1.15,3.45,1.72
				c1.15,0.58,2.3,1.15,3.45,1.15c0.58,0.57,1.15,0.57,1.73,0.57l-0.57-0.58h0.58C724.34,699.92,729.51,701.64,734.68,703.94"/>
		</g>
		<g>
			<defs>
				<rect id="SVGID_25_" x="11.94" y="19.69" width="814.09" height="814.09"/>
			</defs>
			<clipPath id="SVGID_26_">
				<use xlink:href="#SVGID_25_"  style="overflow:visible;"/>
			</clipPath>
			<path class="st17" d="M580.14,340.84c-13.79-10.92-27-21.83-40.22-33.32c-5.75-4.6-5.75-5.17-2.3-11.49
				c8.04-14.36,13.79-28.73,17.24-44.81c5.17-24.13,4.6-48.26-3.45-72.39c-2.87-8.04-6.33-14.94-10.92-21.83
				c-1.15-2.3-2.3-4.02,0-6.32c6.32-6.32,12.06-13.21,18.96-20.11c9.77-9.77,19.53-19.53,28.73-29.87
				c9.77-11.49,7.47-25.28-5.16-32.75c-4.02-2.3-7.47-4.02-11.49-6.32c-9.77-5.17-20.11-4.6-29.87-0.57
				c-8.04,3.45-13.79,9.19-19.53,15.51l-33.9,32.75c-2.3,1.15-2.87,1.72-4.6,1.72c-2.29,0-4.02-0.57-6.32-1.15
				c-84.45-13.21-132.13,36.19-132.13,36.19c-1.72,2.3-4.03,1.72-6.32,0c-5.75-4.6-12.07-9.19-17.82-13.79
				c-9.19-7.47-16.08-8.62-26.42-2.3c-6.32,4.02-10.34,10.34-15.51,15.51c-2.3,2.87-4.6,5.75-6.32,9.19
				c-5.17,8.62-4.6,17.81,2.29,25.28c6.33,6.32,12.65,12.06,18.97,18.38c2.3,2.3,2.87,4.6,1.14,6.89
				c-2.29,4.02-4.02,8.04-5.75,11.49c-14.94,33.9-18.96,68.37-6.89,103.99c1.72,5.17,0.57,8.62-2.87,12.06
				c-10.35,10.92-20.68,20.11-28.73,31.6c-7.47,9.77-7.47,21.26-0.57,31.02c2.3,3.45,5.17,6.89,8.04,10.34
				c7.47,8.62,19.53,9.19,28.15,1.15c9.2-8.04,17.24-17.24,25.85-25.28c10.35-9.77,6.9-9.77,20.11-2.87
				c21.26,10.34,43.66,13.79,66.64,12.06c24.7-2.3,47.1-10.92,68.94-22.98c6.32-3.45,6.89-3.45,12.06,1.72l9.19,8.04
				c8.62,8.04,17.24,16.09,26.43,23.56c12.06,10.34,30.45,10.92,43.09,1.72c8.62-6.32,16.09-13.21,23.56-20.68
				C593.92,370.15,593.92,351.76,580.14,340.84 M459.49,298.91c-31.6,32.75-87.9,44.81-117.2,12.64
				c-31.02-33.32-20.11-75.84,2.3-106.28c22.4-30.45,78.13-63.2,121.22-29.87C506.6,206.98,491.09,266.16,459.49,298.91"/>
		</g>
	</g>
</g>
</svg>
