<?xml version="1.0" encoding="UTF-8"?>
<svg width="215px" height="60px" viewBox="0 0 215 60" version="1.1" xmlns="http://www.w3.org/2000/svg" xmlns:xlink="http://www.w3.org/1999/xlink">
    <title>logokit</title>
    <g id="Symbols" stroke="none" stroke-width="1" fill="none" fill-rule="evenodd">
        <g id="logokit-copy" transform="translate(0.000000, 0000000)">
            <g id="logokit" transform="translate(34.000000, 10.000000)">
                <rect id="Rectangle" fill="#005666" x="44.488806" y="0" width="54" height="40" rx="1"></rect>
                <g id="Locokit" transform="translate(0.488806, 5.000000)" fill-rule="nonzero">
                    <path d="M15.8380638,30.4770944 L15.8380638,27.5877076 L7.26742672,27.5877076 C5.67739902,27.5877076 4.59152644,27.2710624 3.97102782,26.6377722 C3.00149874,25.6086755 2.49734361,24.5795788 2.49734361,23.5109014 L2.49734361,0 L-0.48880597,0 L-0.48880597,22.9567724 C-0.48880597,27.8251914 2.73003059,30.4770944 7.26742672,30.4770944 L15.8380638,30.4770944 Z M38.0208893,27.6272882 C40.3477591,25.2524497 41.511194,22.4422241 41.511194,19.1966114 C41.511194,16.0301601 40.4253215,13.2990958 38.2923575,11.0034185 C36.1593935,8.66816063 33.5222744,7.48074136 30.4585625,7.36199944 C27.278507,7.24325751 24.5250444,8.39109613 22.2369558,10.7659347 C19.9488672,13.1011925 18.7854323,15.9509988 18.7854323,19.2361921 C18.7854323,22.4026434 19.8325237,25.1337078 21.9654877,27.429385 C24.0984516,29.7250622 26.7355708,30.9124815 29.7992827,30.9916428 C32.9793381,31.1103847 35.7328007,29.9625461 38.0208893,27.6272882 Z M29.8380638,28.0230946 C27.5499752,27.9439333 25.6496982,27.0335786 24.0596705,25.2524497 C22.4696428,23.4713208 21.7328007,21.3735467 21.7715818,18.9987082 C21.810363,16.5842891 22.6247674,14.5656763 24.2923575,12.8637087 C25.9599475,11.1617411 27.9377868,10.290967 30.3034378,10.3305476 C32.5527453,10.3305476 34.4530223,11.1617411 36.04305,12.8637087 C37.6330777,14.5656763 38.4862633,16.5842891 38.5638256,18.9591276 C38.6026068,21.452708 37.7882023,23.5900627 36.04305,25.4503529 C34.3366788,27.3106431 32.2812771,28.1418366 29.8380638,28.0230946 Z" id="Lo" fill="#005666"></path>
                    <path d="M58.3075081,30.9915437 C63.1416669,31.0315935 66.738281,28.8689092 69.0586772,24.4233914 L69.3680634,23.7425464 L66.0421621,23.7425464 C64.3405382,26.546026 61.7881024,27.9878156 58.3461814,28.0278653 C55.9484386,28.067915 53.860082,27.1868214 52.1197849,25.4246342 C50.3794877,23.6223972 49.4900025,21.4997627 49.4900025,19.0166807 C49.4900025,16.5335987 50.418161,14.3709144 52.3131512,12.5686775 C54.1307949,10.8064903 56.141805,9.9654464 58.4235279,10.0054961 C61.8267757,10.0855955 64.3405382,11.6074845 66.0034889,14.5311133 L69.3293901,14.5311133 L68.9039841,13.5298705 C68.0918455,11.6475342 66.6996077,10.1256452 64.8046175,8.88410425 C62.7936074,7.60251356 60.6279043,6.96171821 58.3075081,7.00176792 C55.0589534,7.04181763 52.2744779,8.28335861 49.9154085,10.6462915 C47.5950122,13.0092243 46.4734874,15.8127039 46.5121607,19.1368298 C46.550834,22.420906 47.7110321,25.2243856 50.0314283,27.507219 C52.3518245,29.7900525 55.0976267,30.951494 58.3075081,30.9915437 Z M92.0305997,27.5873185 C94.3509959,25.1843359 95.511194,22.3408066 95.511194,19.0567304 C95.511194,15.8527537 94.4283425,13.0893237 92.3013126,10.7664406 C90.1742827,8.40350774 87.5445004,7.20201647 84.489312,7.08186734 C81.3181039,6.96171821 78.5723017,8.12315978 76.2905787,10.5261423 C74.0088558,12.8890752 72.8486577,15.7726542 72.8486577,19.0967801 C72.8486577,22.3007568 73.892836,25.0641868 76.0198658,27.3870699 C78.1468957,29.7099531 80.7766781,30.9114443 83.8318664,30.9915437 C87.0030746,31.1116929 89.7488768,29.9502513 92.0305997,27.5873185 Z M83.8705397,27.9878156 C81.5888168,27.9077161 79.6938265,26.9865728 78.1082224,25.1843359 C76.5226184,23.382099 75.7878262,21.2594644 75.8264995,18.8564819 C75.8651728,16.4134496 76.6773114,14.3709144 78.3402621,12.6487769 C80.0032127,10.9266394 81.9755495,10.0455458 84.3346189,10.0855955 C86.5776686,10.0855955 88.4726589,10.9266394 90.0582629,12.6487769 C91.643867,14.3709144 92.494679,16.4134496 92.5720255,18.8164321 C92.6106988,21.3395638 91.7985601,23.5022481 90.0582629,25.3845845 C88.356639,27.2669208 86.3069557,28.1079647 83.8705397,27.9878156 Z" id="co" fill="#FFFFFF"></path>
                    <path d="M103.694034,30.5249042 L103.694034,26.2094508 L107.226209,21.6564496 L114.407006,30.5249042 L118.249703,30.5249042 L109.089335,19.3205619 L117.512215,7.95785441 L113.824779,7.95785441 L103.577588,21.4980843 L103.577588,0 L100.511194,0 L100.511194,30.5249042 L103.694034,30.5249042 Z M125.236424,5.26564496 L125.236424,0 L122.32529,0 L122.32529,5.26564496 L125.236424,5.26564496 Z M125.236424,30.5249042 L125.236424,7.95785441 L122.32529,7.95785441 L122.32529,30.5249042 L125.236424,30.5249042 Z M138.511194,31 L138.511194,28.5057471 C135.134279,28.5057471 133.426414,26.8429119 133.426414,23.4776501 L133.426414,10.7292465 L138.511194,10.7292465 L138.511194,7.91826309 L133.426414,7.91826309 L133.426414,0.0395913155 L130.43765,0.0395913155 L130.43765,23.9923372 C130.43765,28.6641124 133.115893,31 138.511194,31 Z" id="kit" fill="#005666"></path>
                </g>
                <polyline id="Line" fill="#FFFFFF" points="27.488806 28.25 46.4258151 28.25 81.488806 28.25"></polyline>
                <g id="Group" transform="translate(32.488806, 24.000000)">
                    <rect id="Rectangle-Copy" fill="#FFFFFF" x="30.511194" y="0" width="28" height="2" rx="1"></rect>
                    <rect id="Rectangle" fill="#FFFFFF" x="-0.48880597" y="4" width="53" height="2" rx="1"></rect>
                    <path d="M1.51119403,4 L12.511194,4 L12.511194,4 L12.511194,6 L1.51119403,6 C0.95890928,6 0.51119403,5.55228475 0.51119403,5 C0.51119403,4.44771525 0.95890928,4 1.51119403,4 Z" id="Rectangle" fill="#005666"></path>
                </g>
            </g>
        </g>
    </g>
</svg>
