<?xml version="1.0" encoding="UTF-8"?>
<svg width="207px" height="60px" viewBox="0 0 207 60" version="1.1" xmlns="http://www.w3.org/2000/svg" xmlns:xlink="http://www.w3.org/1999/xlink">
    <title>logokit</title>
    <g id="Symbols" stroke="none" stroke-width="1" fill="none" fill-rule="evenodd">
        <g id="logokit">
            <rect id="Rectangle" fill="#005666" x="65.7835821" y="0" width="80.2238806" height="60" rx="1"></rect>
            <g id="Locokit" transform="translate(0.000000, 7.394595)" fill-rule="nonzero">
                <path d="M24.3174627,45.0097297 L24.3174627,40.7481081 L11.5522388,40.7481081 C9.18402985,40.7481081 7.56671642,40.2810811 6.64253731,39.347027 C5.19850746,37.8291892 4.44761194,36.3113514 4.44761194,34.7351351 L4.44761194,0.0583783784 L0,0.0583783784 L0,33.9178378 C0,41.0983784 4.7941791,45.0097297 11.5522388,45.0097297 L24.3174627,45.0097297 Z M57.3568657,40.8064865 C60.8225373,37.3037838 62.5553731,33.1589189 62.5553731,28.3718919 C62.5553731,23.7016216 60.9380597,19.6735135 57.761194,16.2875676 C54.5843284,12.8432432 50.6565672,11.0918919 46.0934328,10.9167568 C41.3570149,10.7416216 37.2559701,12.4345946 33.8480597,15.9372973 C30.4401493,19.3816216 28.7073134,23.5848649 28.7073134,28.4302703 C28.7073134,33.1005405 30.2668657,37.1286486 33.4437313,40.5145946 C36.620597,43.9005405 40.5483582,45.6518919 45.1114925,45.7686486 C49.8479104,45.9437838 53.9489552,44.2508108 57.3568657,40.8064865 Z M45.1692537,41.3902703 C41.7613433,41.2735135 38.9310448,39.9308108 36.5628358,37.3037838 C34.1946269,34.6767568 33.0971642,31.5827027 33.1549254,28.08 C33.2126866,24.5189189 34.4256716,21.5416216 36.909403,19.0313514 C39.3931343,16.5210811 42.3389552,15.2367568 45.8623881,15.2951351 C49.2125373,15.2951351 52.0428358,16.5210811 54.4110448,19.0313514 C56.7792537,21.5416216 58.05,24.5189189 58.1655224,28.0216216 C58.2232836,31.6994595 57.0102985,34.8518919 54.4110448,37.5956757 C51.8695522,40.3394595 48.808209,41.5654054 45.1692537,41.3902703 Z" id="Lo" fill="#005666"></path>
                <path d="M87.508209,45.7686486 C94.7283582,45.827027 100.100149,42.6745946 103.565821,36.1945946 L104.02791,35.2021622 L99.0604478,35.2021622 C96.5189552,39.2886486 92.7067164,41.3902703 87.5659701,41.4486486 C83.9847761,41.507027 80.8656716,40.2227027 78.2664179,37.6540541 C75.6671642,35.027027 74.3386567,31.932973 74.3386567,28.3135135 C74.3386567,24.6940541 75.7249254,21.5416216 78.5552239,18.9145946 C81.27,16.3459459 84.2735821,15.12 87.6814925,15.1783784 C92.7644776,15.2951351 96.5189552,17.5135135 99.0026866,21.7751351 L103.970149,21.7751351 L103.334776,20.3156757 C102.121791,17.5718919 100.042388,15.3535135 97.2120896,13.5437838 C94.2085075,11.6756757 90.9738806,10.7416216 87.508209,10.8 C82.6562687,10.8583784 78.4974627,12.6681081 74.9740299,16.1124324 C71.5083582,19.5567568 69.8332836,23.6432432 69.8910448,28.4886486 C69.948806,33.2756757 71.6816418,37.3621622 75.1473134,40.6897297 C78.6129851,44.0172973 82.7140299,45.7102703 87.508209,45.7686486 Z M137.87597,40.8064865 C141.341642,37.3037838 143.074478,33.1589189 143.074478,28.3718919 C143.074478,23.7016216 141.457164,19.6735135 138.280299,16.2875676 C135.103433,12.8432432 131.175672,11.0918919 126.612537,10.9167568 C121.876119,10.7416216 117.775075,12.4345946 114.367164,15.9372973 C110.959254,19.3816216 109.226418,23.5848649 109.226418,28.4302703 C109.226418,33.1005405 110.78597,37.1286486 113.962836,40.5145946 C117.139701,43.9005405 121.067463,45.6518919 125.630597,45.7686486 C130.367015,45.9437838 134.46806,44.2508108 137.87597,40.8064865 Z M125.688358,41.3902703 C122.280448,41.2735135 119.450149,39.9308108 117.08194,37.3037838 C114.713731,34.6767568 113.616269,31.5827027 113.67403,28.08 C113.731791,24.5189189 114.944776,21.5416216 117.428507,19.0313514 C119.912239,16.5210811 122.85806,15.2367568 126.381493,15.2951351 C129.731642,15.2951351 132.56194,16.5210811 134.930149,19.0313514 C137.298358,21.5416216 138.569104,24.5189189 138.684627,28.0216216 C138.742388,31.6994595 137.529403,34.8518919 134.930149,37.5956757 C132.388657,40.3394595 129.327313,41.5654054 125.688358,41.3902703 Z" id="co" fill="#FFFFFF"></path>
                <path d="M155.146567,45.0097297 L155.146567,38.6464865 L160.402836,31.932973 L171.088657,45.0097297 L176.807015,45.0097297 L163.175373,28.4886486 L175.709552,11.7340541 L170.222239,11.7340541 L154.973284,31.6994595 L154.973284,0 L150.410149,0 L150.410149,45.0097297 L155.146567,45.0097297 Z M187.20403,7.76432432 L187.20403,0 L182.87194,0 L182.87194,7.76432432 L187.20403,7.76432432 Z M187.20403,45.0097297 L187.20403,11.7340541 L182.87194,11.7340541 L182.87194,45.0097297 L187.20403,45.0097297 Z M206.958358,45.7102703 L206.958358,42.0324324 C201.933134,42.0324324 199.391642,39.5805405 199.391642,34.6183784 L199.391642,15.8205405 L206.958358,15.8205405 L206.958358,11.6756757 L199.391642,11.6756757 L199.391642,0.0583783784 L194.94403,0.0583783784 L194.94403,35.3772973 C194.94403,42.2659459 198.929552,45.7102703 206.958358,45.7102703 Z" id="kit" fill="#005666"></path>
            </g>
            <polyline id="Line" fill="#FFFFFF" points="41 42.5 69.4055136 42.5 122 42.5"></polyline>
            <g id="Group" transform="translate(47.000000, 35.000000)">
                <rect id="Rectangle-Copy" fill="#FFFFFF" x="46" y="0" width="42" height="3" rx="1.5"></rect>
                <rect id="Rectangle" fill="#FFFFFF" x="0" y="7" width="80" height="3" rx="1.5"></rect>
                <path d="M1.5,7 L18.7835821,7 L18.7835821,7 L18.7835821,10 L1.5,10 C0.671572875,10 3.23497668e-16,9.32842712 0,8.5 C1.20591542e-16,7.67157288 0.671572875,7 1.5,7 Z" id="Rectangle" fill="#005666"></path>
            </g>
        </g>
    </g>
</svg>
