<?xml version="1.0" encoding="UTF-8"?>
<svg width="129px" height="37px" viewBox="0 0 129 37" version="1.1" xmlns="http://www.w3.org/2000/svg" xmlns:xlink="http://www.w3.org/1999/xlink">
    <title>Symbols</title>
    <g id="Symbols" stroke="none" stroke-width="1" fill="none" fill-rule="evenodd">
        <g id="logokit">
            <rect id="Rectangle" fill="#005666" x="41" y="0" width="50" height="37" rx="1"></rect>
            <g id="Locokit" transform="translate(0.000000, 4.560000)" fill-rule="nonzero">
                <path d="M15.156,27.756 L15.156,25.128 L7.2,25.128 C5.724,25.128 4.716,24.84 4.14,24.264 C3.24,23.328 2.772,22.392 2.772,21.42 L2.772,0.036 L0,0.036 L0,20.916 C0,25.344 2.988,27.756 7.2,27.756 L15.156,27.756 Z M35.748,25.164 C37.908,23.004 38.988,20.448 38.988,17.496 C38.988,14.616 37.98,12.132 36,10.044 C34.02,7.92 31.572,6.84 28.728,6.732 C25.776,6.624 23.22,7.668 21.096,9.828 C18.972,11.952 17.892,14.544 17.892,17.532 C17.892,20.412 18.864,22.896 20.844,24.984 C22.824,27.072 25.272,28.152 28.116,28.224 C31.068,28.332 33.624,27.288 35.748,25.164 Z M28.152,25.524 C26.028,25.452 24.264,24.624 22.788,23.004 C21.312,21.384 20.628,19.476 20.664,17.316 C20.7,15.12 21.456,13.284 23.004,11.736 C24.552,10.188 26.388,9.396 28.584,9.432 C30.672,9.432 32.436,10.188 33.912,11.736 C35.388,13.284 36.18,15.12 36.252,17.28 C36.288,19.548 35.532,21.492 33.912,23.184 C32.328,24.876 30.42,25.632 28.152,25.524 Z" id="Lo" fill="#106072"></path>
                <path d="M54.54,28.224 C59.04,28.26 62.388,26.316 64.548,22.32 L64.836,21.708 L61.74,21.708 C60.156,24.228 57.78,25.524 54.576,25.56 C52.344,25.596 50.4,24.804 48.78,23.22 C47.16,21.6 46.332,19.692 46.332,17.46 C46.332,15.228 47.196,13.284 48.96,11.664 C50.652,10.08 52.524,9.324 54.648,9.36 C57.816,9.432 60.156,10.8 61.704,13.428 L64.8,13.428 L64.404,12.528 C63.648,10.836 62.352,9.468 60.588,8.352 C58.716,7.2 56.7,6.624 54.54,6.66 C51.516,6.696 48.924,7.812 46.728,9.936 C44.568,12.06 43.524,14.58 43.56,17.568 C43.596,20.52 44.676,23.04 46.836,25.092 C48.996,27.144 51.552,28.188 54.54,28.224 Z M85.932,25.164 C88.092,23.004 89.172,20.448 89.172,17.496 C89.172,14.616 88.164,12.132 86.184,10.044 C84.204,7.92 81.756,6.84 78.912,6.732 C75.96,6.624 73.404,7.668 71.28,9.828 C69.156,11.952 68.076,14.544 68.076,17.532 C68.076,20.412 69.048,22.896 71.028,24.984 C73.008,27.072 75.456,28.152 78.3,28.224 C81.252,28.332 83.808,27.288 85.932,25.164 Z M78.336,25.524 C76.212,25.452 74.448,24.624 72.972,23.004 C71.496,21.384 70.812,19.476 70.848,17.316 C70.884,15.12 71.64,13.284 73.188,11.736 C74.736,10.188 76.572,9.396 78.768,9.432 C80.856,9.432 82.62,10.188 84.096,11.736 C85.572,13.284 86.364,15.12 86.436,17.28 C86.472,19.548 85.716,21.492 84.096,23.184 C82.512,24.876 80.604,25.632 78.336,25.524 Z" id="co" fill="#FFFFFF"></path>
                <path d="M96.696,27.756 L96.696,23.832 L99.972,19.692 L106.632,27.756 L110.196,27.756 L101.7,17.568 L109.512,7.236 L106.092,7.236 L96.588,19.548 L96.588,0 L93.744,0 L93.744,27.756 L96.696,27.756 Z M116.676,4.788 L116.676,0 L113.976,0 L113.976,4.788 L116.676,4.788 Z M116.676,27.756 L116.676,7.236 L113.976,7.236 L113.976,27.756 L116.676,27.756 Z M128.988,28.188 L128.988,25.92 C125.856,25.92 124.272,24.408 124.272,21.348 L124.272,9.756 L128.988,9.756 L128.988,7.2 L124.272,7.2 L124.272,0.036 L121.5,0.036 L121.5,21.816 C121.5,26.064 123.984,28.188 128.988,28.188 Z" id="kit" fill="#106072"></path>
            </g>
        </g>
    </g>
</svg>
