<?xml version="1.0" encoding="UTF-8"?>
<svg width="209px" height="61px" viewBox="0 0 209 61" version="1.1" xmlns="http://www.w3.org/2000/svg" xmlns:xlink="http://www.w3.org/1999/xlink">
    <title>logokit</title>
    <g id="Symbols" stroke="none" stroke-width="1" fill="none" fill-rule="evenodd">
        <g id="logokit-blanc" transform="translate(0.000000, 1.000000)">
            <g id="logokit" transform="translate(0.000000, -1.000000)">
                <rect id="Rectangle" fill="#FFFFFF" x="65.3794872" y="0.732142857" width="81.4564103" height="60" rx="1"></rect>
                <g id="Locokit" transform="translate(0.000000, 7.232143)" fill-rule="nonzero">
                    <path d="M24.4565879,45.7585851 L24.4565879,41.4644502 L11.6183315,41.4644502 C9.23657358,41.4644502 7.61000716,40.9938601 6.68054064,40.0526798 C5.22824919,38.5232619 4.47305764,36.993844 4.47305764,35.4056023 L4.47305764,0.464285714 L0,0.464285714 L0,34.5820696 C0,41.8173928 4.82160759,45.7585851 11.6183315,45.7585851 L24.4565879,45.7585851 Z M57.6850161,41.5232739 C61.1705156,37.993848 62.9132653,33.8173607 62.9132653,28.9938119 C62.9132653,24.2879107 61.2866989,20.2290709 58.0916577,16.8172925 C54.8966165,13.3466903 50.9463838,11.5819774 46.3571429,11.4055061 C41.5936269,11.2290348 37.4691192,12.934924 34.0417114,16.4643499 C30.6143036,19.9349521 28.8715539,24.1702632 28.8715539,29.0526357 C28.8715539,33.7585369 30.4400286,37.8173767 33.6350698,41.2291551 C36.830111,44.6409335 40.7803437,46.4056465 45.3695847,46.523294 C50.1331006,46.6997653 54.2576083,44.9938761 57.6850161,41.5232739 Z M45.4276763,42.1115116 C42.0002685,41.9938641 39.1537773,40.6409175 36.7720193,37.993848 C34.3902614,35.3467786 33.2865199,32.229119 33.3446115,28.6996931 C33.4027032,25.1114434 34.622628,22.1114314 37.1205693,19.5820095 C39.6185106,17.0525876 42.5811851,15.7584647 46.1247762,15.8172885 C49.4940924,15.8172885 52.3405836,17.0525876 54.7223416,19.5820095 C57.1040995,22.1114314 58.382116,25.1114434 58.4982993,28.6408693 C58.556391,32.3467665 57.3364662,35.5232499 54.7223416,38.2879669 C52.1663086,41.0526838 49.0874508,42.2879829 45.4276763,42.1115116 Z" id="Lo" fill="#FFFFFF"></path>
                    <path d="M88.0904462,46.5232564 C95.3492346,46.5822582 100.749773,43.3961608 104.233992,36.8469606 L104.698554,35.8439299 L99.7045076,35.8439299 C97.1494141,39.9740562 93.3167738,42.0981211 88.1485165,42.1571229 C84.5481574,42.2161247 81.4123609,40.9180851 78.799197,38.3220057 C76.1860332,35.6669245 74.8504162,32.5398289 74.8504162,28.8817171 C74.8504162,25.2236053 76.2441035,22.0375078 79.0895486,19.3824267 C81.818853,16.7863473 84.838509,15.5473094 88.2646571,15.6063112 C93.3748441,15.7243148 97.1494141,17.9663834 99.6464373,22.2735151 L104.640484,22.2735151 L104.00171,20.79847 C102.782234,18.0253852 100.691703,15.7833166 97.8462578,13.9542607 C94.8266018,12.066203 91.5746646,11.1221741 88.0904462,11.181176 C83.2125404,11.2401778 79.0314783,13.0692337 75.4891895,16.5503401 C72.0049711,20.0314465 70.3209322,24.1615728 70.3790025,29.0587225 C70.4370728,33.8968704 72.179182,38.0269967 75.6634005,41.3900995 C79.1476189,44.7532023 83.2706107,46.4642546 88.0904462,46.5232564 Z M138.727754,41.5081031 C142.211972,37.9679949 143.954082,33.7788668 143.954082,28.9407189 C143.954082,24.2205746 142.328113,20.1494501 139.134246,16.7273455 C135.940379,13.2462391 131.991598,11.476185 127.404044,11.2991796 C122.642279,11.1221741 118.519287,12.8332265 115.093139,16.3733347 C111.666991,19.8544411 109.924882,24.102571 109.924882,28.9997207 C109.924882,33.719865 111.49278,37.7909895 114.686647,41.2130941 C117.880514,44.6351987 121.829295,46.4052528 126.416849,46.5232564 C131.178614,46.7002618 135.301606,44.9892095 138.727754,41.5081031 Z M126.474919,42.0981211 C123.048771,41.9801175 120.203326,40.623076 117.822443,37.9679949 C115.441561,35.3129137 114.338225,32.1858181 114.396295,28.6457099 C114.454366,25.0465998 115.673842,22.0375078 118.170865,19.5004303 C120.667888,16.9633527 123.629474,15.665313 127.171763,15.7243148 C130.539841,15.7243148 133.385286,16.9633527 135.766168,19.5004303 C138.147051,22.0375078 139.424598,25.0465998 139.540738,28.5867081 C139.598809,32.3038217 138.379332,35.4899191 135.766168,38.2630039 C133.211075,41.0360887 130.133349,42.2751265 126.474919,42.0981211 Z" id="co" fill="#005666"></path>
                    <path d="M156.241344,45.8296388 L156.241344,39.4161193 L161.593671,32.6495621 L172.474776,45.8296388 L178.297638,45.8296388 L164.416877,29.1780241 L177.180119,12.2910509 L171.592525,12.2910509 L156.064893,32.4142036 L156.064893,0.464285714 L151.418367,0.464285714 L151.418367,45.8296388 L156.241344,45.8296388 Z M188.884659,8.28995621 L188.884659,0.464285714 L184.473401,0.464285714 L184.473401,8.28995621 L188.884659,8.28995621 Z M188.884659,45.8296388 L188.884659,12.2910509 L184.473401,12.2910509 L184.473401,45.8296388 L188.884659,45.8296388 Z M209,46.5357143 L209,42.8288177 C203.88294,42.8288177 201.295001,40.3575534 201.295001,35.356185 L201.295001,16.4098248 L209,16.4098248 L209,12.2322113 L201.295001,12.2322113 L201.295001,0.523125342 L196.766109,0.523125342 L196.766109,36.1211002 C196.766109,43.0641762 200.824467,46.5357143 209,46.5357143 Z" id="kit" fill="#FFFFFF"></path>
                </g>
                <line x1="94.7301775" y1="36.0892857" x2="136.365286" y2="36.0892857" id="Line-Copy" stroke="#005666" stroke-width="3" stroke-linecap="round" stroke-linejoin="round"></line>
                <g id="Group" transform="translate(47.000000, 43.000000)">
                    <rect id="Rectangle" fill="#005666" x="0" y="0" width="80" height="3" rx="1.5"></rect>
                    <path d="M1.5,0 L18.7835821,0 L18.7835821,0 L18.7835821,3 L1.5,3 C0.671572875,3 -1.45285917e-15,2.32842712 -1.77635684e-15,1.5 C-1.6557653e-15,0.671572875 0.671572875,1.52179594e-16 1.5,0 Z" id="Rectangle" fill="#FFFFFF"></path>
                </g>
            </g>
        </g>
    </g>
</svg>
