<?xml version="1.0" encoding="UTF-8" standalone="no"?>
<!-- Generator: Adobe Illustrator 24.0.2, SVG Export Plug-In . SVG Version: 6.00 Build 0)  -->

<svg
   version="1.1"
   id="Calque_1"
   x="0px"
   y="0px"
   viewBox="0 0 740 200"
   xml:space="preserve"
   sodipodi:docname="logo-dark.svg"
   inkscape:version="1.2.2 (b0a8486541, 2022-12-01)"
   width="740"
   height="200"
   inkscape:export-filename="logo-dark.png"
   inkscape:export-xdpi="96"
   inkscape:export-ydpi="96"
   xmlns:inkscape="http://www.inkscape.org/namespaces/inkscape"
   xmlns:sodipodi="http://sodipodi.sourceforge.net/DTD/sodipodi-0.dtd"
   xmlns="http://www.w3.org/2000/svg"
   xmlns:svg="http://www.w3.org/2000/svg"><defs
   id="defs113"><clipPath
     id="SVGID_2_-3"><path
       id="use39-6"
       d="m 144.38,186.47 -12.14,-28.49 c 6.36,-15.05 3.42,-33.1 -8.84,-45.37 -16.15,-16.15 -42.34,-16.15 -58.49,0 C 52.73,124.79 49.82,143.02 56,158 l -12.38,28.47 c -0.84,1.97 -0.83,4.22 0.03,6.17 0.85,1.96 2.5,3.5 4.51,4.22 l 43.2,15.55 c 0.85,0.31 1.75,0.46 2.64,0.46 0.89,0 1.79,-0.15 2.64,-0.46 l 43.2,-15.55 c 2.01,-0.72 3.65,-2.26 4.51,-4.22 0.86,-1.95 0.87,-4.2 0.03,-6.17 z" /></clipPath><clipPath
     id="SVGID_2_-3-7"><path
       id="use39-6-5"
       d="m 144.38,186.47 -12.14,-28.49 c 6.36,-15.05 3.42,-33.1 -8.84,-45.37 -16.15,-16.15 -42.34,-16.15 -58.49,0 C 52.73,124.79 49.82,143.02 56,158 l -12.38,28.47 c -0.84,1.97 -0.83,4.22 0.03,6.17 0.85,1.96 2.5,3.5 4.51,4.22 l 43.2,15.55 c 0.85,0.31 1.75,0.46 2.64,0.46 0.89,0 1.79,-0.15 2.64,-0.46 l 43.2,-15.55 c 2.01,-0.72 3.65,-2.26 4.51,-4.22 0.86,-1.95 0.87,-4.2 0.03,-6.17 z" /></clipPath></defs><sodipodi:namedview
   id="namedview111"
   pagecolor="#ffffff"
   bordercolor="#666666"
   borderopacity="1.0"
   inkscape:pageshadow="2"
   inkscape:pageopacity="0.0"
   inkscape:pagecheckerboard="0"
   showgrid="false"
   inkscape:zoom="2.1208528"
   inkscape:cx="368.24809"
   inkscape:cy="88.172079"
   inkscape:window-width="1920"
   inkscape:window-height="1008"
   inkscape:window-x="0"
   inkscape:window-y="40"
   inkscape:window-maximized="1"
   inkscape:current-layer="g18"
   inkscape:showpageshadow="2"
   inkscape:deskcolor="#d1d1d1" />
<g
   inkscape:groupmode="layer"
   id="layer1"
   inkscape:label="Logo + LocoKit"
   transform="translate(-22.585217,-18.327068)"><g
     id="g18"
     inkscape:label="LocoKit"
     transform="matrix(1.075642,0,0,1.075642,-3.4412303,-15.746486)"><path
       class="st1"
       d="m 690.86,167.26 c -1.67,0.74 -3.59,1.5 -5.76,2.29 -2.18,0.79 -4.54,1.43 -7.08,1.94 -2.55,0.51 -5.12,0.76 -7.71,0.76 -3.52,0 -6.71,-0.6 -9.58,-1.79 -2.87,-1.19 -5.16,-3.09 -6.87,-5.71 -1.71,-2.61 -2.57,-6.03 -2.57,-10.24 v -41.54 h -9.44 V 98.82 h 9.44 v -23.6 h 18.74 v 23.6 h 15.27 v 14.16 h -15.27 v 35.21 c 0.09,2.47 0.79,4.27 2.08,5.41 1.29,1.14 2.96,1.71 5,1.71 1.85,0 3.7,-0.35 5.55,-1.04 1.85,-0.69 3.38,-1.32 4.58,-1.88 z"
       id="path16"
       inkscape:label="t"
       style="fill:#ffb000;fill-opacity:1" /><path
       class="st1"
       d="M 606.32,87.85 V 69.53 h 18.46 v 18.33 h -18.46 z m 0,83.02 V 98.12 h 18.46 v 72.74 h -18.46 z"
       id="path14"
       inkscape:label="i"
       style="fill:#ffb000;fill-opacity:1" /><path
       class="st1"
       d="M 509.7,170.87 V 72.3 h 19.16 v 46.85 l 41.37,-46.99 h 21.1 l -37.76,43.93 40.12,54.77 h -21.66 l -30.54,-42.54 -12.63,13.07 v 29.47 H 509.7 Z"
       id="path12"
       inkscape:label="K"
       style="fill:#ffb000;fill-opacity:1" /><path
       class="st2"
       d="m 457.78,172.26 c -5.46,0 -10.41,-0.99 -14.85,-2.96 -4.44,-1.97 -8.28,-4.68 -11.52,-8.13 -3.24,-3.45 -5.74,-7.42 -7.5,-11.92 -1.76,-4.5 -2.64,-9.23 -2.64,-14.19 0,-5.05 0.88,-9.83 2.64,-14.33 1.76,-4.5 4.26,-8.47 7.5,-11.92 3.24,-3.44 7.1,-6.15 11.59,-8.13 4.49,-1.97 9.42,-2.96 14.78,-2.96 5.46,0 10.41,0.99 14.85,2.96 4.44,1.98 8.31,4.69 11.59,8.13 3.28,3.44 5.81,7.42 7.57,11.92 1.76,4.5 2.64,9.28 2.64,14.33 0,4.96 -0.88,9.69 -2.64,14.19 -1.76,4.5 -4.26,8.47 -7.5,11.92 -3.24,3.44 -7.1,6.16 -11.59,8.13 -4.49,1.97 -9.46,2.96 -14.92,2.96 z m -24.02,-37.07 c 0,4.95 1.09,9.44 3.26,13.47 2.17,4.03 5.07,7.21 8.68,9.55 3.61,2.34 7.63,3.5 12.08,3.5 4.45,0 8.49,-1.19 12.15,-3.57 3.65,-2.38 6.57,-5.61 8.75,-9.69 2.17,-4.08 3.26,-8.59 3.26,-13.54 0,-4.95 -1.09,-9.43 -3.26,-13.46 -2.17,-4.03 -5.09,-7.24 -8.75,-9.62 -3.66,-2.38 -7.71,-3.57 -12.15,-3.57 -4.44,0 -8.47,1.21 -12.08,3.64 -3.61,2.43 -6.5,5.65 -8.68,9.68 -2.17,4.04 -3.26,8.57 -3.26,13.61 z"
       id="path10"
       inkscape:label="o"
       style="fill:#ffffff;fill-opacity:1" /><path
       class="st2"
       d="m 381.98,172.26 c -5.46,0 -10.44,-0.99 -14.92,-2.96 -4.49,-1.97 -8.38,-4.71 -11.66,-8.2 -3.29,-3.49 -5.83,-7.49 -7.63,-11.99 -1.8,-4.5 -2.71,-9.28 -2.71,-14.33 0,-6.8 1.53,-13 4.58,-18.6 3.05,-5.61 7.36,-10.08 12.91,-13.44 5.55,-3.36 11.98,-5.03 19.3,-5.03 7.13,0 13.35,1.6 18.67,4.79 5.32,3.19 9.28,7.47 11.87,12.84 l -11.94,3.75 c -1.85,-3.42 -4.44,-6.08 -7.77,-7.98 -3.33,-1.9 -7.04,-2.85 -11.11,-2.85 -4.44,0 -8.49,1.14 -12.15,3.44 -3.66,2.29 -6.55,5.43 -8.68,9.41 -2.13,3.98 -3.19,8.54 -3.19,13.67 0,5.04 1.09,9.6 3.26,13.67 2.17,4.08 5.09,7.3 8.75,9.69 3.65,2.38 7.7,3.57 12.15,3.57 2.87,0 5.62,-0.51 8.26,-1.53 2.64,-1.02 4.95,-2.38 6.94,-4.09 1.99,-1.71 3.35,-3.59 4.1,-5.62 l 11.94,3.61 c -1.48,3.52 -3.73,6.64 -6.73,9.37 -3.01,2.73 -6.57,4.88 -10.69,6.46 -4.13,1.56 -8.64,2.35 -13.55,2.35 z"
       id="path8"
       inkscape:label="c"
       style="fill:#ffffff;fill-opacity:1" /><path
       class="st2"
       d="m 298.41,172.26 c -5.46,0 -10.41,-0.99 -14.85,-2.96 -4.44,-1.97 -8.28,-4.68 -11.52,-8.13 -3.24,-3.45 -5.74,-7.42 -7.5,-11.92 -1.76,-4.5 -2.64,-9.23 -2.64,-14.19 0,-5.05 0.88,-9.83 2.64,-14.33 1.76,-4.5 4.26,-8.47 7.5,-11.92 3.24,-3.44 7.1,-6.15 11.59,-8.13 4.49,-1.97 9.42,-2.96 14.78,-2.96 5.46,0 10.41,0.99 14.85,2.96 4.44,1.98 8.31,4.69 11.59,8.13 3.28,3.44 5.81,7.42 7.57,11.92 1.76,4.5 2.64,9.28 2.64,14.33 0,4.96 -0.88,9.69 -2.64,14.19 -1.76,4.5 -4.26,8.47 -7.5,11.92 -3.24,3.44 -7.1,6.16 -11.59,8.13 -4.49,1.97 -9.46,2.96 -14.92,2.96 z m -24.02,-37.07 c 0,4.95 1.09,9.44 3.26,13.47 2.17,4.03 5.07,7.21 8.68,9.55 3.61,2.34 7.63,3.5 12.08,3.5 4.45,0 8.49,-1.19 12.15,-3.57 3.65,-2.38 6.57,-5.61 8.75,-9.69 2.17,-4.08 3.26,-8.59 3.26,-13.54 0,-4.95 -1.09,-9.43 -3.26,-13.46 -2.17,-4.03 -5.09,-7.24 -8.75,-9.62 -3.66,-2.38 -7.71,-3.57 -12.15,-3.57 -4.44,0 -8.47,1.21 -12.08,3.64 -3.61,2.43 -6.5,5.65 -8.68,9.68 -2.17,4.04 -3.26,8.57 -3.26,13.61 z"
       id="path6"
       inkscape:label="o"
       style="fill:#ffffff;fill-opacity:1" /><path
       class="st2"
       d="M 188.6,170.87 V 72.3 h 12.49 v 87.46 h 54.97 v 11.11 z"
       id="path4"
       inkscape:label="L"
       style="fill:#ffffff;fill-opacity:1" /></g><g
     id="g1556"
     transform="translate(7.7958039,-11.947654)"><path
       id="circle30"
       class="st1"
       d="m 99.301226,54.559296 a 7.2085744,7.2085744 0 0 0 -7.207487,7.207484 7.2085744,7.2085744 0 0 0 7.207487,7.209581 7.2085744,7.2085744 0 0 0 7.209584,-7.209581 7.2085744,7.2085744 0 0 0 -7.209584,-7.207484 z m -3.755868,3.56912 c 1.10143,0.04061 0.448942,2.958952 1.286229,5.100842 0.923897,2.352722 4.124063,3.555861 2.469639,4.211185 -1.654427,0.644582 -4.351097,-0.773668 -5.275002,-3.12639 -0.923898,-2.352721 -0.536057,-5.457125 1.118371,-6.101707 0.155107,-0.06144 0.286804,-0.08812 0.400763,-0.08393 z"
       inkscape:label="bulle 1"
       style="fill:#ffb000;fill-opacity:1;stroke-width:1.0743" /><path
       id="circle24"
       style="fill:#ffb000;fill-opacity:1;stroke-width:1.0743"
       d="m 81.994872,37.250845 a 9.1315771,9.1315771 0 0 0 -9.131579,9.131577 9.1315771,9.1315771 0 0 0 9.131579,9.131577 9.1315771,9.1315771 0 0 0 9.131575,-9.131577 9.1315771,9.1315771 0 0 0 -9.131575,-9.131577 z m -4.116767,4.053816 c 1.490044,0.03174 0.532118,3.825444 1.603062,6.561223 1.181735,3.018788 5.478946,4.490588 3.222911,5.371515 -2.256035,0.880928 -5.866284,-0.881854 -7.048016,-3.900643 -1.181734,-3.01879 -0.579533,-7.035764 1.676502,-7.916692 0.211503,-0.08259 0.3914,-0.118691 0.545541,-0.115403 z"
       inkscape:label="bulle 2" /><g
       id="g3200"
       transform="matrix(1.0743032,0,0,1.0743032,-2.1658723,-6.9235764)"><path
         class="st5"
         d="M 61.357969,158.11291 47.73,188.23 c -0.75,1.76 0.13,3.78 1.93,4.43 l 43.2,15.55 c 0.73,0.26 1.52,0.26 2.25,0 l 43.2,-15.55 c 1.8,-0.65 2.68,-2.67 1.93,-4.43 l -12.38981,-30.11709 z"
         id="path46-3"
         clip-path="url(#SVGID_2_-3-7)"
         style="display:inline;fill:#ff8d00"
         sodipodi:nodetypes="ccccccccc"
         transform="matrix(1.0309451,0,0,1.0309451,1.4746932,-13.835411)"
         inkscape:label="ombre orange" /><path
         id="polygon84-6"
         style="display:inline;fill:#ffb000;stroke-width:0.746767"
         class="st1"
         d="m 62.933992,153.14248 -12.25229,27.0769 c -0.27245,1.18012 -0.73328,3.38643 1.98972,4.56709 l 5.89952,2.12356 7.76493,-18.25264 c 3.64739,4.03347 8.01555,7.35076 12.88011,9.78149 l -4.7603,14.23912 6.74084,2.37618 4.27257,-14.06464 c 4.29757,1.3776 8.78259,2.08121 13.295554,2.08581 0.39888,-0.007 0.797642,-0.0199 1.196172,-0.038 l -0.43294,17.78026 9.967502,-3.58785 -0.3211,-15.43014 c 4.1056,-1.00828 8.04317,-2.60696 11.68965,-4.74606 l 4.78895,14.36025 7.25116,-2.61008 -5.45465,-16.48048 c 4.13932,-3.60068 7.53786,-7.92545 10.04904,-12.73022 -4.21722,-10.42276 -4.21722,-10.42276 -8.55728,-10.42274 l -62.324008,-2e-5 c -1.88575,0 -1.88575,0 -3.68315,3.97216 z"
         inkscape:label="ombre jaune"
         sodipodi:nodetypes="cccccccccccccccccccccc" /><path
         id="circle58"
         style="display:inline;fill:#fff;stroke-width:1.03095"
         class="st2"
         d="m 84.868287,68.446758 c -1.9691,0 -3.55704,1.59824 -3.55704,3.557029 v 5.8348 c 0,1.210801 0.60493,2.27693 1.52567,2.918841 v 13.145853 a 43.701761,43.701761 0 0 0 -28.09314,40.792049 43.701761,43.701761 0 0 0 3.66949,17.4421 l -12.27772,28.81658 c -0.86599,2.03093 -0.85581,4.35092 0.0308,6.36126 0.8763,2.02065 2.57717,3.60768 4.64936,4.34996 l 44.53746,16.03173 c 0.8763,0.3196 1.8036,0.47419 2.72114,0.47419 0.91754,0 1.84555,-0.15459 2.721843,-0.47419 l 44.53673,-16.03173 c 2.07216,-0.74228 3.76346,-2.32931 4.65008,-4.34996 0.87627,-2.02065 0.88604,-4.34033 0.02,-6.37129 L 138.1056,153.03564 a 43.701761,43.701761 0 0 0 4.04197,-18.34031 43.701761,43.701761 0 0 0 -28.09315,-40.81426 V 80.754558 c 0.92076,-0.64397 1.52568,-1.711511 1.52568,-2.915971 v -5.8348 c 0,-1.969089 -1.59825,-3.557029 -3.55704,-3.557029 z m 13.57705,55.588932 a 10.659973,10.659973 0 0 1 10.660353,10.65964 10.659973,10.659973 0 0 1 -10.660353,10.66037 10.659973,10.659973 0 0 1 -10.65965,-10.66037 10.659973,10.659973 0 0 1 10.65965,-10.65964 z m -34.16575,37.85315 a 43.701761,43.701761 0 0 0 9.94481,9.144 l -4.96883,17.46858 -14.15079,-5.09344 z m 67.842273,0.63891 8.9019,20.88023 -13.28481,4.78187 -4.87498,-17.28236 a 43.701761,43.701761 0 0 0 9.25789,-8.37974 z m -17.60683,12.76909 4.52115,16.02601 -16.35335,5.88638 v -19.0351 a 43.701761,43.701761 0 0 0 11.8322,-2.87729 z m -31.940263,0.0824 a 43.701761,43.701761 0 0 0 10.88098,2.69606 v 19.13753 l -15.50456,-5.58125 z"
         inkscape:label="loco" /></g></g></g></svg>
