<?xml version="1.0" encoding="UTF-8"?>
<svg width="480px" height="62px" viewBox="0 0 480 62" version="1.1" xmlns="http://www.w3.org/2000/svg" xmlns:xlink="http://www.w3.org/1999/xlink">
	<title>Clipped</title>
	<defs>
		<rect id="path-1" x="0" y="0" width="480" height="62"></rect>
	</defs>
	<g id="Page-1" stroke="none" stroke-width="1" fill="none" fill-rule="evenodd">
		<g id="Clipped">
			<mask id="mask-2" fill="white">
				<use xlink:href="#path-1"></use>
			</mask>
			<g id="SVGID_1_"></g>
			<g id="Group" mask="url(#mask-2)" fill-rule="nonzero">
				<g transform="translate(55.662053, 10.325000)">
					<path d="M362.00288,19.3984043 C362.955189,20.1164894 363.749442,20.9143617 364.385638,21.9515957 C365.02104,22.9888298 365.337947,24.2654255 365.337947,25.7015957 C365.337947,26.7388298 365.17989,27.6962766 364.782764,28.6537234 C364.465063,29.6095745 363.988512,30.4888298 363.352315,31.3656915 C362.241156,32.8816489 360.969558,33.9978723 359.381053,34.637766 C357.792548,35.3550532 356.124618,35.675 354.298631,35.675 C353.583804,35.675 352.789551,35.593617 351.915874,35.4356383 C350.962771,35.2760638 350.089093,35.0367021 349.05577,34.7957447 C348.103462,34.5571809 347.150359,34.2388298 346.275887,33.918883 C345.402209,33.5989362 344.607956,33.2805851 344.05198,32.9614362 C343.813704,32.8816489 343.654853,32.8010638 343.496003,32.5625 C343.337947,32.3231383 343.337947,32.1635638 343.337947,32.0031915 C343.417372,31.2867021 343.576222,30.7273936 343.735073,30.2494681 C343.893129,29.7699468 344.05198,29.2920213 344.211624,28.8117021 C344.29105,28.5731383 344.29105,28.412766 344.370475,28.2547872 C344.4499,28.0952128 344.4499,27.9356383 344.529325,27.8558511 L344.449106,27.9356383 C344.529325,27.8558511 344.529325,27.6962766 344.607956,27.5367021 C344.686587,27.3771277 344.687382,27.2167553 344.766807,27.0579787 C344.766807,26.9773936 344.766807,26.8984043 344.846232,26.8170213 L344.846232,26.9781915 L344.846232,26.8178191 C344.846232,26.500266 345.005083,26.2609043 345.323578,26.1013298 C345.640485,25.9417553 346.037611,25.9417553 346.514957,26.0199468 C346.673013,26.1005319 346.911289,26.1803191 347.22899,26.2609043 C347.546691,26.418883 347.864392,26.500266 348.261518,26.6598404 C348.658644,26.8178191 348.976345,26.9781915 349.373471,27.0587766 C349.770598,27.2167553 350.008873,27.2981383 350.247149,27.3771277 C351.041402,27.6962766 351.756229,27.9356383 352.47185,28.175 C353.185883,28.4135638 353.821285,28.4941489 354.457482,28.4941489 C354.774388,28.4941489 355.092884,28.412766 355.40979,28.2547872 C355.727491,28.0952128 355.965767,27.9356383 356.204043,27.6962766 C356.443113,27.4569149 356.681389,27.2159574 356.76002,26.8984043 C356.91887,26.5792553 356.998295,26.1803191 356.998295,25.8611702 C356.998295,25.6202128 356.91887,25.3816489 356.76002,25.2212766 C356.601169,25.0632979 356.362893,24.8223404 356.124618,24.6643617 C355.886342,24.5047872 355.648066,24.3452128 355.40979,24.2654255 C355.171515,24.1848404 354.933239,24.0244681 354.774388,23.9462766 L354.774388,24.025266 C354.138986,23.7077128 353.503584,23.4683511 352.868977,23.2273936 C351.835654,22.9090426 350.803126,22.5101064 349.850023,22.1111702 C348.817495,21.712234 347.944611,21.1537234 347.150359,20.5952128 C346.356106,19.9569149 345.720704,19.1590426 345.164727,18.281383 C344.687382,17.3239362 344.4499,16.2069149 344.4499,14.8505319 C344.4499,13.4143617 344.767601,12.0579787 345.403003,10.9409574 C346.038405,9.82393617 346.832658,8.78670213 347.86598,8.06861702 C348.898508,7.27074468 350.009668,6.71223404 351.281266,6.31329787 C352.55207,5.9143617 353.822874,5.675 355.172309,5.675 C355.807711,5.675 356.681389,5.75478723 357.635286,5.9143617 C358.589183,6.07393617 359.540698,6.39308511 360.41517,6.79202128 C361.288847,7.19095745 362.0831,7.74946809 362.717708,8.38776596 C363.35311,9.02606383 363.670811,9.82393617 363.670811,10.781383 C363.670811,11.7388298 363.353904,12.5367021 362.638282,13.175 C361.923455,13.8132979 361.129203,14.212234 360.096674,14.212234 C359.540698,14.212234 358.984721,14.1324468 358.587595,13.9728723 C358.111043,13.8132979 357.635286,13.6537234 357.23816,13.4143617 C356.760814,13.2547872 356.285057,13.0154255 355.807711,12.8558511 C355.330365,12.6962766 354.853814,12.6164894 354.297837,12.6164894 C353.980136,12.6164894 353.58301,12.7760638 353.185883,13.0154255 C352.788757,13.2547872 352.629907,13.6537234 352.629907,14.212234 C352.629907,14.531383 352.710126,14.7707447 352.868977,15.0101064 C353.027033,15.2494681 353.185883,15.4090426 353.424159,15.568617 C353.663229,15.7281915 353.901505,15.887766 354.218412,15.9675532 C354.536113,16.0473404 354.774388,16.2069149 355.012664,16.2867021 C355.171515,16.3664894 355.330365,16.4462766 355.49001,16.4462766 L355.331159,16.3664894 L355.49001,16.3664894 L355.49001,16.4462766 C356.442319,16.925 357.554272,17.3239362 358.745651,17.7228723 C359.93703,18.2015957 360.969558,18.7601064 362.00288,19.3984043 Z" id="Path" fill="#1B1237"></path>
					<path d="M39.7264733,33.42341 C38.1265476,32.1661225 36.526622,30.8302545 34.9266963,29.5737528 C34.2867261,29.0236896 34.2067298,28.9435375 34.6867075,28.2378849 C35.6466629,26.5861235 36.2866331,24.8589248 36.6866145,23.0500024 C37.3265848,20.2218914 37.2465885,17.471575 36.2866331,14.7212586 C35.966648,13.778293 35.4866703,12.9924883 35.0066926,12.1281032 C34.8467,11.8923618 34.7667038,11.6566204 35.0066926,11.420879 C35.7266592,10.6350743 36.4466257,9.84926962 37.2465885,9.14204541 C38.3665365,7.96333839 39.5664807,6.86321184 40.6064324,5.68450482 C41.8063766,4.34863687 41.4863915,2.77702751 39.9664621,1.91264237 C39.5664807,1.5983205 39.086503,1.36257909 38.6065253,1.12683769 C37.4065811,0.498193947 36.2066368,0.576774415 35.0866889,1.04825722 C34.1267335,1.44115956 33.4867633,2.0698033 32.7667967,2.85560798 L28.7669826,6.62747044 C28.5269938,6.78463137 28.4469975,6.78463137 28.2070086,6.78463137 C27.9670198,6.78463137 27.7270309,6.7060509 27.4070458,6.7060509 C17.4075106,5.13444155 11.8077708,10.8708157 11.8077708,10.8708157 C11.567782,11.1065571 11.3277931,11.1065571 11.0878043,10.8708157 C10.3678377,10.3207524 9.64787119,9.84926962 9.00790093,9.29920634 C7.88795298,8.4348212 7.08799016,8.27766026 5.88804593,8.98488447 C5.08808311,9.45636728 4.6881017,10.1635915 4.12812772,10.7922352 C3.80814259,11.1065571 3.56815375,11.4994594 3.3281649,11.8137813 C2.68819465,12.8353274 2.76819093,13.8568735 3.64815003,14.7212586 C4.36811657,15.4284828 5.08808311,16.135707 5.88804593,16.8429313 C6.20803106,17.0786727 6.20803106,17.3144141 6.04803849,17.7073164 C5.80804965,18.1787992 5.5680608,18.5717015 5.40806824,19.0431844 C3.64815003,22.9722077 3.16817234,26.9790258 4.60810542,31.1445764 C4.84809426,31.7732201 4.6881017,32.0859704 4.28812029,32.5590248 C3.16817234,33.7377318 1.96822811,34.8362868 1.00827272,36.0951459 C0.128313618,37.1937008 0.128313618,38.5311404 0.928276439,39.7098474 C1.24826157,40.1027497 1.5682467,40.4956521 1.88823182,40.8885544 C2.76819093,41.9093147 4.20812401,41.9093147 5.16807939,41.0457153 C6.20803106,40.1027497 7.16798644,39.0812036 8.20793811,38.138238 C9.40788234,37.0388973 9.00790093,37.0388973 10.5278303,37.824702 C13.007715,39.0819894 15.6475923,39.4748918 18.4474622,39.2391504 C21.4073247,39.003409 24.047202,37.9802913 26.607083,36.5674145 C27.3270495,36.1745121 27.4070458,36.1745121 28.0470161,36.7245754 L29.0869677,37.667541 C30.1269194,38.6105066 31.1668711,39.5519006 32.2068227,40.4178574 C33.6467558,41.5965644 35.8066554,41.675 37.3265848,40.6535988 C38.3665365,39.9455888 39.2464956,39.0819894 40.1264547,38.2176043 C41.4063952,36.8015843 41.4063952,34.7592779 39.7264733,33.42341 M25.487135,28.6300014 C21.7273098,32.4018639 15.1676147,33.8163123 11.6477782,30.1214587 C8.04794555,26.2725874 9.32788606,21.3228037 11.9677634,17.7858969 C14.6076407,14.2497758 21.2473321,10.4779134 26.2870979,14.3283563 C31.0868748,17.9430578 29.2469603,24.7795585 25.487135,28.6300014" id="Shape" fill="#D0DD2A"></path>
					<path d="M64.0145635,6.23429364 C64.4125735,6.6332192 64.7309814,7.11192987 64.9697874,7.75021077 L71.2583446,29.5315464 L77.6265038,7.75021077 C77.7857078,7.11192987 78.1041158,6.6332192 78.5021257,6.23429364 C78.9001357,5.83536808 79.4573496,5.67579785 80.1737675,5.67579785 C80.8901854,5.67579785 81.4473993,5.83536808 81.9250113,6.23429364 C82.4026232,6.6332192 82.7210312,7.19171498 82.8802352,7.82999588 L87.3379466,34.8771489 L83.835459,35.5154298 L80.1737675,10.1437641 L73.0095884,34.3186531 L69.5071008,34.3186531 L62.4225237,10.1437641 L58.8404342,34.0792978 C58.7608322,34.5580084 58.6016282,34.956934 58.2832202,35.2760744 C57.9648123,35.5154298 57.5668023,35.675 57.0095884,35.675 C56.5319764,35.675 56.1339665,35.5154298 55.8155585,35.1954915 C55.4971506,34.8771489 55.3379466,34.4782233 55.3379466,33.9987148 L55.3379466,33.3604339 L59.6364541,7.82919803 C59.795658,7.11113202 60.114066,6.63242135 60.5916779,6.23349578 C61.0692899,5.83457022 61.7061058,5.675 62.3429217,5.675 C62.9797376,5.67579785 63.6165536,5.91515319 64.0145635,6.23429364" id="Path" fill="#1B1237"></path>
					<path d="M102.19145,7.1684067 C102.589539,7.56713367 102.90801,8.12535143 103.146864,8.76331458 L113.337947,35.6375124 L109.834762,36.675 L107.286991,29.9755894 L93.7519593,29.9755894 L91.6818956,35.4788191 C91.52266,35.7962058 91.3634243,36.1167822 91.044953,36.355221 C90.7264816,36.5944572 90.4080103,36.675 90.0099211,36.675 C89.5322141,36.675 89.1341249,36.5155092 88.8156536,36.1949327 C88.4971823,35.8775461 88.3379466,35.4788191 88.3379466,34.9987518 C88.3379466,34.6813651 88.4175644,34.3607887 88.5768001,34.0426045 L97.9717046,8.84305998 C98.2105581,8.28563967 98.4494116,7.72662446 98.8475007,7.32789749 C99.2455899,6.84942512 99.7232969,6.69073179 100.439857,6.69073179 C101.236036,6.61018894 101.793361,6.84942512 102.19145,7.1684067 M106.251959,26.8655191 L100.519475,10.8366948 L94.7073733,26.8655191 L106.251959,26.8655191 Z" id="Shape" fill="#1B1237"></path>
					<path d="M116.337947,7.42566313 C116.337947,6.94820955 116.499485,6.55033156 116.822562,6.23202918 C117.145639,5.91372679 117.549485,5.675 118.0341,5.675 C118.518716,5.675 118.922562,5.83415119 119.326408,6.15245358 C119.649485,6.47075597 119.891793,6.86863395 119.891793,7.42566313 L119.891793,18.4070955 L133.541793,5.7545756 L136.126408,8.0622679 L123.2841,19.8394562 L136.691793,32.7307029 C137.095639,33.1285809 137.337947,33.6068302 137.337947,34.0834881 C137.337947,34.5617374 137.176408,34.9596154 136.853331,35.1975464 C136.530254,35.5150531 136.126408,35.675 135.722562,35.675 C135.157177,35.675 134.672562,35.4362732 134.268716,35.0383952 L119.891793,21.271817 L119.891793,35.277122 L116.337947,35.277122 L116.337947,7.42566313 Z" id="Path" fill="#1B1237"></path>
					<path d="M140.337947,8.46801075 C140.337947,8.00026882 140.47431,7.61048387 140.815219,7.22069892 C141.087947,6.90887097 141.497038,6.675 141.906128,6.675 C142.315219,6.675 142.656128,6.83091398 142.928856,7.22069892 C143.201583,7.53252688 143.337947,8.00026882 143.337947,8.46801075 L143.337947,35.675 L140.337947,35.675 L140.337947,8.46801075 L140.337947,8.46801075 Z" id="Path" fill="#1B1237"></path>
					<path d="M149.337947,7.50034854 C149.337947,7.02417066 149.493975,6.62735576 149.884046,6.23054086 C150.196103,5.91308894 150.664188,5.675 151.132273,5.675 C151.756386,5.675 152.224471,5.91308894 152.536528,6.4686298 L167.983337,29.245805 L167.983337,7.50034854 C167.983337,7.02417066 168.139365,6.62735576 168.451422,6.23054086 C168.763479,5.83372596 169.153549,5.675 169.621635,5.675 C170.08972,5.675 170.557805,5.83372596 170.869861,6.23054086 C171.181918,6.62735576 171.337947,7.02417066 171.337947,7.50034854 L171.337947,33.9282208 C171.337947,34.4051923 171.181918,34.8020072 170.869861,35.1988221 C170.557805,35.5154804 170.167734,35.675 169.621635,35.675 C168.997521,35.675 168.529436,35.4369111 168.217379,34.8813702 L152.770571,12.1034014 L152.770571,35.2773915 L149.337947,35.1980285 L149.337947,7.50034854 Z" id="Path" fill="#1B1237"></path>
					<path d="M189.191095,7.1684067 C189.589197,7.56713367 189.907678,8.12535143 190.146539,8.76331458 L200.337947,35.6375124 L196.835447,36.675 L194.287595,29.9755894 L180.752132,29.9755894 L178.682002,35.4788191 C178.522761,35.7962058 178.363521,36.1167822 178.044243,36.355221 C177.726558,36.5944572 177.408076,36.675 177.009974,36.675 C176.532252,36.675 176.13415,36.5155092 175.815669,36.1949327 C175.497187,35.8775461 175.337947,35.4788191 175.337947,34.9987518 C175.337947,34.6813651 175.417567,34.3607887 175.576808,34.0426045 L184.971215,8.84305998 C185.210076,8.28563967 185.448937,7.72662446 185.847039,7.32789749 C186.245141,6.84942512 186.72366,6.69073179 187.439447,6.69073179 C188.23565,6.61018894 188.872613,6.84942512 189.191095,7.1684067 M193.251734,26.8655191 L187.519067,10.8366948 L181.7864,26.8655191 L193.251734,26.8655191 Z" id="Shape" fill="#1B1237"></path>
					<path d="M230.875954,31.8452128 C230.475648,32.4029255 230.075341,32.8824468 229.594173,33.281383 C229.113806,33.7601064 228.474116,34.1590426 227.832826,34.3976064 C227.192336,34.7167553 226.472585,34.956117 225.831294,35.1156915 C225.190804,35.275266 224.471054,35.4348404 223.749702,35.5146277 C223.02835,35.5944149 222.389461,35.675 221.748971,35.675 C219.267073,35.675 217.025358,35.1164894 215.023826,34.0792553 C213.022295,33.0420213 211.42107,31.5260638 210.14009,29.6103723 C209.259417,28.3337766 208.618927,26.8984043 208.058498,25.3816489 C207.57813,23.8664894 207.337947,22.2707447 207.337947,20.675 C207.337947,18.7601064 207.658192,16.925 208.21862,15.2494681 C208.859911,13.4941489 209.660523,11.9781915 210.78058,10.6218085 C211.901438,9.26542553 213.182418,8.14840426 214.783643,7.27074468 C216.304806,6.39308511 218.066955,5.83457447 219.987624,5.675 L220.869098,5.675 C221.669711,5.675 222.470323,5.75478723 223.350997,5.99414894 C224.231671,6.1537234 225.112344,6.47287234 225.993018,6.79202128 C226.874493,7.11117021 227.675105,7.51010638 228.475718,7.90904255 C229.27633,8.30797872 229.91682,8.78670213 230.477249,9.26542553 C230.636571,9.425 230.796693,9.58457447 230.877555,9.74414894 C230.957616,9.9037234 230.957616,10.1430851 230.796693,10.3026596 L228.715101,14.6111702 C228.554978,14.8505319 228.233933,15.0101064 227.914488,15.0898936 C227.594243,15.1696809 227.193937,15.0898936 226.873692,14.9303191 C226.073079,14.2920213 225.272467,13.7335106 224.471854,13.3345745 C223.671242,12.9356383 222.710507,12.6962766 221.829033,12.6962766 C221.588849,12.6962766 221.269405,12.7760638 220.869098,12.8558511 C219.987624,13.0154255 219.267873,13.3345745 218.626583,13.8132979 C217.986093,14.2920213 217.425664,14.8505319 216.945296,15.568617 C216.464929,16.2867021 216.144684,17.0047872 215.9045,17.8824468 C215.664316,18.7601064 215.584255,19.637766 215.584255,20.5952128 C215.584255,21.6316489 215.665117,22.5898936 215.9045,23.5473404 C216.143883,24.5047872 216.464929,25.3026596 216.945296,26.0207447 C217.425664,26.7388298 217.986093,27.2981383 218.706644,27.7760638 C219.426395,28.175 220.227007,28.4143617 221.188543,28.4143617 C221.909094,28.4143617 222.549584,28.3345745 223.190074,28.0960106 C223.830564,27.8574468 224.390993,27.6164894 224.872161,27.3779255 C225.272467,27.1385638 225.752834,26.9789894 226.153141,26.8194149 C226.553447,26.6606383 227.033814,26.5800532 227.514182,26.5800532 C228.554978,26.5800532 229.434851,26.8992021 230.156203,27.5375 C230.877555,28.1757979 231.277061,29.0534574 231.277061,30.0109043 C231.436383,30.7281915 231.27626,31.2867021 230.875954,31.8452128" id="Path" fill="#1B1237"></path>
					<path d="M259.315475,26.4444756 C258.60761,28.2746658 257.663003,29.8661355 256.405362,31.2188848 C255.146935,32.5708383 253.731205,33.6856628 252.000868,34.4813977 C250.270531,35.2771326 248.382104,35.675 246.337947,35.675 C244.292216,35.675 242.405362,35.2771326 240.675025,34.4813977 C238.944688,33.6856628 237.450306,32.571634 236.270531,31.2188848 C235.011317,29.8661355 234.067497,28.2746658 233.360419,26.4444756 C232.652553,24.6134897 232.337947,22.7045218 232.337947,20.7143889 C232.337947,18.6454782 232.651767,16.7357146 233.360419,14.9055244 C234.067497,13.0753342 235.012104,11.4838645 236.270531,10.1311152 C237.528958,8.77836596 238.943902,7.66433715 240.675025,6.86860229 C242.406149,6.07286743 244.293003,5.675 246.337947,5.675 C248.38289,5.675 250.270531,6.07286743 252.000868,6.86860229 C253.730419,7.66433715 255.225587,8.77836596 256.405362,10.1311152 C257.663789,11.4838645 258.60761,13.0753342 259.315475,14.9055244 C260.022553,16.7357146 260.337947,18.6454782 260.337947,20.6348154 C260.337947,22.7045218 260.02334,24.6142854 259.315475,26.4444756 M251.60761,17.9301126 C251.370868,16.9752308 251.057048,16.0203489 250.584351,15.3041876 C250.112441,14.5084527 249.561879,13.8718648 248.854801,13.4739974 C248.146935,13.0761299 247.281767,12.757836 246.258508,12.757836 C245.315475,12.757836 244.44952,12.9965565 243.742441,13.4739974 C243.034576,13.9514383 242.483227,14.5880262 242.012104,15.3041876 C241.539407,16.0999224 241.225587,16.8956573 240.989632,17.8505391 C240.75289,18.8054209 240.675025,19.7603028 240.675025,20.7151846 C240.675025,21.6708622 240.753677,22.6249483 240.989632,23.5798301 C241.225587,24.5347119 241.539407,25.4100203 242.012104,26.1261817 C242.484014,26.9219165 243.034576,27.5585044 243.742441,27.9563718 C244.44952,28.4346085 245.236036,28.6725332 246.258508,28.6725332 C247.202329,28.6725332 247.988845,28.4338128 248.697497,28.0359453 C249.404576,27.5577087 250.034576,27.0006943 250.506486,26.2853286 C250.978396,25.5691673 251.371654,24.6938589 251.60761,23.7389771 C251.843565,22.7840952 252.000868,21.8292134 252.000868,20.8743316 C252.000868,19.9194497 251.843565,18.8849944 251.60761,17.9301126" id="Shape" fill="#1B1237"></path>
					<path d="M281.13485,36.5175587 C280.898274,36.596671 280.582839,36.675 280.267404,36.675 C279.952758,36.675 279.716182,36.5175587 279.558464,36.3624674 L272.381534,26.8838773 L272.381534,32.1319191 C272.381534,32.6802219 272.302675,33.1501958 272.066888,33.6201697 C271.830312,34.0901436 271.592947,34.4817885 271.198653,34.7951044 C270.80436,35.1076371 270.410066,35.4217363 269.936914,35.5783943 C269.463762,35.8133812 268.911751,35.8909269 268.35974,35.8909269 C267.807729,35.8909269 267.255718,35.8125979 266.782566,35.5783943 C266.309414,35.3418407 265.836262,35.1076371 265.520827,34.7159922 C265.126534,34.4034595 264.811099,33.9327023 264.652593,33.4627285 C264.416017,32.991188 264.337947,32.5227807 264.337947,31.9744778 L264.337947,7.5366188 C264.337947,7.30163185 264.494875,7.06664491 264.73224,6.90998695 C264.968816,6.75332898 265.283462,6.675 265.677756,6.75332898 L266.309414,6.75332898 L267.25493,6.75332898 L268.43781,6.75332898 L269.778408,6.75332898 C270.488137,6.75332898 271.197865,6.675 271.986452,6.675 L273.879061,6.675 L274.983082,6.675 C275.297729,6.675 275.456235,6.675 275.613952,6.75332898 C276.95455,6.98831593 278.216289,7.30163185 279.39917,7.77160574 C280.58205,8.24157963 281.607213,8.86821149 282.474659,9.57317232 C283.342105,10.3564621 284.051833,11.2964099 284.524985,12.3930157 C284.998137,13.4896214 285.313572,14.7428851 285.313572,16.2311358 C285.313572,17.2494125 285.155855,18.1893603 284.84042,18.9726501 C284.524985,19.7559399 284.130692,20.5392298 283.577892,21.1658616 C283.025093,21.7924935 282.395012,22.3407963 281.686072,22.8099869 C280.976344,23.2815274 280.187757,23.5932768 279.320311,23.907376 L286.0233,32.2094648 C286.259876,32.4460183 286.337947,32.6810052 286.337947,32.8376632 C286.337947,32.9927546 286.10137,33.2293081 285.785936,33.3843995 L281.13485,36.5175587 Z M276.561045,14.3512402 C276.166752,13.8812663 275.692811,13.6462794 275.220447,13.6462794 L272.381534,13.6462794 L272.381534,18.4243473 L275.378953,18.4243473 C275.852105,18.4243473 276.246399,18.1893603 276.640692,17.7193864 C276.956127,17.2494125 277.192703,16.7011097 277.192703,16.0744778 C277.192703,15.447846 276.955339,14.8995431 276.561045,14.3512402" id="Shape" fill="#1B1237"></path>
					<path d="M311.674673,20.3174731 C311.187941,21.486828 310.457842,22.5002688 309.565499,23.3577957 C308.672345,24.2161022 307.61857,24.8389785 306.401739,25.385457 C305.184908,25.8531989 303.886955,26.1650269 302.507879,26.3201613 C302.183391,26.3988978 301.615537,26.3988978 300.804316,26.3988978 L298.61402,26.3988978 L298.61402,26.5548118 L298.61402,28.425 C298.61402,29.1266129 298.532087,29.8282258 298.532087,30.6077957 C298.450965,31.3094086 298.370654,32.0118011 298.288721,32.5567204 C298.207599,33.1811559 298.045354,33.5709409 297.801988,33.8819892 C297.4775,34.3505108 297.07189,34.7402957 296.503224,35.1300806 C296.016491,35.5198656 295.286393,35.675 294.475172,35.675 C293.908129,35.675 293.340274,35.597043 292.852731,35.3639516 C292.365998,35.1300806 291.880077,34.8954301 291.554778,34.5056452 C291.149167,34.1158602 290.905801,33.7260753 290.662435,33.2583333 C290.418257,32.7905914 290.337947,32.3228495 290.337947,31.7771505 L290.337947,7.45456989 C290.337947,7.22069892 290.419069,7.06478495 290.662435,6.90887097 C290.905801,6.75295699 291.149167,6.675 291.473656,6.675 L297.557811,6.675 C298.774642,6.675 299.991473,6.75295699 301.208304,6.83091398 C302.425135,6.98682796 303.560033,7.14274194 304.696553,7.3766129 L304.696553,7.29865591 C306.56236,7.68844086 308.265113,8.62392473 309.644999,9.87123656 C311.024074,11.1965054 311.835295,12.8336022 312.160594,14.7825269 C312.241716,15.2502688 312.322027,15.7959677 312.322027,16.4196237 C312.404772,17.9008065 312.161406,19.1481183 311.674673,20.3174731 M303.481344,14.3927419 C302.993801,13.847043 302.345635,13.5352151 301.696659,13.5352151 L298.776264,13.5352151 L298.776264,19.4599462 L301.696659,19.4599462 C302.426757,19.4599462 302.994612,19.1481183 303.481344,18.6024194 C303.968077,18.0567204 304.210632,17.3551075 304.210632,16.4975806 C304.210632,15.6400538 303.968077,14.9384409 303.481344,14.3927419" id="Shape" fill="#1B1237"></path>
					<path d="M337.614243,32.4835955 C336.485052,33.520802 335.031391,34.3186531 333.497822,34.8771489 C331.883539,35.4356447 330.187735,35.675 328.332117,35.675 C326.476498,35.675 324.69998,35.3550617 323.167219,34.8771489 C321.552936,34.3186531 320.180795,33.520802 319.04999,32.4835955 C317.920799,31.4463891 316.951422,30.1690294 316.306516,28.6539101 C315.659996,27.137993 315.337947,25.4625057 315.337947,23.4678778 L315.337947,6.87177668 C315.337947,6.63242135 315.418661,6.47285112 315.659996,6.3132809 C315.902946,6.15371067 316.224995,6.07392556 316.548659,6.07392556 L322.520698,6.07392556 C322.843555,6.07392556 323.167219,6.15371067 323.32784,6.3132809 C323.570789,6.47285112 323.650696,6.71220646 323.650696,6.87177668 L323.650696,23.6258524 C323.650696,25.2215546 324.054267,26.4997121 324.942123,27.4571335 C325.830785,28.4129591 326.959976,28.8932655 328.332117,28.8932655 C329.704257,28.8932655 330.835062,28.4129591 331.722111,27.4571335 C332.609966,26.4997121 333.013537,25.2215546 333.013537,23.6258524 L333.013537,9.6642556 C333.013537,9.10575982 333.095058,8.62704915 333.336394,8.14833848 C333.577729,7.6696278 333.820678,7.27070224 334.224249,6.87177668 C334.62782,6.47285112 335.031391,6.23349578 335.516483,5.99414045 C336.000767,5.75478511 336.565767,5.675 337.130766,5.675 C337.695765,5.675 338.259956,5.75478511 338.745048,5.99414045 C339.229333,6.23349578 339.713618,6.47285112 340.117189,6.87177668 C340.52076,7.27070224 340.842809,7.6696278 341.005044,8.14833848 C341.247187,8.62704915 341.327901,9.10575982 341.327901,9.6642556 L341.327901,23.46708 C341.407808,25.4625057 341.004237,27.1371952 340.358524,28.6539101 C339.712811,30.1682316 338.824955,31.4463891 337.614243,32.4835955 Z" id="Path" fill="#1B1237"></path>
					<path d="M362.00288,19.3984043 C362.955189,20.1164894 363.749442,20.9143617 364.385638,21.9515957 C365.02104,22.9888298 365.337947,24.2654255 365.337947,25.7015957 C365.337947,26.7388298 365.17989,27.6962766 364.782764,28.6537234 C364.465063,29.6095745 363.988512,30.4888298 363.352315,31.3656915 C362.241156,32.8816489 360.969558,33.9978723 359.381053,34.637766 C357.792548,35.3550532 356.124618,35.675 354.298631,35.675 C353.583804,35.675 352.789551,35.593617 351.915874,35.4356383 C350.962771,35.2760638 350.089093,35.0367021 349.05577,34.7957447 C348.103462,34.5571809 347.150359,34.2388298 346.275887,33.918883 C345.402209,33.5989362 344.607956,33.2805851 344.05198,32.9614362 C343.813704,32.8816489 343.654853,32.8010638 343.496003,32.5625 C343.337947,32.3231383 343.337947,32.1635638 343.337947,32.0031915 C343.417372,31.2867021 343.576222,30.7273936 343.735073,30.2494681 C343.893129,29.7699468 344.05198,29.2920213 344.211624,28.8117021 C344.29105,28.5731383 344.29105,28.412766 344.370475,28.2547872 C344.4499,28.0952128 344.4499,27.9356383 344.529325,27.8558511 L344.449106,27.9356383 C344.529325,27.8558511 344.529325,27.6962766 344.607956,27.5367021 C344.686587,27.3771277 344.687382,27.2167553 344.766807,27.0579787 C344.766807,26.9773936 344.766807,26.8984043 344.846232,26.8170213 L344.846232,26.9781915 L344.846232,26.8178191 C344.846232,26.500266 345.005083,26.2609043 345.323578,26.1013298 C345.640485,25.9417553 346.037611,25.9417553 346.514957,26.0199468 C346.673013,26.1005319 346.911289,26.1803191 347.22899,26.2609043 C347.546691,26.418883 347.864392,26.500266 348.261518,26.6598404 C348.658644,26.8178191 348.976345,26.9781915 349.373471,27.0587766 C349.770598,27.2167553 350.008873,27.2981383 350.247149,27.3771277 C351.041402,27.6962766 351.756229,27.9356383 352.47185,28.175 C353.185883,28.4135638 353.821285,28.4941489 354.457482,28.4941489 C354.774388,28.4941489 355.092884,28.412766 355.40979,28.2547872 C355.727491,28.0952128 355.965767,27.9356383 356.204043,27.6962766 C356.443113,27.4569149 356.681389,27.2159574 356.76002,26.8984043 C356.91887,26.5792553 356.998295,26.1803191 356.998295,25.8611702 C356.998295,25.6202128 356.91887,25.3816489 356.76002,25.2212766 C356.601169,25.0632979 356.362893,24.8223404 356.124618,24.6643617 C355.886342,24.5047872 355.648066,24.3452128 355.40979,24.2654255 C355.171515,24.1848404 354.933239,24.0244681 354.774388,23.9462766 L354.774388,24.025266 C354.138986,23.7077128 353.503584,23.4683511 352.868977,23.2273936 C351.835654,22.9090426 350.803126,22.5101064 349.850023,22.1111702 C348.817495,21.712234 347.944611,21.1537234 347.150359,20.5952128 C346.356106,19.9569149 345.720704,19.1590426 345.164727,18.281383 C344.687382,17.3239362 344.4499,16.2069149 344.4499,14.8505319 C344.4499,13.4143617 344.767601,12.0579787 345.403003,10.9409574 C346.038405,9.82393617 346.832658,8.78670213 347.86598,8.06861702 C348.898508,7.27074468 350.009668,6.71223404 351.281266,6.31329787 C352.55207,5.9143617 353.822874,5.675 355.172309,5.675 C355.807711,5.675 356.681389,5.75478723 357.635286,5.9143617 C358.589183,6.07393617 359.540698,6.39308511 360.41517,6.79202128 C361.288847,7.19095745 362.0831,7.74946809 362.717708,8.38776596 C363.35311,9.02606383 363.670811,9.82393617 363.670811,10.781383 C363.670811,11.7388298 363.353904,12.5367021 362.638282,13.175 C361.923455,13.8132979 361.129203,14.212234 360.096674,14.212234 C359.540698,14.212234 358.984721,14.1324468 358.587595,13.9728723 C358.111043,13.8132979 357.635286,13.6537234 357.23816,13.4143617 C356.760814,13.2547872 356.285057,13.0154255 355.807711,12.8558511 C355.330365,12.6962766 354.853814,12.6164894 354.297837,12.6164894 C353.980136,12.6164894 353.58301,12.7760638 353.185883,13.0154255 C352.788757,13.2547872 352.629907,13.6537234 352.629907,14.212234 C352.629907,14.531383 352.710126,14.7707447 352.868977,15.0101064 C353.027033,15.2494681 353.185883,15.4090426 353.424159,15.568617 C353.663229,15.7281915 353.901505,15.887766 354.218412,15.9675532 C354.536113,16.0473404 354.774388,16.2069149 355.012664,16.2867021 C355.171515,16.3664894 355.330365,16.4462766 355.49001,16.4462766 L355.331159,16.3664894 L355.49001,16.3664894 L355.49001,16.4462766 C356.442319,16.925 357.554272,17.3239362 358.745651,17.7228723 C359.93703,18.2015957 360.969558,18.7601064 362.00288,19.3984043 Z" id="Path" fill="#1B1237"></path>
				</g>
			</g>
		</g>
	</g>
</svg>
