<?xml version="1.0" encoding="UTF-8" standalone="no"?>
<!-- Created with Inkscape (http://www.inkscape.org/) -->

<svg
   width="400"
   height="450"
   viewBox="0 0 105.83332 119.06248"
   version="1.1"
   id="svg491"
   inkscape:version="1.2.2 (b0a8486541, 2022-12-01)"
   sodipodi:docname="favicon.svg"
   xmlns:inkscape="http://www.inkscape.org/namespaces/inkscape"
   xmlns:sodipodi="http://sodipodi.sourceforge.net/DTD/sodipodi-0.dtd"
   xmlns:xlink="http://www.w3.org/1999/xlink"
   xmlns="http://www.w3.org/2000/svg"
   xmlns:svg="http://www.w3.org/2000/svg">
  <sodipodi:namedview
     id="namedview493"
     pagecolor="#ffffff"
     bordercolor="#000000"
     borderopacity="0.25"
     inkscape:showpageshadow="2"
     inkscape:pageopacity="0.0"
     inkscape:pagecheckerboard="0"
     inkscape:deskcolor="#d1d1d1"
     inkscape:document-units="px"
     showgrid="false"
     inkscape:zoom="0.914906"
     inkscape:cx="145.37012"
     inkscape:cy="331.18156"
     inkscape:window-width="2560"
     inkscape:window-height="1368"
     inkscape:window-x="0"
     inkscape:window-y="40"
     inkscape:window-maximized="1"
     inkscape:current-layer="layer1" />
  <defs
     id="defs488"><clipPath
   id="SVGID_2_">
			<use
   xlink:href="#SVGID_1_"
   style="overflow:visible"
   id="use39" />

		</clipPath>
<clipPath
   id="clipPath346">
			<use
   xlink:href="#SVGID_1_"
   style="overflow:visible"
   id="use344" />

		</clipPath>
<clipPath
   id="clipPath350">
			<use
   xlink:href="#SVGID_1_"
   style="overflow:visible"
   id="use348" />

		</clipPath>
<clipPath
   id="clipPath354">
			<use
   xlink:href="#SVGID_1_"
   style="overflow:visible"
   id="use352" />

		</clipPath>
<clipPath
   id="clipPath358">
			<use
   xlink:href="#SVGID_1_"
   style="overflow:visible"
   id="use356" />

		</clipPath>
<clipPath
   id="clipPath362">
			<use
   xlink:href="#SVGID_1_"
   style="overflow:visible"
   id="use360" />

		</clipPath>
<clipPath
   id="clipPath366">
			<use
   xlink:href="#SVGID_1_"
   style="overflow:visible"
   id="use364" />

		</clipPath>
<clipPath
   id="clipPath370">
			<use
   xlink:href="#SVGID_1_"
   style="overflow:visible"
   id="use368" />

		</clipPath>
<path
   id="SVGID_1_"
   d="m 144.38,186.47 -12.14,-28.49 c 6.36,-15.05 3.42,-33.1 -8.84,-45.37 -16.15,-16.15 -42.34,-16.15 -58.49,0 C 52.73,124.79 49.82,143.02 56,158 l -12.38,28.47 c -0.84,1.97 -0.83,4.22 0.03,6.17 0.85,1.96 2.5,3.5 4.51,4.22 l 43.2,15.55 c 0.85,0.31 1.75,0.46 2.64,0.46 0.89,0 1.79,-0.15 2.64,-0.46 l 43.2,-15.55 c 2.01,-0.72 3.65,-2.26 4.51,-4.22 0.86,-1.95 0.87,-4.2 0.03,-6.17 z" />

	
	
	
	
	

		<defs
   id="defs37">
			<path
   id="path652"
   d="m 144.38,186.47 -12.14,-28.49 c 6.36,-15.05 3.42,-33.1 -8.84,-45.37 -16.15,-16.15 -42.34,-16.15 -58.49,0 C 52.73,124.79 49.82,143.02 56,158 l -12.38,28.47 c -0.84,1.97 -0.83,4.22 0.03,6.17 0.85,1.96 2.5,3.5 4.51,4.22 l 43.2,15.55 c 0.85,0.31 1.75,0.46 2.64,0.46 0.89,0 1.79,-0.15 2.64,-0.46 l 43.2,-15.55 c 2.01,-0.72 3.65,-2.26 4.51,-4.22 0.86,-1.95 0.87,-4.2 0.03,-6.17 z" />

		</defs>

		<clipPath
   id="clipPath386">
			<use
   xlink:href="#SVGID_1_"
   style="overflow:visible"
   id="use384" />

		</clipPath>

		
		
		
		
		
		
		
	
			
			
		<clipPath
   clipPathUnits="userSpaceOnUse"
   id="clipPath822">
  <g
     id="g826"
     transform="matrix(1.344478,0,0,1.344478,34.803218,70.013227)">
    <use
       xlink:href="#SVGID_1_"
       style="overflow:visible"
       id="use824"
       transform="matrix(0.74378311,0,0,0.74378311,-25.886046,-52.074656)" />
  </g>
</clipPath>
<clipPath
   clipPathUnits="userSpaceOnUse"
   id="clipPath828">
  <g
     id="g832"
     transform="matrix(1.344478,0,0,1.344478,34.803218,70.013227)">
    <use
       xlink:href="#SVGID_1_"
       style="overflow:visible"
       id="use830"
       transform="matrix(0.74378311,0,0,0.74378311,-25.886046,-52.074656)" />
  </g>
</clipPath>

			
			
		<clipPath
   clipPathUnits="userSpaceOnUse"
   id="clipPath843">
  <g
     id="g847"
     transform="matrix(1.344478,0,0,1.344478,34.803218,70.013227)">
    <use
       xlink:href="#SVGID_1_"
       style="overflow:visible"
       id="use845"
       transform="matrix(0.74378311,0,0,0.74378311,-25.886046,-52.074656)" />
  </g>
</clipPath>
<clipPath
   clipPathUnits="userSpaceOnUse"
   id="clipPath849">
  <g
     id="g853"
     transform="matrix(1.344478,0,0,1.344478,34.803218,70.013227)">
    <use
       xlink:href="#SVGID_1_"
       style="overflow:visible"
       id="use851"
       transform="matrix(0.74378311,0,0,0.74378311,-25.886046,-52.074656)" />
  </g>
</clipPath>

			
			
		<clipPath
   clipPathUnits="userSpaceOnUse"
   id="clipPath864">
  <g
     id="g868"
     transform="matrix(1.344478,0,0,1.344478,34.803218,70.013227)">
    <use
       xlink:href="#SVGID_1_"
       style="overflow:visible"
       id="use866"
       transform="matrix(0.74378311,0,0,0.74378311,-25.886046,-52.074656)" />
  </g>
</clipPath>

				
					
			<clipPath
   clipPathUnits="userSpaceOnUse"
   id="clipPath883">
  <g
     id="g889"
     transform="rotate(15.754143)">
    <g
       id="g887">
      <use
         xlink:href="#SVGID_1_"
         style="overflow:visible"
         id="use885"
         transform="matrix(0.74378311,0,0,0.74378311,-25.886046,-52.074656)" />
    </g>
  </g>
</clipPath>

				
			
			
			
		<clipPath
   clipPathUnits="userSpaceOnUse"
   id="clipPath901">
  <g
     id="g905"
     transform="matrix(1.344478,0,0,1.344478,34.803218,70.013227)">
    <use
       xlink:href="#SVGID_1_"
       style="overflow:visible"
       id="use903"
       transform="matrix(0.74378311,0,0,0.74378311,-25.886046,-52.074656)" />
  </g>
</clipPath>

				
			<clipPath
   clipPathUnits="userSpaceOnUse"
   id="clipPath920">
  <g
     id="g926">
    <g
       id="g924">
      <use
         xlink:href="#SVGID_1_"
         style="overflow:visible"
         id="use922"
         transform="matrix(0.74378311,0,0,0.74378311,-25.886046,-52.074656)" />
    </g>
  </g>
</clipPath>

			
			
		<clipPath
   clipPathUnits="userSpaceOnUse"
   id="clipPath958">
  <g
     id="g962"
     transform="matrix(1.344478,0,0,1.344478,34.803218,70.013227)">
    <use
       xlink:href="#SVGID_1_"
       style="overflow:visible"
       id="use960"
       transform="matrix(0.74378311,0,0,0.74378311,-25.886046,-52.074656)" />
  </g>
</clipPath>
<clipPath
   clipPathUnits="userSpaceOnUse"
   id="clipPath964">
  <g
     id="g968"
     transform="matrix(1.344478,0,0,1.344478,34.803218,70.013227)">
    <use
       xlink:href="#SVGID_1_"
       style="overflow:visible"
       id="use966"
       transform="matrix(0.74378311,0,0,0.74378311,-25.886046,-52.074656)" />
  </g>
</clipPath>
</defs>
  <g
     inkscape:label="Calque 1"
     inkscape:groupmode="layer"
     id="layer1">
			
		
			
		
			
		
			
		<g
   id="g1108"
   inkscape:label="locokit"
   transform="translate(8.8829221,3.6718104)">
  <g
     class="st3"
     clip-path="url(#SVGID_2_)"
     id="g52"
     transform="matrix(0.74378311,0,0,0.74378311,-25.886046,-52.074656)"
     style="display:inline"
     inkscape:label="ombre2">
			
			<path
   class="st5"
   d="M 125.13,152.72 H 94 62.87 l -15.14,35.51 c -0.75,1.76 0.13,3.78 1.93,4.43 l 43.2,15.55 c 0.73,0.26 1.52,0.26 2.25,0 l 43.2,-15.55 c 1.8,-0.65 2.68,-2.67 1.93,-4.43 z"
   id="path46"
   clip-path="url(#SVGID_2_)"
   style="fill:#ff8d00"
   sodipodi:nodetypes="cccccccccc" />

		</g>
  <g
     id="g934"
     style="display:inline"
     inkscape:label="ombre1">
    <path
       id="polygon84"
       style="display:inline;fill:#ffb000"
       class="st1"
       transform="matrix(0.53875924,0,0,0.53875924,-9.0084812,-14.266204)"
       d="M 67.051137,205.03686 73.71,184.41 l 8.61,2.42 -6.658863,22.12328 z"
       sodipodi:nodetypes="ccccc" />
    <circle
       class="st1"
       cx="44.304768"
       cy="58.458954"
       r="31.528965"
       id="circle54"
       style="fill:#ffb000;stroke-width:0.743783"
       clip-path="url(#clipPath920)" />
    <rect
       x="34.378334"
       y="94.228409"
       transform="matrix(0.81774453,-0.19735016,0.23069164,0.69955728,8.8204907,21.72746)"
       class="st1"
       width="6.6566124"
       height="22.260605"
       id="rect74"
       style="fill:#ffb000;stroke-width:0.743756"
       clip-path="url(#clipPath883)" />
    <path
       id="rect64"
       style="fill:#ffb000;stroke-width:0.529782"
       class="st1"
       d="m 45.167553,86.246689 h 6.656859 l -0.04246,12.062617 -6.614395,2.318314 z"
       sodipodi:nodetypes="ccccc" />
    <path
       class="st1"
       d="M 55.649505,193.82493 64.68,172.93 c -2.34,-3.01 -4.21,-6.27 -5.6,-9.67 l -11.083685,25.94119 z"
       id="path96"
       style="fill:#ffb000"
       transform="matrix(0.74378312,0,0,0.74378312,-25.886046,-52.074657)"
       sodipodi:nodetypes="ccccc" />
  </g>
  <g
     id="g944"
     style="display:inline"
     inkscape:label="loco">
    <circle
       class="st2"
       cx="94.370003"
       cy="141.61"
       r="42.389999"
       id="circle58"
       style="display:inline;fill:#005767"
       transform="matrix(0.74378312,0,0,0.74378312,-25.886046,-52.074657)" />
    <rect
       x="89.529999"
       y="169.97"
       class="st2"
       width="8.9499998"
       height="38.110001"
       id="rect68"
       style="display:inline;fill:#005767"
       transform="matrix(0.74378312,0,0,0.74378312,-25.886046,-52.074657)" />
    <rect
       x="110.58"
       y="167.63"
       transform="matrix(0.71581687,-0.20193711,0.20193711,0.71581687,-59.541339,-23.744701)"
       class="st2"
       width="8.9499998"
       height="29.93"
       id="rect78"
       style="display:inline;fill:#005767" />
    <polygon
       class="st2"
       points="64.58,198.99 72.71,170.41 81.32,172.83 73.19,201.41 "
       id="polygon88"
       style="display:inline;fill:#005767"
       transform="matrix(0.74378312,0,0,0.74378312,-25.886046,-52.074657)" />
    <path
       class="st2"
       d="m 144.38,186.47 -12.09,-28.36 c -1.45,3.33 -3.34,6.5 -5.71,9.43 l 9.09,21.32 -41.67,15 -41.67,-15 9.35,-21.93 c -2.34,-3.01 -4.21,-6.27 -5.6,-9.67 l -12.45,29.22 c -0.84,1.97 -0.83,4.22 0.03,6.17 0.85,1.96 2.5,3.5 4.51,4.22 l 43.2,15.55 c 0.85,0.31 1.75,0.46 2.64,0.46 0.89,0 1.79,-0.15 2.64,-0.46 l 43.2,-15.55 c 2.01,-0.72 3.65,-2.26 4.51,-4.22 0.85,-1.96 0.86,-4.21 0.02,-6.18 z"
       id="path100"
       style="fill:#005767"
       transform="matrix(0.74378312,0,0,0.74378312,-25.886046,-52.074657)" />
    <rect
       x="33.043892"
       y="13.147683"
       class="st2"
       width="22.521753"
       height="24.723351"
       id="rect20"
       style="fill:#005767;stroke-width:0.743783" />
    <path
       class="st2"
       d="M 54.10039,14.798884 H 34.509142 c -1.413187,0 -2.566051,-1.145426 -2.566051,-2.566051 V 8.023019 c 0,-1.4131872 1.145423,-2.5660509 2.566051,-2.5660509 H 54.10039 c 1.413187,0 2.566051,1.1454263 2.566051,2.5660509 v 4.209814 c 0,1.413188 -1.152864,2.566051 -2.566051,2.566051 z"
       id="path22"
       style="fill:#005767;stroke-width:0.743783" />
  </g>
  <circle
     class="st6"
     cx="94.370003"
     cy="141.61"
     r="10.34"
     clip-path="url(#SVGID_2_)"
     id="circle94"
     style="fill:#ffffff"
     transform="matrix(0.74378312,0,0,0.74378312,-25.886046,-52.074657)"
     inkscape:label="phare" />
</g>

			
		</g>
</svg>
