<?xml version="1.0" encoding="UTF-8" standalone="no"?>
<!-- Created with Inkscape (http://www.inkscape.org/) -->

<svg
   width="400"
   height="450"
   viewBox="0 0 105.83332 119.06248"
   version="1.1"
   id="svg491"
   inkscape:version="1.2.2 (b0a8486541, 2022-12-01)"
   sodipodi:docname="favicon.svg"
   inkscape:export-filename="favicon.png"
   inkscape:export-xdpi="96"
   inkscape:export-ydpi="96"
   xmlns:inkscape="http://www.inkscape.org/namespaces/inkscape"
   xmlns:sodipodi="http://sodipodi.sourceforge.net/DTD/sodipodi-0.dtd"
   xmlns:xlink="http://www.w3.org/1999/xlink"
   xmlns="http://www.w3.org/2000/svg"
   xmlns:svg="http://www.w3.org/2000/svg">
  <sodipodi:namedview
     id="namedview493"
     pagecolor="#ffffff"
     bordercolor="#000000"
     borderopacity="0.25"
     inkscape:showpageshadow="2"
     inkscape:pageopacity="0.0"
     inkscape:pagecheckerboard="0"
     inkscape:deskcolor="#d1d1d1"
     inkscape:document-units="px"
     showgrid="false"
     inkscape:zoom="1.2938725"
     inkscape:cx="119.40898"
     inkscape:cy="216.40463"
     inkscape:window-width="1920"
     inkscape:window-height="1008"
     inkscape:window-x="0"
     inkscape:window-y="40"
     inkscape:window-maximized="1"
     inkscape:current-layer="g586" />
  <defs
     id="defs488">
    <clipPath
       id="SVGID_2_">
      <use
         xlink:href="#SVGID_1_"
         style="overflow:visible"
         id="use39" />
    </clipPath>
    <clipPath
       id="clipPath346">
      <use
         xlink:href="#SVGID_1_"
         style="overflow:visible"
         id="use344" />
    </clipPath>
    <clipPath
       id="clipPath350">
      <use
         xlink:href="#SVGID_1_"
         style="overflow:visible"
         id="use348" />
    </clipPath>
    <clipPath
       id="clipPath354">
      <use
         xlink:href="#SVGID_1_"
         style="overflow:visible"
         id="use352" />
    </clipPath>
    <clipPath
       id="clipPath358">
      <use
         xlink:href="#SVGID_1_"
         style="overflow:visible"
         id="use356" />
    </clipPath>
    <clipPath
       id="clipPath362">
      <use
         xlink:href="#SVGID_1_"
         style="overflow:visible"
         id="use360" />
    </clipPath>
    <clipPath
       id="clipPath366">
      <use
         xlink:href="#SVGID_1_"
         style="overflow:visible"
         id="use364" />
    </clipPath>
    <clipPath
       id="clipPath370">
      <use
         xlink:href="#SVGID_1_"
         style="overflow:visible"
         id="use368" />
    </clipPath>
    <path
       id="SVGID_1_"
       d="m 144.38,186.47 -12.14,-28.49 c 6.36,-15.05 3.42,-33.1 -8.84,-45.37 -16.15,-16.15 -42.34,-16.15 -58.49,0 C 52.73,124.79 49.82,143.02 56,158 l -12.38,28.47 c -0.84,1.97 -0.83,4.22 0.03,6.17 0.85,1.96 2.5,3.5 4.51,4.22 l 43.2,15.55 c 0.85,0.31 1.75,0.46 2.64,0.46 0.89,0 1.79,-0.15 2.64,-0.46 l 43.2,-15.55 c 2.01,-0.72 3.65,-2.26 4.51,-4.22 0.86,-1.95 0.87,-4.2 0.03,-6.17 z" />
    <defs
       id="defs37">
      <path
         id="path652"
         d="m 144.38,186.47 -12.14,-28.49 c 6.36,-15.05 3.42,-33.1 -8.84,-45.37 -16.15,-16.15 -42.34,-16.15 -58.49,0 C 52.73,124.79 49.82,143.02 56,158 l -12.38,28.47 c -0.84,1.97 -0.83,4.22 0.03,6.17 0.85,1.96 2.5,3.5 4.51,4.22 l 43.2,15.55 c 0.85,0.31 1.75,0.46 2.64,0.46 0.89,0 1.79,-0.15 2.64,-0.46 l 43.2,-15.55 c 2.01,-0.72 3.65,-2.26 4.51,-4.22 0.86,-1.95 0.87,-4.2 0.03,-6.17 z" />
    </defs>
    <clipPath
       id="clipPath386">
      <use
         xlink:href="#SVGID_1_"
         style="overflow:visible"
         id="use384" />
    </clipPath>
    <clipPath
       clipPathUnits="userSpaceOnUse"
       id="clipPath822">
      <g
         id="g826"
         transform="matrix(1.344478,0,0,1.344478,34.803218,70.013227)">
        <use
           xlink:href="#SVGID_1_"
           style="overflow:visible"
           id="use824"
           transform="matrix(0.74378311,0,0,0.74378311,-25.886046,-52.074656)" />
      </g>
    </clipPath>
    <clipPath
       clipPathUnits="userSpaceOnUse"
       id="clipPath828">
      <g
         id="g832"
         transform="matrix(1.344478,0,0,1.344478,34.803218,70.013227)">
        <use
           xlink:href="#SVGID_1_"
           style="overflow:visible"
           id="use830"
           transform="matrix(0.74378311,0,0,0.74378311,-25.886046,-52.074656)" />
      </g>
    </clipPath>
    <clipPath
       clipPathUnits="userSpaceOnUse"
       id="clipPath843">
      <g
         id="g847"
         transform="matrix(1.344478,0,0,1.344478,34.803218,70.013227)">
        <use
           xlink:href="#SVGID_1_"
           style="overflow:visible"
           id="use845"
           transform="matrix(0.74378311,0,0,0.74378311,-25.886046,-52.074656)" />
      </g>
    </clipPath>
    <clipPath
       clipPathUnits="userSpaceOnUse"
       id="clipPath849">
      <g
         id="g853"
         transform="matrix(1.344478,0,0,1.344478,34.803218,70.013227)">
        <use
           xlink:href="#SVGID_1_"
           style="overflow:visible"
           id="use851"
           transform="matrix(0.74378311,0,0,0.74378311,-25.886046,-52.074656)" />
      </g>
    </clipPath>
    <clipPath
       clipPathUnits="userSpaceOnUse"
       id="clipPath864">
      <g
         id="g868"
         transform="matrix(1.344478,0,0,1.344478,34.803218,70.013227)">
        <use
           xlink:href="#SVGID_1_"
           style="overflow:visible"
           id="use866"
           transform="matrix(0.74378311,0,0,0.74378311,-25.886046,-52.074656)" />
      </g>
    </clipPath>
    <clipPath
       clipPathUnits="userSpaceOnUse"
       id="clipPath883">
      <g
         id="g889"
         transform="rotate(15.754143)">
        <g
           id="g887">
          <use
             xlink:href="#SVGID_1_"
             style="overflow:visible"
             id="use885"
             transform="matrix(0.74378311,0,0,0.74378311,-25.886046,-52.074656)" />
        </g>
      </g>
    </clipPath>
    <clipPath
       clipPathUnits="userSpaceOnUse"
       id="clipPath901">
      <g
         id="g905"
         transform="matrix(1.344478,0,0,1.344478,34.803218,70.013227)">
        <use
           xlink:href="#SVGID_1_"
           style="overflow:visible"
           id="use903"
           transform="matrix(0.74378311,0,0,0.74378311,-25.886046,-52.074656)" />
      </g>
    </clipPath>
    <clipPath
       clipPathUnits="userSpaceOnUse"
       id="clipPath920">
      <g
         id="g926">
        <g
           id="g924">
          <use
             xlink:href="#SVGID_1_"
             style="overflow:visible"
             id="use922"
             transform="matrix(0.74378311,0,0,0.74378311,-25.886046,-52.074656)" />
        </g>
      </g>
    </clipPath>
    <clipPath
       clipPathUnits="userSpaceOnUse"
       id="clipPath958">
      <g
         id="g962"
         transform="matrix(1.344478,0,0,1.344478,34.803218,70.013227)">
        <use
           xlink:href="#SVGID_1_"
           style="overflow:visible"
           id="use960"
           transform="matrix(0.74378311,0,0,0.74378311,-25.886046,-52.074656)" />
      </g>
    </clipPath>
    <clipPath
       clipPathUnits="userSpaceOnUse"
       id="clipPath964">
      <g
         id="g968"
         transform="matrix(1.344478,0,0,1.344478,34.803218,70.013227)">
        <use
           xlink:href="#SVGID_1_"
           style="overflow:visible"
           id="use966"
           transform="matrix(0.74378311,0,0,0.74378311,-25.886046,-52.074656)" />
      </g>
    </clipPath>
    <clipPath
       id="SVGID_2_-3">
      <path
         id="use39-6"
         d="m 144.38,186.47 -12.14,-28.49 c 6.36,-15.05 3.42,-33.1 -8.84,-45.37 -16.15,-16.15 -42.34,-16.15 -58.49,0 C 52.73,124.79 49.82,143.02 56,158 l -12.38,28.47 c -0.84,1.97 -0.83,4.22 0.03,6.17 0.85,1.96 2.5,3.5 4.51,4.22 l 43.2,15.55 c 0.85,0.31 1.75,0.46 2.64,0.46 0.89,0 1.79,-0.15 2.64,-0.46 l 43.2,-15.55 c 2.01,-0.72 3.65,-2.26 4.51,-4.22 0.86,-1.95 0.87,-4.2 0.03,-6.17 z" />
    </clipPath>
  </defs>
  <g
     id="g586"
     transform="matrix(2.3832009,0,0,2.3832009,-90.117477,-0.65518441)">
    <g
       id="g3200"
       transform="matrix(0.34890668,0,0,0.34890668,25.800379,-23.002469)">
      <path
         class="st5"
         d="M 61.357969,158.11291 47.73,188.23 c -0.75,1.76 0.13,3.78 1.93,4.43 l 43.2,15.55 c 0.73,0.26 1.52,0.26 2.25,0 l 43.2,-15.55 c 1.8,-0.65 2.68,-2.67 1.93,-4.43 l -12.38981,-30.11709 z"
         id="path46-3"
         clip-path="url(#SVGID_2_-3)"
         style="display:inline;fill:#ff8d00"
         sodipodi:nodetypes="ccccccccc"
         transform="matrix(1.0309451,0,0,1.0309451,1.4746932,-13.835411)"
         inkscape:label="ombre orange" />
      <path
         id="polygon84-6"
         style="display:inline;fill:#ffb000;stroke-width:0.746767"
         class="st1"
         d="m 62.933992,153.14248 -12.25229,27.0769 c -0.27245,1.18012 -0.73328,3.38643 1.98972,4.56709 l 5.89952,2.12356 7.76493,-18.25264 c 3.64739,4.03347 8.01555,7.35076 12.88011,9.78149 l -4.7603,14.23912 6.74084,2.37618 4.27257,-14.06464 c 4.29757,1.3776 8.78259,2.08121 13.295554,2.08581 0.39888,-0.007 0.797642,-0.0199 1.196172,-0.038 l -0.43294,17.78026 9.967502,-3.58785 -0.3211,-15.43014 c 4.1056,-1.00828 8.04317,-2.60696 11.68965,-4.74606 l 4.78895,14.36025 7.25116,-2.61008 -5.45465,-16.48048 c 4.13932,-3.60068 7.53786,-7.92545 10.04904,-12.73022 -4.21722,-10.42276 -4.21722,-10.42276 -8.55728,-10.42274 l -62.324008,-2e-5 c -1.88575,0 -1.88575,0 -3.68315,3.97216 z"
         inkscape:label="ombre jaune"
         sodipodi:nodetypes="cccccccccccccccccccccc" />
      <path
         id="circle58"
         style="display:inline;fill:#005767;stroke-width:1.03095"
         class="st2"
         d="m 84.868287,68.446758 c -1.9691,0 -3.55704,1.59824 -3.55704,3.557029 v 5.8348 c 0,1.210801 0.60493,2.27693 1.52567,2.918841 v 13.145853 a 43.701761,43.701761 0 0 0 -28.09314,40.792049 43.701761,43.701761 0 0 0 3.66949,17.4421 l -12.27772,28.81658 c -0.86599,2.03093 -0.85581,4.35092 0.0308,6.36126 0.8763,2.02065 2.57717,3.60768 4.64936,4.34996 l 44.53746,16.03173 c 0.8763,0.3196 1.8036,0.47419 2.72114,0.47419 0.91754,0 1.84555,-0.15459 2.721843,-0.47419 l 44.53673,-16.03173 c 2.07216,-0.74228 3.76346,-2.32931 4.65008,-4.34996 0.87627,-2.02065 0.88604,-4.34033 0.02,-6.37129 L 138.1056,153.03564 a 43.701761,43.701761 0 0 0 4.04197,-18.34031 43.701761,43.701761 0 0 0 -28.09315,-40.81426 V 80.754558 c 0.92076,-0.64397 1.52568,-1.711511 1.52568,-2.915971 v -5.8348 c 0,-1.969089 -1.59825,-3.557029 -3.55704,-3.557029 z m 13.57705,55.588932 a 10.659973,10.659973 0 0 1 10.660353,10.65964 10.659973,10.659973 0 0 1 -10.660353,10.66037 10.659973,10.659973 0 0 1 -10.65965,-10.66037 10.659973,10.659973 0 0 1 10.65965,-10.65964 z m -34.16575,37.85315 a 43.701761,43.701761 0 0 0 9.94481,9.144 l -4.96883,17.46858 -14.15079,-5.09344 z m 67.842273,0.63891 8.9019,20.88023 -13.28481,4.78187 -4.87498,-17.28236 a 43.701761,43.701761 0 0 0 9.25789,-8.37974 z m -17.60683,12.76909 4.52115,16.02601 -16.35335,5.88638 v -19.0351 a 43.701761,43.701761 0 0 0 11.8322,-2.87729 z m -31.940263,0.0824 a 43.701761,43.701761 0 0 0 10.88098,2.69606 v 19.13753 l -15.50456,-5.58125 z"
         inkscape:label="loco" />
    </g>
  </g>
</svg>
